<svg width="732" height="430" viewBox="0 0 732 430" fill="none" xmlns="http://www.w3.org/2000/svg">
<path d="M212.091 243.769L157.468 222.76L154.985 206.263L222.437 210.111L212.091 243.769Z" fill="#FFDC38"/>
<path d="M212.091 243.769L157.468 222.76L154.985 206.263L222.437 210.111L212.091 243.769Z" stroke="#2E1E00" stroke-width="2" stroke-miterlimit="10" stroke-linecap="round" stroke-linejoin="round"/>
<path d="M220.015 186.95V217.282L169.531 219.568L169.209 186.95H220.015Z" fill="#FA6456"/>
<path d="M220.015 186.95V217.282L169.531 219.568L169.209 186.95H220.015Z" stroke="#2E1E00" stroke-width="2" stroke-miterlimit="10" stroke-linecap="round" stroke-linejoin="round"/>
<path d="M326.082 243.769L271.459 222.76L268.976 206.263L336.428 210.111L326.082 243.769Z" fill="#73B7EA"/>
<path d="M326.082 243.769L271.459 222.76L268.976 206.263L336.428 210.111L326.082 243.769Z" stroke="#2E1E00" stroke-width="2" stroke-miterlimit="10" stroke-linecap="round" stroke-linejoin="round"/>
<path d="M280.004 186.95H334.003V217.282L275.094 219.949L280.004 186.95Z" fill="#FFDC38"/>
<path d="M280.004 186.95H334.003V217.282L275.094 219.949L280.004 186.95Z" stroke="#2E1E00" stroke-width="2" stroke-miterlimit="10" stroke-linecap="round" stroke-linejoin="round"/>
<path d="M453.36 243.48L398.736 222.472L396.253 205.974L463.705 209.823L453.36 243.48Z" fill="#ADF0E7"/>
<path d="M453.36 243.48L398.736 222.472L396.253 205.974L463.705 209.823L453.36 243.48Z" stroke="#2E1E00" stroke-width="2" stroke-miterlimit="10" stroke-linecap="round" stroke-linejoin="round"/>
<path d="M407.282 186.661H461.281V216.994L402.371 219.66L407.282 186.661Z" fill="#73B7EA"/>
<path d="M407.282 186.661H461.281V216.994L402.371 219.66L407.282 186.661Z" stroke="#2E1E00" stroke-width="2" stroke-miterlimit="10" stroke-linecap="round" stroke-linejoin="round"/>
<path d="M569.613 242.779L514.989 221.77L512.506 205.273L579.958 209.122L569.613 242.779Z" fill="#FFDC38"/>
<path d="M569.613 242.779L514.989 221.77L512.506 205.273L579.958 209.122L569.613 242.779Z" stroke="#2E1E00" stroke-width="2" stroke-miterlimit="10" stroke-linecap="round" stroke-linejoin="round"/>
<path d="M523.534 185.96H577.533V216.292L518.624 218.959L523.534 185.96Z" fill="#ADF0E7"/>
<path d="M523.534 185.96H577.533V216.292L518.624 218.959L523.534 185.96Z" stroke="#2E1E00" stroke-width="2" stroke-miterlimit="10" stroke-linecap="round" stroke-linejoin="round"/>
<path d="M169.531 219.568L169.641 230.464L165.777 411.08C165.777 420.789 157.904 428.662 148.195 428.662H147.152C137.443 428.662 129.576 420.789 129.576 411.08L125.009 290.304C124.992 289.751 124.169 289.758 124.151 290.31L121.082 411.08C121.082 420.789 113.209 428.662 103.5 428.662C93.7962 428.662 85.9238 420.789 85.9238 411.08C85.7223 405.056 85.5265 399.026 85.3307 393.002C84.8584 378.692 84.392 364.387 83.9197 350.076C83.3611 333.11 82.8083 316.139 82.2497 299.173C81.7889 285.161 80.7811 271.162 80.8675 257.15C80.9251 248.114 80.8906 239.321 80.8733 230.636C80.8387 213.912 80.8733 197.615 81.7659 180.879C81.7659 180.483 81.7659 180.079 81.7717 179.682C81.835 171.297 82.5722 162.831 82.8774 154.452C83.3554 141.333 83.8276 128.214 84.3056 115.096C84.7721 102.201 85.2385 89.3015 85.705 76.4016C85.9584 69.393 86.2118 62.3844 86.4652 55.3758C86.4709 55.1743 86.4767 54.9785 86.4824 54.7827C86.4997 54.4026 86.9547 54.2298 87.2196 54.4947L105.015 72.2897C105.153 72.4279 105.372 72.451 105.544 72.3473C130.567 57.5066 149.963 72.6928 152.785 74.3111C152.952 74.4032 153.159 74.3744 153.291 74.2477L171.04 57.4202C171.317 57.1553 171.772 57.3627 171.76 57.7428L169.14 179.687L169.209 186.949L169.531 219.568Z" fill="#FA6456"/>
<path d="M169.531 219.568L169.641 230.464L165.777 411.08C165.777 420.789 157.904 428.662 148.195 428.662H147.152C137.443 428.662 129.576 420.789 129.576 411.08L125.009 290.304C124.992 289.751 124.169 289.758 124.151 290.31L121.082 411.08C121.082 420.789 113.209 428.662 103.5 428.662C93.7962 428.662 85.9238 420.789 85.9238 411.08C85.7223 405.056 85.5265 399.026 85.3307 393.002C84.8584 378.692 84.392 364.387 83.9197 350.076C83.3611 333.11 82.8083 316.139 82.2497 299.173C81.7889 285.161 80.7811 271.162 80.8675 257.15C80.9251 248.114 80.8906 239.321 80.8733 230.636C80.8387 213.912 80.8733 197.615 81.7659 180.879C81.7659 180.483 81.7659 180.079 81.7717 179.682C81.835 171.297 82.5722 162.831 82.8774 154.452C83.3554 141.333 83.8276 128.214 84.3056 115.096C84.7721 102.201 85.2385 89.3015 85.705 76.4016C85.9584 69.393 86.2118 62.3844 86.4652 55.3758C86.4709 55.1743 86.4767 54.9785 86.4824 54.7827C86.4997 54.4026 86.9547 54.2298 87.2196 54.4947L105.015 72.2897C105.153 72.4279 105.372 72.451 105.544 72.3473C130.567 57.5066 149.963 72.6928 152.785 74.3111C152.952 74.4032 153.159 74.3744 153.291 74.2477L171.04 57.4202C171.317 57.1553 171.772 57.3627 171.76 57.7428L169.14 179.687L169.209 186.949L169.531 219.568Z" stroke="#2E1E00" stroke-width="2" stroke-miterlimit="10" stroke-linecap="round" stroke-linejoin="round"/>
<path d="M82.8174 156.17C82.8174 156.17 130.399 178.998 168.637 156.17" stroke="#FEFFFA" stroke-width="2" stroke-miterlimit="10" stroke-linecap="round" stroke-linejoin="round"/>
<path d="M126.069 176.311V166.316" stroke="#FEFFFA" stroke-width="2" stroke-miterlimit="10" stroke-linecap="round" stroke-linejoin="round"/>
<path d="M133.294 187.906C134.355 189.775 133.701 192.15 131.833 193.211C130.157 194.161 128.078 193.736 126.898 192.294C126.602 192.666 126.226 192.989 125.788 193.239C123.92 194.3 121.544 193.646 120.482 191.778C119.856 190.675 119.828 189.396 120.294 188.315C120.013 188.305 119.728 188.259 119.444 188.182C117.372 187.611 116.154 185.466 116.725 183.394C117.295 181.322 119.439 180.107 121.511 180.677C121.878 180.779 122.22 180.93 122.527 181.122C121.604 179.285 122.277 177.022 124.086 175.995C125.954 174.933 128.33 175.588 129.391 177.456C129.854 178.264 129.992 179.171 129.846 180.026C131.695 179.049 134.004 179.713 135.045 181.547C136.106 183.419 135.452 185.795 133.584 186.857C133.324 187.004 133.052 187.119 132.774 187.201C132.972 187.409 133.147 187.647 133.294 187.906Z" fill="#FEFFFA"/>
<path d="M133.294 187.906C134.355 189.775 133.701 192.15 131.833 193.211C130.157 194.161 128.078 193.736 126.898 192.294C126.602 192.666 126.226 192.989 125.788 193.239C123.92 194.3 121.544 193.646 120.482 191.778C119.856 190.675 119.828 189.396 120.294 188.315C120.013 188.305 119.728 188.259 119.444 188.182C117.372 187.611 116.154 185.466 116.725 183.394C117.295 181.322 119.439 180.107 121.511 180.677C121.878 180.779 122.22 180.93 122.527 181.122C121.604 179.285 122.277 177.022 124.086 175.995C125.954 174.933 128.33 175.588 129.391 177.456C129.854 178.264 129.992 179.171 129.846 180.026C131.695 179.049 134.004 179.713 135.045 181.547C136.106 183.419 135.452 185.795 133.584 186.857C133.324 187.004 133.052 187.119 132.774 187.201C132.972 187.409 133.147 187.647 133.294 187.906Z" stroke="#2E1E00" stroke-width="2" stroke-miterlimit="10" stroke-linecap="round" stroke-linejoin="round"/>
<path d="M120.427 289.187C120.427 289.187 124.858 290.91 128.674 289.187" stroke="#2E1E00" stroke-width="2" stroke-miterlimit="10" stroke-linecap="round" stroke-linejoin="round"/>
<path d="M81.7659 180.88C80.8733 197.616 80.8388 213.913 80.8733 230.637C78.4488 227.441 76.0243 224.256 73.5998 221.065C64.0343 208.471 54.4688 195.876 44.9033 183.287C35.0843 170.353 25.5476 157.089 15.3429 144.495C12.6995 141.23 10.0562 137.826 7.74688 134.244C3.88266 128.244 0.196966 120.682 1.15294 113.334C2.88637 100.019 18.182 98.9712 26.6821 106.613C31.8824 111.289 35.643 117.693 39.8009 123.285C53.795 142.088 67.7833 160.885 81.7717 179.682C81.7659 180.079 81.7659 180.483 81.7659 180.88Z" fill="#FA6456"/>
<path d="M81.7659 180.88C80.8733 197.616 80.8388 213.913 80.8733 230.637C78.4488 227.441 76.0243 224.256 73.5998 221.065C64.0343 208.471 54.4688 195.876 44.9033 183.287C35.0843 170.353 25.5476 157.089 15.3429 144.495C12.6995 141.23 10.0562 137.826 7.74688 134.244C3.88266 128.244 0.196966 120.682 1.15294 113.334C2.88637 100.019 18.182 98.9712 26.6821 106.613C31.8824 111.289 35.643 117.693 39.8009 123.285C53.795 142.088 67.7833 160.885 81.7717 179.682C81.7659 180.079 81.7659 180.483 81.7659 180.88Z" stroke="#2E1E00" stroke-width="2" stroke-miterlimit="10" stroke-linecap="round" stroke-linejoin="round"/>
<path d="M294.364 241.026L290.499 412.018C290.499 421.209 282.628 428.661 272.919 428.661H271.876C262.167 428.661 254.296 421.209 254.296 412.018L249.733 297.675C249.713 297.151 248.89 297.155 248.876 297.68L245.805 412.018C245.805 421.209 237.934 428.661 228.225 428.661C218.516 428.661 210.646 421.209 210.646 412.018C210.447 406.312 210.25 400.608 210.052 394.901C209.582 381.356 209.112 367.81 208.643 354.264C208.086 338.2 207.529 322.135 206.972 306.071C206.512 292.809 205.506 279.554 205.593 266.286C205.756 241.268 205.138 218.151 206.487 194.083C206.487 185.775 207.285 177.371 207.602 169.062L209.026 131.805C209.493 119.593 209.959 107.381 210.426 95.1697C210.679 88.5343 210.933 81.8995 211.186 75.2641C211.194 75.0763 211.201 74.8886 211.208 74.7008C211.221 74.3461 211.675 74.1774 211.94 74.4279L229.736 91.2761C229.878 91.4103 230.095 91.4275 230.267 91.3314C255.292 77.2825 274.686 91.6567 277.509 93.1886C277.674 93.2779 277.879 93.2537 278.016 93.1304L295.76 77.2008C296.038 76.9508 296.497 77.1455 296.485 77.5083L293.86 192.952L294.364 241.026Z" fill="#FFDC38"/>
<path d="M294.364 241.026L290.499 412.018C290.499 421.209 282.628 428.661 272.919 428.661H271.876C262.167 428.661 254.296 421.209 254.296 412.018L249.733 297.675C249.713 297.151 248.89 297.155 248.876 297.68L245.805 412.018C245.805 421.209 237.934 428.661 228.225 428.661C218.516 428.661 210.646 421.209 210.646 412.018C210.447 406.312 210.25 400.608 210.052 394.901C209.582 381.356 209.112 367.81 208.643 354.264C208.086 338.2 207.529 322.135 206.972 306.071C206.512 292.809 205.506 279.554 205.593 266.286C205.756 241.268 205.138 218.151 206.487 194.083C206.487 185.775 207.285 177.371 207.602 169.062L209.026 131.805C209.493 119.593 209.959 107.381 210.426 95.1697C210.679 88.5343 210.933 81.8995 211.186 75.2641C211.194 75.0763 211.201 74.8886 211.208 74.7008C211.221 74.3461 211.675 74.1774 211.94 74.4279L229.736 91.2761C229.878 91.4103 230.095 91.4275 230.267 91.3314C255.292 77.2825 274.686 91.6567 277.509 93.1886C277.674 93.2779 277.879 93.2537 278.016 93.1304L295.76 77.2008C296.038 76.9508 296.497 77.1455 296.485 77.5083L293.86 192.952L294.364 241.026Z" stroke="#2E1E00" stroke-width="2" stroke-miterlimit="10" stroke-linecap="round" stroke-linejoin="round"/>
<path d="M258.009 139.244C258.009 142.169 255.504 144.54 252.415 144.54C249.326 144.54 246.822 142.169 246.822 139.244C246.822 136.32 249.326 133.949 252.415 133.949C255.504 133.949 258.009 136.32 258.009 139.244Z" fill="#2E1E00"/>
<path d="M208.694 140.468L225.5 148.892C226.153 149.219 226.083 150.125 225.387 150.358L207.798 156.272L208.694 140.468Z" fill="#2E1E00"/>
<path d="M294.132 140.468L278.201 148.454C277.214 148.949 277.319 150.318 278.372 150.672L294.132 155.97V140.468Z" fill="#2E1E00"/>
<path d="M207.54 170.688C207.54 170.688 255.121 192.3 293.359 170.688" stroke="#FEFFFA" stroke-width="2" stroke-miterlimit="10" stroke-linecap="round" stroke-linejoin="round"/>
<path d="M250.791 189.757V180.294" stroke="#FEFFFA" stroke-width="2" stroke-miterlimit="10" stroke-linecap="round" stroke-linejoin="round"/>
<path d="M258.016 200.734C259.078 202.502 258.423 204.752 256.555 205.757C254.879 206.655 252.8 206.252 251.62 204.888C251.324 205.239 250.948 205.546 250.51 205.781C248.642 206.786 246.266 206.167 245.204 204.399C244.578 203.355 244.55 202.145 245.017 201.121C244.736 201.112 244.45 201.068 244.167 200.995C242.095 200.454 240.876 198.424 241.447 196.462C242.017 194.5 244.161 193.35 246.233 193.89C246.6 193.985 246.942 194.129 247.249 194.31C246.326 192.571 246.999 190.429 248.808 189.456C250.676 188.451 253.052 189.071 254.113 190.839C254.576 191.606 254.714 192.463 254.568 193.272C256.418 192.348 258.726 192.976 259.767 194.713C260.828 196.485 260.174 198.734 258.306 199.739C258.046 199.878 257.774 199.988 257.497 200.064C257.694 200.262 257.869 200.488 258.016 200.734Z" fill="#FEFFFA"/>
<path d="M258.016 200.734C259.078 202.502 258.423 204.752 256.555 205.757C254.879 206.655 252.8 206.252 251.62 204.888C251.324 205.239 250.948 205.546 250.51 205.781C248.642 206.786 246.266 206.167 245.204 204.399C244.578 203.355 244.55 202.145 245.017 201.121C244.736 201.112 244.45 201.068 244.167 200.995C242.095 200.454 240.876 198.424 241.447 196.462C242.017 194.5 244.161 193.35 246.233 193.89C246.6 193.985 246.942 194.129 247.249 194.31C246.326 192.571 246.999 190.429 248.808 189.456C250.676 188.451 253.052 189.071 254.113 190.839C254.576 191.606 254.714 192.463 254.568 193.272C256.418 192.348 258.726 192.976 259.767 194.713C260.828 196.485 260.174 198.734 258.306 199.739C258.046 199.878 257.774 199.988 257.497 200.064C257.694 200.262 257.869 200.488 258.016 200.734Z" stroke="#2E1E00" stroke-width="2" stroke-miterlimit="10" stroke-linecap="round" stroke-linejoin="round"/>
<path d="M245.149 296.618C245.149 296.618 249.58 298.249 253.396 296.618" stroke="#2E1E00" stroke-width="2" stroke-miterlimit="10" stroke-linecap="round" stroke-linejoin="round"/>
<path d="M413.705 229.978L409.839 410.593C409.839 420.302 401.969 428.173 392.26 428.173H391.216C381.507 428.173 373.636 420.302 373.636 410.593L369.074 289.816C369.053 289.262 368.23 289.267 368.216 289.821L365.145 410.593C365.145 420.302 357.274 428.173 347.565 428.173C337.856 428.173 329.986 420.302 329.986 410.593C329.788 404.567 329.59 398.54 329.392 392.513C328.923 378.205 328.453 363.898 327.983 349.589C327.427 332.621 326.87 315.652 326.313 298.683C325.853 284.676 324.847 270.675 324.933 256.659C325.096 230.233 324.478 205.816 325.827 180.392C325.827 171.617 326.625 162.741 326.942 153.963C327.417 140.845 327.891 127.728 328.366 114.609C328.833 101.71 329.299 88.8113 329.766 75.912C330.02 68.9034 330.273 61.8948 330.527 54.8862C330.534 54.6875 330.541 54.4895 330.548 54.2913C330.562 53.9164 331.015 53.7385 331.28 54.0034L349.077 71.7995C349.218 71.9412 349.435 71.9596 349.608 71.8577C374.632 57.0188 394.026 72.2015 396.849 73.8192C397.014 73.9136 397.219 73.8883 397.357 73.7576L415.101 56.9318C415.379 56.668 415.837 56.8736 415.825 57.2566L413.201 179.198L413.705 229.978Z" fill="#73B7EA"/>
<path d="M413.705 229.978L409.839 410.593C409.839 420.302 401.969 428.173 392.26 428.173H391.216C381.507 428.173 373.636 420.302 373.636 410.593L369.074 289.816C369.053 289.262 368.23 289.267 368.216 289.821L365.145 410.593C365.145 420.302 357.274 428.173 347.565 428.173C337.856 428.173 329.986 420.302 329.986 410.593C329.788 404.567 329.59 398.54 329.392 392.513C328.923 378.205 328.453 363.898 327.983 349.589C327.427 332.621 326.87 315.652 326.313 298.683C325.853 284.676 324.847 270.675 324.933 256.659C325.096 230.233 324.478 205.816 325.827 180.392C325.827 171.617 326.625 162.741 326.942 153.963C327.417 140.845 327.891 127.728 328.366 114.609C328.833 101.71 329.299 88.8113 329.766 75.912C330.02 68.9034 330.273 61.8948 330.527 54.8862C330.534 54.6875 330.541 54.4895 330.548 54.2913C330.562 53.9164 331.015 53.7385 331.28 54.0034L349.077 71.7995C349.218 71.9412 349.435 71.9596 349.608 71.8577C374.632 57.0188 394.026 72.2015 396.849 73.8192C397.014 73.9136 397.219 73.8883 397.357 73.7576L415.101 56.9318C415.379 56.668 415.837 56.8736 415.825 57.2566L413.201 179.198L413.705 229.978Z" stroke="#2E1E00" stroke-width="2" stroke-miterlimit="10" stroke-linecap="round" stroke-linejoin="round"/>
<path d="M356.479 124.852C356.479 127.941 353.974 130.445 350.885 130.445C347.796 130.445 345.292 127.941 345.292 124.852C345.292 121.763 347.796 119.258 350.885 119.258C353.974 119.258 356.479 121.762 356.479 124.852Z" fill="#2E1E00"/>
<path d="M328.035 131.057L344.84 138.35C345.493 138.634 345.423 139.418 344.727 139.62L327.139 144.74L328.035 131.057Z" fill="#2E1E00"/>
<path d="M413.472 131.057L385.121 139.492C383.364 140.015 383.551 141.461 385.425 141.835L413.472 147.432V131.057Z" fill="#2E1E00"/>
<path d="M326.88 155.682C326.88 155.682 374.462 178.511 412.7 155.682" stroke="#FEFFFA" stroke-width="2" stroke-miterlimit="10" stroke-linecap="round" stroke-linejoin="round"/>
<path d="M370.131 175.823V165.828" stroke="#FEFFFA" stroke-width="2" stroke-miterlimit="10" stroke-linecap="round" stroke-linejoin="round"/>
<path d="M377.357 187.419C378.418 189.287 377.764 191.662 375.896 192.724C374.22 193.673 372.14 193.248 370.961 191.807C370.665 192.177 370.289 192.501 369.85 192.75C367.982 193.812 365.606 193.157 364.545 191.289C363.919 190.187 363.891 188.908 364.357 187.827C364.076 187.818 363.79 187.772 363.507 187.693C361.435 187.123 360.216 184.978 360.787 182.906C361.358 180.834 363.501 179.619 365.573 180.189C365.941 180.291 366.283 180.442 366.589 180.634C365.666 178.797 366.34 176.534 368.148 175.506C370.016 174.445 372.392 175.099 373.454 176.967C373.916 177.777 374.054 178.683 373.909 179.538C375.758 178.561 378.066 179.225 379.108 181.06C380.169 182.931 379.514 185.307 377.646 186.368C377.387 186.516 377.114 186.631 376.837 186.713C377.034 186.92 377.209 187.159 377.357 187.419Z" fill="#FEFFFA"/>
<path d="M377.357 187.419C378.418 189.287 377.764 191.662 375.896 192.724C374.22 193.673 372.14 193.248 370.961 191.807C370.665 192.177 370.289 192.501 369.85 192.75C367.982 193.812 365.606 193.157 364.545 191.289C363.919 190.187 363.891 188.908 364.357 187.827C364.076 187.818 363.79 187.772 363.507 187.693C361.435 187.123 360.216 184.978 360.787 182.906C361.358 180.834 363.501 179.619 365.573 180.189C365.941 180.291 366.283 180.442 366.589 180.634C365.666 178.797 366.34 176.534 368.148 175.506C370.016 174.445 372.392 175.099 373.454 176.967C373.916 177.777 374.054 178.683 373.909 179.538C375.758 178.561 378.066 179.225 379.108 181.06C380.169 182.931 379.514 185.307 377.646 186.368C377.387 186.516 377.114 186.631 376.837 186.713C377.034 186.92 377.209 187.159 377.357 187.419Z" stroke="#2E1E00" stroke-width="2" stroke-miterlimit="10" stroke-linecap="round" stroke-linejoin="round"/>
<path d="M364.49 288.699C364.49 288.699 368.921 290.421 372.736 288.699" stroke="#2E1E00" stroke-width="2" stroke-miterlimit="10" stroke-linecap="round" stroke-linejoin="round"/>
<path d="M536.844 243.769L532.979 409.317C532.979 418.216 525.108 425.429 515.399 425.429H514.356C504.647 425.429 496.776 418.216 496.776 409.317L492.213 298.614C492.192 298.106 491.37 298.111 491.356 298.619L488.284 409.317C488.284 418.216 480.414 425.429 470.705 425.429C460.997 425.429 453.126 418.216 453.126 409.317C452.927 403.792 452.73 398.268 452.532 392.745C452.063 379.631 451.593 366.516 451.124 353.402C450.567 337.849 450.01 322.296 449.453 306.743C448.993 293.903 447.987 281.071 448.074 268.225C448.237 244.002 447.619 221.623 448.968 198.32C448.968 190.277 449.766 182.141 450.083 174.096C450.559 162.072 451.032 150.049 451.508 138.026C451.975 126.203 452.441 114.38 452.908 102.557C453.161 96.1326 453.415 89.7085 453.668 83.2845C453.676 83.1025 453.682 82.9211 453.69 82.7391C453.703 82.3959 454.157 82.2323 454.422 82.4753L472.217 98.7874C472.359 98.917 472.576 98.9337 472.748 98.8404C497.773 85.239 517.167 99.1554 519.99 100.638C520.155 100.725 520.36 100.702 520.497 100.582L538.242 85.1596C538.52 84.9177 538.978 85.106 538.966 85.4573L536.342 197.226L536.844 243.769Z" fill="#ADF0E7"/>
<path d="M536.844 243.769L532.979 409.317C532.979 418.216 525.108 425.429 515.399 425.429H514.356C504.647 425.429 496.776 418.216 496.776 409.317L492.213 298.614C492.192 298.106 491.37 298.111 491.356 298.619L488.284 409.317C488.284 418.216 480.414 425.429 470.705 425.429C460.997 425.429 453.126 418.216 453.126 409.317C452.927 403.792 452.73 398.268 452.532 392.745C452.063 379.631 451.593 366.516 451.124 353.402C450.567 337.849 450.01 322.296 449.453 306.743C448.993 293.903 447.987 281.071 448.074 268.225C448.237 244.002 447.619 221.623 448.968 198.32C448.968 190.277 449.766 182.141 450.083 174.096C450.559 162.072 451.032 150.049 451.508 138.026C451.975 126.203 452.441 114.38 452.908 102.557C453.161 96.1326 453.415 89.7085 453.668 83.2845C453.676 83.1025 453.682 82.9211 453.69 82.7391C453.703 82.3959 454.157 82.2323 454.422 82.4753L472.217 98.7874C472.359 98.917 472.576 98.9337 472.748 98.8404C497.773 85.239 517.167 99.1554 519.99 100.638C520.155 100.725 520.36 100.702 520.497 100.582L538.242 85.1596C538.52 84.9177 538.978 85.106 538.966 85.4573L536.342 197.226L536.844 243.769Z" stroke="#2E1E00" stroke-width="2" stroke-miterlimit="10" stroke-linecap="round" stroke-linejoin="round"/>
<path d="M451.174 146.412L467.98 154.568C468.633 154.885 468.563 155.761 467.868 155.988L450.279 161.713L451.174 146.412Z" fill="#2E1E00"/>
<path d="M536.611 146.412L520.68 154.144C519.693 154.623 519.799 155.948 520.851 156.291L536.611 161.421V146.412Z" fill="#2E1E00"/>
<path d="M450.02 175.671C450.02 175.671 497.601 196.595 535.839 175.671" stroke="#FEFFFA" stroke-width="2" stroke-miterlimit="10" stroke-linecap="round" stroke-linejoin="round"/>
<path d="M493.271 194.131V184.97" stroke="#FEFFFA" stroke-width="2" stroke-miterlimit="10" stroke-linecap="round" stroke-linejoin="round"/>
<path d="M500.497 204.759C501.558 206.471 500.903 208.649 499.036 209.621C497.36 210.492 495.28 210.102 494.101 208.781C493.805 209.12 493.429 209.417 492.991 209.645C491.122 210.618 488.746 210.018 487.685 208.307C487.058 207.296 487.03 206.125 487.497 205.133C487.216 205.124 486.93 205.082 486.647 205.01C484.575 204.487 483.356 202.521 483.927 200.622C484.497 198.723 486.641 197.61 488.713 198.132C489.081 198.225 489.422 198.364 489.729 198.54C488.806 196.856 489.48 194.783 491.288 193.84C493.156 192.868 495.533 193.467 496.594 195.179C497.056 195.921 497.195 196.752 497.049 197.535C498.898 196.639 501.206 197.249 502.247 198.93C503.309 200.646 502.655 202.823 500.786 203.796C500.527 203.931 500.254 204.036 499.977 204.111C500.174 204.303 500.349 204.521 500.497 204.759Z" fill="#FEFFFA"/>
<path d="M500.497 204.759C501.558 206.471 500.903 208.649 499.036 209.621C497.36 210.492 495.28 210.102 494.101 208.781C493.805 209.12 493.429 209.417 492.991 209.645C491.122 210.618 488.746 210.018 487.685 208.307C487.058 207.296 487.03 206.125 487.497 205.133C487.216 205.124 486.93 205.082 486.647 205.01C484.575 204.487 483.356 202.521 483.927 200.622C484.497 198.723 486.641 197.61 488.713 198.132C489.081 198.225 489.422 198.364 489.729 198.54C488.806 196.856 489.48 194.783 491.288 193.84C493.156 192.868 495.533 193.467 496.594 195.179C497.056 195.921 497.195 196.752 497.049 197.535C498.898 196.639 501.206 197.249 502.247 198.93C503.309 200.646 502.655 202.823 500.786 203.796C500.527 203.931 500.254 204.036 499.977 204.111C500.174 204.303 500.349 204.521 500.497 204.759Z" stroke="#2E1E00" stroke-width="2" stroke-miterlimit="10" stroke-linecap="round" stroke-linejoin="round"/>
<path d="M487.629 297.591C487.629 297.591 492.06 299.17 495.876 297.591" stroke="#2E1E00" stroke-width="2" stroke-miterlimit="10" stroke-linecap="round" stroke-linejoin="round"/>
<path d="M565.426 155.682C565.426 155.682 613.008 178.511 651.246 155.682" stroke="#FEFFFA" stroke-width="2" stroke-miterlimit="10" stroke-linecap="round" stroke-linejoin="round"/>
<path d="M608.678 175.823V165.828" stroke="#FEFFFA" stroke-width="2" stroke-miterlimit="10" stroke-linecap="round" stroke-linejoin="round"/>
<path d="M615.903 187.419C616.965 189.287 616.31 191.662 614.442 192.724C612.766 193.673 610.687 193.248 609.507 191.807C609.211 192.177 608.835 192.501 608.397 192.75C606.529 193.812 604.153 193.157 603.092 191.289C602.466 190.187 602.437 188.908 602.904 187.827C602.623 187.818 602.338 187.772 602.054 187.693C599.981 187.123 598.763 184.978 599.333 182.906C599.904 180.834 602.048 179.619 604.12 180.189C604.487 180.291 604.829 180.442 605.136 180.634C604.213 178.797 604.887 176.534 606.695 175.506C608.563 174.445 610.939 175.099 612 176.967C612.463 177.777 612.601 178.683 612.455 179.538C614.305 178.561 616.613 179.225 617.655 181.06C618.715 182.931 618.061 185.307 616.193 186.368C615.933 186.516 615.661 186.631 615.384 186.713C615.58 186.92 615.756 187.159 615.903 187.419Z" fill="#FEFFFA"/>
<path d="M615.903 187.419C616.965 189.287 616.31 191.662 614.442 192.724C612.766 193.673 610.687 193.248 609.507 191.807C609.211 192.177 608.835 192.501 608.397 192.75C606.529 193.812 604.153 193.157 603.092 191.289C602.466 190.187 602.437 188.908 602.904 187.827C602.623 187.818 602.338 187.772 602.054 187.693C599.981 187.123 598.763 184.978 599.333 182.906C599.904 180.834 602.048 179.619 604.12 180.189C604.487 180.291 604.829 180.442 605.136 180.634C604.213 178.797 604.887 176.534 606.695 175.506C608.563 174.445 610.939 175.099 612 176.967C612.463 177.777 612.601 178.683 612.455 179.538C614.305 178.561 616.613 179.225 617.655 181.06C618.715 182.931 618.061 185.307 616.193 186.368C615.933 186.516 615.661 186.631 615.384 186.713C615.58 186.92 615.756 187.159 615.903 187.419Z" stroke="#2E1E00" stroke-width="2" stroke-miterlimit="10" stroke-linecap="round" stroke-linejoin="round"/>
<path d="M603.036 288.699C603.036 288.699 607.467 290.421 611.282 288.699" stroke="#2E1E00" stroke-width="2" stroke-miterlimit="10" stroke-linecap="round" stroke-linejoin="round"/>
<path d="M681.774 259.54C666.293 252.71 658.34 239.316 652.661 229.808L648.384 410.596C648.384 420.3 640.517 428.173 630.807 428.173H629.759C620.055 428.173 612.183 420.3 612.183 410.596L607.621 289.815C607.598 289.262 606.775 289.268 606.764 289.821L603.688 410.596C603.688 420.301 595.822 428.173 586.112 428.173C576.402 428.173 568.53 420.301 568.53 410.596C568.334 404.567 568.133 398.543 567.937 392.514C567.47 378.209 566.998 363.898 566.527 349.593C565.974 332.622 565.415 315.656 564.857 298.685C564.402 284.679 563.394 270.679 563.48 256.662C563.641 230.234 563.025 205.816 564.373 180.392C564.373 171.621 565.173 162.741 565.489 153.964C565.962 140.845 566.44 127.732 566.912 114.613C567.379 101.714 567.845 88.8136 568.312 75.9137C568.565 68.9051 568.819 61.8966 569.072 54.888C569.078 54.6922 569.089 54.4906 569.095 54.2948C569.107 53.9205 569.562 53.742 569.826 54.0069L587.621 71.8019C587.765 71.9458 587.984 71.9631 588.151 71.8595C613.179 57.0188 632.57 72.205 635.397 73.8232C635.558 73.9154 635.766 73.8923 635.904 73.7599L653.647 56.9324C653.924 56.6733 654.384 56.8748 654.373 57.2607L651.747 179.199L687.982 231.507C687.982 231.507 723.98 234.715 729.359 250.028C734.739 265.334 712.544 273.118 681.774 259.54Z" fill="#FFDC38"/>
<path d="M681.774 259.54C666.293 252.71 658.34 239.316 652.661 229.808L648.384 410.596C648.384 420.3 640.517 428.173 630.807 428.173H629.759C620.055 428.173 612.183 420.3 612.183 410.596L607.621 289.815C607.598 289.262 606.775 289.268 606.764 289.821L603.688 410.596C603.688 420.301 595.822 428.173 586.112 428.173C576.402 428.173 568.53 420.301 568.53 410.596C568.334 404.567 568.133 398.543 567.937 392.514C567.47 378.209 566.998 363.898 566.527 349.593C565.974 332.622 565.415 315.656 564.857 298.685C564.402 284.679 563.394 270.679 563.48 256.662C563.641 230.234 563.025 205.816 564.373 180.392C564.373 171.621 565.173 162.741 565.489 153.964C565.962 140.845 566.44 127.732 566.912 114.613C567.379 101.714 567.845 88.8136 568.312 75.9137C568.565 68.9051 568.819 61.8966 569.072 54.888C569.078 54.6922 569.089 54.4906 569.095 54.2948C569.107 53.9205 569.562 53.742 569.826 54.0069L587.621 71.8019C587.765 71.9458 587.984 71.9631 588.151 71.8595C613.179 57.0188 632.57 72.205 635.397 73.8232C635.558 73.9154 635.766 73.8923 635.904 73.7599L653.647 56.9324C653.924 56.6733 654.384 56.8748 654.373 57.2607L651.747 179.199L687.982 231.507C687.982 231.507 723.98 234.715 729.359 250.028C734.739 265.334 712.544 273.118 681.774 259.54Z" stroke="#2E1E00" stroke-width="2" stroke-miterlimit="10" stroke-linecap="round" stroke-linejoin="round"/>
<path d="M121.409 115.309C119.457 117.663 119.808 121.134 122.192 123.061C124.577 124.987 128.091 124.641 130.042 122.287C131.993 119.932 131.642 116.462 129.258 114.535C126.874 112.608 123.36 112.955 121.409 115.309Z" fill="#2E1E00"/>
<path d="M78.2778 86.9397L177.133 82.2727L178.984 121.481L80.1288 126.148L78.2778 86.9397Z" fill="url(#paint0_linear_2521:23973)"/>
<path d="M177.35 118.772L171.173 118.951L160.16 119.265L142.799 119.771L140.372 119.843L140.25 119.846C140.169 119.849 140.089 119.851 140.008 119.851C139.861 119.851 139.715 119.846 139.566 119.84C136.343 119.681 133.38 117.791 132.157 114.819C131.597 113.45 130.603 112.235 129.205 111.374C128.028 110.646 126.681 110.289 125.339 110.289C123.567 110.289 121.802 110.912 120.442 112.127C120.433 112.137 120.424 112.138 120.415 112.148C120.081 112.449 119.786 112.774 119.525 113.11C118.981 113.797 118.594 114.551 118.336 115.335C117.309 118.507 114.224 120.596 110.848 120.693L100.177 121.006L85.1025 121.442L81.0736 121.558L80.9008 116.65L79.9126 88.0806L86.5802 87.9965L99.0799 87.841L118.687 87.5951L119.393 87.5853L138.49 87.348L139.018 87.3377L158.827 87.0946L169.745 86.9564L177.213 86.8625L177.35 118.772L177.213 86.8625L169.745 86.9564L158.827 87.0946L139.018 87.3377L138.49 87.348L119.393 87.5853L118.687 87.5951L99.0799 87.841L86.5802 87.9965L79.9126 88.0806L80.9008 116.65L81.0736 121.558L85.1025 121.442L100.177 121.006L110.848 120.693C114.224 120.596 117.309 118.507 118.336 115.335C118.594 114.551 118.981 113.797 119.525 113.11C119.786 112.774 120.081 112.449 120.415 112.148C120.424 112.138 120.433 112.137 120.442 112.127C121.803 110.912 123.567 110.289 125.339 110.289C126.681 110.289 128.028 110.647 129.205 111.374C130.603 112.235 131.597 113.45 132.157 114.819C133.38 117.791 136.343 119.681 139.566 119.84C139.715 119.846 139.861 119.851 140.008 119.851C140.089 119.851 140.169 119.849 140.25 119.846L140.372 119.843L142.799 119.771L160.16 119.265L171.173 118.951L177.35 118.772Z" fill="url(#paint1_linear_2521:23973)"/>
<path d="M87.4692 96.7321L101.702 96.6861" stroke="#FEFFFA" stroke-width="2" stroke-miterlimit="10" stroke-linecap="round" stroke-linejoin="round"/>
<path d="M177.35 118.772L171.173 118.951L160.16 119.265L142.799 119.771L140.372 119.843L140.25 119.846C140.022 119.855 139.796 119.849 139.566 119.84C136.343 119.681 133.38 117.791 132.157 114.819C131.597 113.45 130.603 112.235 129.205 111.374C126.474 109.687 122.834 109.99 120.442 112.127C120.433 112.137 120.424 112.138 120.415 112.148C120.081 112.449 119.786 112.774 119.525 113.11C118.981 113.797 118.594 114.551 118.336 115.335C117.309 118.507 114.224 120.596 110.848 120.693L100.177 121.006L85.1025 121.442L81.0736 121.558L80.9008 116.65L79.9126 88.0806L86.5802 87.9965L99.0799 87.841L118.687 87.5951L119.393 87.5853L138.49 87.348L139.018 87.3377L158.827 87.0946L169.745 86.9564L177.213 86.8625L177.35 118.772Z" stroke="#2E1E00" stroke-width="2" stroke-miterlimit="10" stroke-linecap="round" stroke-linejoin="round"/>
<path d="M83.9709 124.307L102.763 133.826L82.8174 139.483L83.9709 124.307Z" fill="#2E1E00"/>
<path d="M83.9709 124.307L102.763 133.826L82.8174 139.483L83.9709 124.307Z" stroke="#2E1E00" stroke-width="2" stroke-miterlimit="10" stroke-linecap="round" stroke-linejoin="round"/>
<path d="M170.108 125.223L150.461 132.824L169.745 140.438L170.108 125.223Z" fill="#2E1E00"/>
<path d="M170.108 125.223L150.461 132.824L169.745 140.438L170.108 125.223Z" stroke="#2E1E00" stroke-width="2" stroke-miterlimit="10" stroke-linecap="round" stroke-linejoin="round"/>
<path d="M131.304 126.327C131.304 126.327 137.041 125.185 136.366 119.07" stroke="#2E1E00" stroke-width="2" stroke-miterlimit="10" stroke-linecap="round" stroke-linejoin="round"/>
<path d="M206.411 108.135L297.188 105.074L298.419 141.567L207.641 144.629L206.411 108.135Z" fill="url(#paint2_linear_2521:23973)"/>
<path d="M297.29 140.196L286.405 140.364L269.245 140.639L266.846 140.679L266.726 140.681C266.678 140.682 266.63 140.682 266.583 140.682C266.405 140.682 266.229 140.675 266.049 140.665C262.867 140.463 259.965 138.533 258.797 135.542C258.262 134.166 257.296 132.937 255.927 132.057C254.745 131.295 253.382 130.92 252.023 130.92C250.305 130.92 248.593 131.519 247.258 132.694C247.25 132.704 247.241 132.705 247.232 132.715C246.898 133.011 246.602 133.333 246.34 133.665C245.793 134.345 245.4 135.095 245.135 135.876C244.077 139.035 241.001 141.084 237.664 141.136L227.117 141.307L212.218 141.544L208.235 141.605L208.131 136.694L207.539 108.098L214.128 108.102L226.48 108.113L245.855 108.128L246.553 108.127L265.424 108.144L265.946 108.141L285.52 108.161L296.31 108.168L297.29 140.196L296.31 108.168L285.521 108.161L265.946 108.141L265.425 108.144L246.553 108.127L245.855 108.128L226.48 108.113L214.129 108.102L207.54 108.098L208.131 136.694L208.236 141.605L212.218 141.544L227.118 141.307L237.665 141.136C241.001 141.084 244.078 139.035 245.135 135.876C245.401 135.095 245.794 134.345 246.34 133.665C246.602 133.333 246.898 133.011 247.233 132.715C247.241 132.705 247.251 132.704 247.259 132.694C248.594 131.519 250.306 130.92 252.023 130.92C253.382 130.92 254.745 131.295 255.928 132.057C257.297 132.937 258.263 134.166 258.797 135.542C259.966 138.533 262.868 140.463 266.05 140.665C266.23 140.675 266.406 140.682 266.583 140.682C266.631 140.682 266.678 140.682 266.726 140.681L266.846 140.679L269.246 140.639L286.405 140.364L297.29 140.196Z" fill="url(#paint3_linear_2521:23973)"/>
<path d="M214.89 116.854L228.953 116.997" stroke="#FEFFFA" stroke-width="2" stroke-miterlimit="10" stroke-linecap="round" stroke-linejoin="round"/>
<path d="M297.291 140.196L286.405 140.364L269.245 140.639L266.846 140.679L266.726 140.681C266.5 140.686 266.278 140.678 266.05 140.665C262.868 140.463 259.966 138.533 258.798 135.542C258.263 134.166 257.297 132.937 255.928 132.057C253.252 130.334 249.651 130.589 247.259 132.694C247.251 132.704 247.242 132.705 247.233 132.715C246.899 133.011 246.603 133.333 246.341 133.665C245.794 134.345 245.401 135.095 245.136 135.876C244.078 139.035 241.001 141.084 237.665 141.136L227.118 141.307L212.219 141.544L208.236 141.605L208.131 136.694L207.54 108.098L214.129 108.102L226.48 108.113L245.856 108.128L246.554 108.127L265.425 108.144L265.947 108.141L285.521 108.161L296.31 108.168L297.401 108.098L297.291 140.196Z" stroke="#2E1E00" stroke-width="2" stroke-miterlimit="10" stroke-linecap="round" stroke-linejoin="round"/>
<path d="M324.28 93.9004L422.14 90.6L423.374 127.172L325.514 130.472L324.28 93.9004Z" fill="url(#paint4_linear_2521:23973)"/>
<path d="M313.813 102.756L327.877 102.9" stroke="#FEFFFA" stroke-width="2" stroke-miterlimit="10" stroke-linecap="round" stroke-linejoin="round"/>
<path d="M325.404 94.0155L344.779 94.0305L345.476 94.0299L364.348 94.0466L364.87 94.0432L384.445 94.0639L395.234 94.0708L422.25 93.8624L422.141 125.961L396.214 126.099L385.329 126.266L368.168 126.541L365.769 126.582L365.649 126.583C365.424 126.588 365.201 126.58 364.973 126.567C361.791 126.366 358.889 124.436 357.721 121.445C357.186 120.068 356.221 118.839 354.851 117.959C352.175 116.236 348.574 116.491 346.182 118.597C346.174 118.607 346.165 118.607 346.157 118.618C345.822 118.914 345.526 119.235 345.263 119.568C344.717 120.248 344.324 120.998 344.059 121.779C343.001 124.938 339.925 126.987 336.589 127.039L326.041 127.21L325.404 94.0155Z" stroke="#2E1E00" stroke-width="2" stroke-miterlimit="10" stroke-linecap="round" stroke-linejoin="round"/>
<path d="M258.652 146.41C258.652 146.41 264.69 146.22 264.694 140.468" stroke="#2E1E00" stroke-width="2" stroke-miterlimit="10" stroke-linecap="round" stroke-linejoin="round"/>
<path d="M358.259 134.453C358.259 134.453 365.133 134.349 365.769 126.582" stroke="#2E1E00" stroke-width="2" stroke-miterlimit="10" stroke-linecap="round" stroke-linejoin="round"/>
<path d="M444.591 108.883L541.298 106.64L542.134 142.704L445.428 144.946L444.591 108.883Z" fill="url(#paint5_linear_2521:23973)"/>
<path d="M541.35 142.245L530.352 142.298L513.015 142.393L510.59 142.409L510.469 142.408C510.441 142.408 510.412 142.409 510.384 142.409C510.184 142.409 509.987 142.398 509.787 142.386C506.575 142.148 503.664 140.167 502.515 137.134C501.99 135.738 501.028 134.486 499.654 133.582C498.444 132.786 497.042 132.392 495.642 132.392C493.933 132.392 492.23 132.979 490.889 134.134C490.881 134.144 490.871 134.144 490.863 134.155C490.522 134.451 490.219 134.772 489.951 135.105C489.391 135.786 488.986 136.539 488.711 137.325C487.608 140.505 484.479 142.542 481.109 142.56L470.452 142.62L455.398 142.701L445.376 142.723L445.392 137.07L445.896 108.864L457.685 108.939L470.162 109.081L489.733 109.303L490.438 109.31L509.502 109.527L510.029 109.529L529.802 109.759L540.701 109.88L541.35 142.245L540.701 109.88L529.801 109.759L510.028 109.529L509.501 109.527L490.438 109.31L489.732 109.303L470.161 109.081L457.684 108.939L445.895 108.864L445.392 137.07L445.375 142.723L455.398 142.701L470.451 142.62L481.108 142.56C484.479 142.542 487.608 140.505 488.711 137.325C488.986 136.539 489.391 135.786 489.95 135.105C490.219 134.772 490.521 134.451 490.862 134.155C490.871 134.144 490.88 134.144 490.889 134.134C492.229 132.979 493.933 132.392 495.641 132.392C497.041 132.392 498.444 132.786 499.653 133.582C501.027 134.486 501.989 135.738 502.515 137.134C503.663 140.167 506.574 142.148 509.786 142.386C509.987 142.398 510.184 142.409 510.383 142.409C510.412 142.409 510.441 142.409 510.469 142.408L510.59 142.409L513.014 142.393L530.351 142.298L541.35 142.245Z" fill="url(#paint6_linear_2521:23973)"/>
<path d="M458.36 117.788L472.565 118.083" stroke="#FEFFFA" stroke-width="2" stroke-miterlimit="10" stroke-linecap="round" stroke-linejoin="round"/>
<path d="M541.35 142.245L530.352 142.298L513.015 142.393L510.59 142.409L510.469 142.408C510.241 142.412 510.016 142.401 509.786 142.386C506.574 142.148 503.663 140.167 502.515 137.134C501.989 135.738 501.027 134.486 499.653 133.582C496.968 131.813 493.328 132.032 490.889 134.134C490.88 134.144 490.871 134.144 490.862 134.155C490.521 134.451 490.219 134.772 489.95 135.105C489.391 135.786 488.986 136.539 488.711 137.325C487.608 140.505 484.478 142.542 481.108 142.56L470.451 142.62L455.398 142.701L445.375 142.723V138.005L445.895 108.864L457.684 108.939L470.161 109.081L489.732 109.303L490.438 109.31L509.501 109.527L510.028 109.529L529.801 109.759L540.701 109.88L541.802 109.821L541.35 142.245Z" stroke="#2E1E00" stroke-width="2" stroke-miterlimit="10" stroke-linecap="round" stroke-linejoin="round"/>
<path d="M500.866 140.046C500.866 143.136 498.362 145.64 495.273 145.64C492.184 145.64 489.679 143.136 489.679 140.046C489.679 136.957 492.184 134.453 495.273 134.453C498.362 134.453 500.866 136.957 500.866 140.046Z" fill="#2E1E00"/>
<path d="M499.375 150.228C499.375 150.228 507.657 149.573 507.669 141.96" stroke="#2E1E00" stroke-width="2" stroke-miterlimit="10" stroke-linecap="round" stroke-linejoin="round"/>
<path d="M592.192 137.842C592.192 137.842 600.474 137.187 600.485 129.574" stroke="#2E1E00" stroke-width="2" stroke-miterlimit="10" stroke-linecap="round" stroke-linejoin="round"/>
<path d="M559.947 98.1263L657.807 94.8259L659.04 131.397L561.181 134.698L559.947 98.1263Z" fill="url(#paint7_linear_2521:23973)"/>
<path d="M632.153 106.838L646.217 106.982" stroke="#FEFFFA" stroke-width="2" stroke-miterlimit="10" stroke-linecap="round" stroke-linejoin="round"/>
<path d="M561.071 98.241L580.447 98.256L581.144 98.2554L600.016 98.2721L600.538 98.2686L620.112 98.2894L630.901 98.2963L657.917 98.0878L657.808 130.187L631.881 130.324L620.996 130.492L603.836 130.767L601.437 130.808L601.317 130.809C601.091 130.814 600.868 130.806 600.641 130.793C597.458 130.592 594.556 128.661 593.389 125.671C592.853 124.294 591.888 123.065 590.518 122.185C587.842 120.462 584.242 120.717 581.85 122.822C581.841 122.832 581.832 122.833 581.823 122.843C581.489 123.14 581.193 123.461 580.93 123.793C580.384 124.473 579.991 125.223 579.726 126.004C578.668 129.163 575.592 131.212 572.256 131.264L561.708 131.435L561.071 98.241Z" stroke="#2E1E00" stroke-width="2" stroke-miterlimit="10" stroke-linecap="round" stroke-linejoin="round"/>
<path d="M592.192 128.115C592.192 131.204 589.688 133.708 586.599 133.708C583.509 133.708 581.005 131.204 581.005 128.115C581.005 125.026 583.509 122.521 586.599 122.521C589.688 122.521 592.192 125.026 592.192 128.115Z" fill="#2E1E00"/>
<path d="M566.322 135.871L583.128 143.972C583.78 144.287 583.711 145.157 583.015 145.382L565.426 151.069L566.322 135.871Z" fill="#2E1E00"/>
<path d="M652.66 137.573L624.309 146.008C622.553 146.531 622.74 147.978 624.613 148.351L652.66 153.948V137.573Z" fill="#2E1E00"/>
<path d="M84.5407 189.918C79.6934 200.604 70.5316 206.892 64.0764 203.964C57.6213 201.035 56.3181 190 61.1647 179.315C66.012 168.629 75.1744 162.34 81.629 165.269C88.0841 168.196 89.3879 179.232 84.5407 189.918Z" fill="#FFDC38"/>
<path d="M64.0759 203.97C70.5311 206.898 79.6934 200.609 84.5404 189.923C89.3875 179.238 88.0838 168.202 81.6286 165.274C75.1734 162.346 66.0111 168.634 61.1641 179.32C56.317 190.005 57.6207 201.041 64.0759 203.97Z" stroke="#2E1E00" stroke-width="2" stroke-miterlimit="10" stroke-linecap="round" stroke-linejoin="round"/>
<path d="M209.211 201.265C204.363 211.95 195.202 218.239 188.746 215.311C182.291 212.382 180.988 201.347 185.835 190.661C190.682 179.976 199.844 173.687 206.299 176.616C212.755 179.543 214.058 190.579 209.211 201.265Z" fill="#73B7EA"/>
<path d="M188.748 215.318C195.203 218.246 204.365 211.957 209.212 201.272C214.059 190.586 212.756 179.55 206.3 176.622C199.845 173.694 190.683 179.982 185.836 190.668C180.989 201.353 182.293 212.39 188.748 215.318Z" stroke="#2E1E00" stroke-width="2" stroke-miterlimit="10" stroke-linecap="round" stroke-linejoin="round"/>
<path d="M326.891 199.447C322.044 210.133 312.882 216.421 306.427 213.493C299.971 210.565 298.668 199.529 303.515 188.844C308.362 178.158 317.524 171.87 323.979 174.798C330.435 177.725 331.738 188.761 326.891 199.447Z" fill="#ADF0E7"/>
<path d="M306.429 213.501C312.885 216.429 322.047 210.141 326.894 199.455C331.741 188.77 330.437 177.734 323.982 174.805C317.527 171.877 308.365 178.166 303.518 188.852C298.671 199.537 299.974 210.573 306.429 213.501Z" stroke="#2E1E00" stroke-width="2" stroke-miterlimit="10" stroke-linecap="round" stroke-linejoin="round"/>
<path d="M453.007 199.477C448.159 210.162 438.997 216.45 432.542 213.522C426.087 210.594 424.784 199.558 429.631 188.873C434.478 178.187 443.64 171.898 450.095 174.827C456.55 177.755 457.854 188.79 453.007 199.477Z" fill="#FFDC38"/>
<path d="M432.557 213.522C439.012 216.451 448.174 210.162 453.021 199.476C457.868 188.791 456.565 177.755 450.11 174.827C443.654 171.898 434.492 178.187 429.645 188.873C424.798 199.558 426.102 210.594 432.557 213.522Z" stroke="#2E1E00" stroke-width="2" stroke-miterlimit="10" stroke-linecap="round" stroke-linejoin="round"/>
<path d="M646.229 202.92C651.076 213.606 660.238 219.894 666.693 216.966C673.148 214.038 674.452 203.002 669.605 192.317C664.758 181.631 655.596 175.343 649.141 178.271C642.686 181.199 641.381 192.235 646.229 202.92Z" fill="#ADF0E7"/>
<path d="M649.13 178.275C642.674 181.203 641.371 192.239 646.218 202.924C651.065 213.61 660.227 219.898 666.682 216.97C673.137 214.042 674.441 203.006 669.594 192.321C664.747 181.636 655.585 175.347 649.13 178.275Z" stroke="#2E1E00" stroke-width="2" stroke-miterlimit="10" stroke-linecap="round" stroke-linejoin="round"/>
<path d="M359.736 4.23221C359.736 6.56974 357.842 8.46442 355.504 8.46442C353.167 8.46442 351.272 6.56974 351.272 4.23221C351.272 1.89525 353.167 0 355.504 0C357.842 0 359.736 1.89525 359.736 4.23221Z" fill="#FEFFFA"/>
<path d="M565.426 161.532C565.426 161.532 613.008 184.361 651.246 161.532" stroke="#FEFFFA" stroke-width="2" stroke-miterlimit="10" stroke-linecap="round" stroke-linejoin="round"/>
<path d="M608.678 181.673V171.678" stroke="#FEFFFA" stroke-width="2" stroke-miterlimit="10" stroke-linecap="round" stroke-linejoin="round"/>
<path d="M615.903 193.268C616.965 195.137 616.31 197.512 614.442 198.574C612.766 199.523 610.687 199.098 609.507 197.657C609.211 198.027 608.835 198.351 608.397 198.6C606.529 199.661 604.153 199.007 603.092 197.139C602.466 196.037 602.437 194.758 602.904 193.677C602.623 193.667 602.338 193.621 602.054 193.543C599.981 192.973 598.763 190.828 599.333 188.756C599.904 186.683 602.048 185.469 604.12 186.039C604.487 186.141 604.829 186.291 605.136 186.484C604.213 184.646 604.887 182.383 606.695 181.356C608.563 180.295 610.939 180.949 612 182.817C612.463 183.626 612.601 184.533 612.455 185.387C614.305 184.411 616.613 185.075 617.655 186.909C618.715 188.78 618.061 191.157 616.193 192.218C615.933 192.365 615.661 192.481 615.384 192.562C615.58 192.77 615.756 193.009 615.903 193.268Z" fill="#FEFFFA"/>
<path d="M615.903 193.268C616.965 195.137 616.31 197.512 614.442 198.574C612.766 199.523 610.687 199.098 609.507 197.657C609.211 198.027 608.835 198.351 608.397 198.6C606.529 199.661 604.153 199.007 603.092 197.139C602.466 196.037 602.437 194.758 602.904 193.677C602.623 193.667 602.338 193.621 602.054 193.543C599.981 192.973 598.763 190.828 599.333 188.756C599.904 186.683 602.048 185.469 604.12 186.039C604.487 186.141 604.829 186.291 605.136 186.484C604.213 184.646 604.887 182.383 606.695 181.356C608.563 180.295 610.939 180.949 612 182.817C612.463 183.626 612.601 184.533 612.455 185.387C614.305 184.411 616.613 185.075 617.655 186.909C618.715 188.78 618.061 191.157 616.193 192.218C615.933 192.365 615.661 192.481 615.384 192.562C615.58 192.77 615.756 193.009 615.903 193.268Z" stroke="#2E1E00" stroke-width="2" stroke-miterlimit="10" stroke-linecap="round" stroke-linejoin="round"/>
<path d="M603.036 288.699C603.036 288.699 607.467 290.278 611.282 288.699" stroke="#2E1E00" stroke-width="2" stroke-miterlimit="10" stroke-linecap="round" stroke-linejoin="round"/>
<defs>
<linearGradient id="paint0_linear_2521:23973" x1="82.5618" y1="106.521" x2="180.305" y2="101.906" gradientUnits="userSpaceOnUse">
<stop stop-color="#B1E8DF"/>
<stop offset="0.0758" stop-color="#C6E5B2"/>
<stop offset="0.2469" stop-color="#FBDD41"/>
<stop offset="0.2609" stop-color="#FFDC38"/>
<stop offset="0.3566" stop-color="#FDA745"/>
<stop offset="0.4555" stop-color="#FB7751"/>
<stop offset="0.5047" stop-color="#FA6456"/>
<stop offset="0.5629" stop-color="#FB7851"/>
<stop offset="0.6812" stop-color="#FDAB44"/>
<stop offset="0.7832" stop-color="#FFDC38"/>
<stop offset="1" stop-color="#ADF0E7"/>
</linearGradient>
<linearGradient id="paint1_linear_2521:23973" x1="100.402" y1="137.894" x2="156.485" y2="69.3672" gradientUnits="userSpaceOnUse">
<stop stop-color="#B1E8DF"/>
<stop offset="0.2626" stop-color="#B1E9E0"/>
<stop offset="0.2684" stop-color="#C1E6BD"/>
<stop offset="0.2812" stop-color="#E9E066"/>
<stop offset="0.2877" stop-color="#FFDC38"/>
<stop offset="0.2888" stop-color="#FFD939"/>
<stop offset="0.3031" stop-color="#FEBA41"/>
<stop offset="0.319" stop-color="#FC9F47"/>
<stop offset="0.3373" stop-color="#FC894D"/>
<stop offset="0.3587" stop-color="#FB7851"/>
<stop offset="0.3852" stop-color="#FA6D54"/>
<stop offset="0.4223" stop-color="#FA6656"/>
<stop offset="0.5252" stop-color="#FA6456"/>
<stop offset="0.7832" stop-color="#FFDC38"/>
<stop offset="1" stop-color="#ADF0E7"/>
</linearGradient>
<linearGradient id="paint2_linear_2521:23973" x1="209.774" y1="126.249" x2="299.042" y2="123.239" gradientUnits="userSpaceOnUse">
<stop stop-color="#B1E8DF"/>
<stop offset="0.0758" stop-color="#C6E5B2"/>
<stop offset="0.2469" stop-color="#FBDD41"/>
<stop offset="0.2609" stop-color="#FFDC38"/>
<stop offset="0.3566" stop-color="#FDA745"/>
<stop offset="0.4555" stop-color="#FB7751"/>
<stop offset="0.5047" stop-color="#FA6456"/>
<stop offset="0.5629" stop-color="#FB7851"/>
<stop offset="0.6812" stop-color="#FDAB44"/>
<stop offset="0.7832" stop-color="#FFDC38"/>
<stop offset="1" stop-color="#ADF0E7"/>
</linearGradient>
<linearGradient id="paint3_linear_2521:23973" x1="225.119" y1="156.358" x2="278.603" y2="92.7733" gradientUnits="userSpaceOnUse">
<stop stop-color="#B1E8DF"/>
<stop offset="0.2626" stop-color="#B1E9E0"/>
<stop offset="0.2684" stop-color="#C1E6BD"/>
<stop offset="0.2812" stop-color="#E9E066"/>
<stop offset="0.2877" stop-color="#FFDC38"/>
<stop offset="0.2888" stop-color="#FFD939"/>
<stop offset="0.3031" stop-color="#FEBA41"/>
<stop offset="0.319" stop-color="#FC9F47"/>
<stop offset="0.3373" stop-color="#FC894D"/>
<stop offset="0.3587" stop-color="#FB7851"/>
<stop offset="0.3852" stop-color="#FA6D54"/>
<stop offset="0.4223" stop-color="#FA6656"/>
<stop offset="0.5252" stop-color="#FA6456"/>
<stop offset="0.7832" stop-color="#FFDC38"/>
<stop offset="1" stop-color="#ADF0E7"/>
</linearGradient>
<linearGradient id="paint4_linear_2521:23973" x1="327.731" y1="112.092" x2="425.137" y2="108.807" gradientUnits="userSpaceOnUse">
<stop stop-color="#B1E8DF"/>
<stop offset="0.0758" stop-color="#C6E5B2"/>
<stop offset="0.2469" stop-color="#FBDD41"/>
<stop offset="0.2609" stop-color="#FFDC38"/>
<stop offset="0.3566" stop-color="#FDA745"/>
<stop offset="0.4555" stop-color="#FB7751"/>
<stop offset="0.5047" stop-color="#FA6456"/>
<stop offset="0.5629" stop-color="#FB7851"/>
<stop offset="0.6812" stop-color="#FDAB44"/>
<stop offset="0.7832" stop-color="#FFDC38"/>
<stop offset="1" stop-color="#ADF0E7"/>
</linearGradient>
<linearGradient id="paint5_linear_2521:23973" x1="447.128" y1="126.869" x2="543.343" y2="124.639" gradientUnits="userSpaceOnUse">
<stop stop-color="#B1E8DF"/>
<stop offset="0.0758" stop-color="#C6E5B2"/>
<stop offset="0.2469" stop-color="#FBDD41"/>
<stop offset="0.2609" stop-color="#FFDC38"/>
<stop offset="0.3566" stop-color="#FDA745"/>
<stop offset="0.4555" stop-color="#FB7751"/>
<stop offset="0.5047" stop-color="#FA6456"/>
<stop offset="0.5629" stop-color="#FB7851"/>
<stop offset="0.6812" stop-color="#FDAB44"/>
<stop offset="0.7832" stop-color="#FFDC38"/>
<stop offset="1" stop-color="#ADF0E7"/>
</linearGradient>
<linearGradient id="paint6_linear_2521:23973" x1="464.386" y1="159.562" x2="521.636" y2="92.9379" gradientUnits="userSpaceOnUse">
<stop stop-color="#B1E8DF"/>
<stop offset="0.2626" stop-color="#B1E9E0"/>
<stop offset="0.2684" stop-color="#C1E6BD"/>
<stop offset="0.2812" stop-color="#E9E066"/>
<stop offset="0.2877" stop-color="#FFDC38"/>
<stop offset="0.2888" stop-color="#FFD939"/>
<stop offset="0.3031" stop-color="#FEBA41"/>
<stop offset="0.319" stop-color="#FC9F47"/>
<stop offset="0.3373" stop-color="#FC894D"/>
<stop offset="0.3587" stop-color="#FB7851"/>
<stop offset="0.3852" stop-color="#FA6D54"/>
<stop offset="0.4223" stop-color="#FA6656"/>
<stop offset="0.5252" stop-color="#FA6456"/>
<stop offset="0.7832" stop-color="#FFDC38"/>
<stop offset="1" stop-color="#ADF0E7"/>
</linearGradient>
<linearGradient id="paint7_linear_2521:23973" x1="563.414" y1="116.339" x2="660.819" y2="113.054" gradientUnits="userSpaceOnUse">
<stop stop-color="#B1E8DF"/>
<stop offset="0.0758" stop-color="#C6E5B2"/>
<stop offset="0.2469" stop-color="#FBDD41"/>
<stop offset="0.2609" stop-color="#FFDC38"/>
<stop offset="0.3566" stop-color="#FDA745"/>
<stop offset="0.4555" stop-color="#FB7751"/>
<stop offset="0.5047" stop-color="#FA6456"/>
<stop offset="0.5629" stop-color="#FB7851"/>
<stop offset="0.6812" stop-color="#FDAB44"/>
<stop offset="0.7832" stop-color="#FFDC38"/>
<stop offset="1" stop-color="#ADF0E7"/>
</linearGradient>
</defs>
</svg>
