<svg width="779" height="664" viewBox="0 0 779 664" fill="none" xmlns="http://www.w3.org/2000/svg">
<path d="M301.012 160.484C301.012 160.484 307.725 162.612 310.149 156.9C312.574 151.189 305.641 151.836 305.641 151.836C305.641 151.836 307.378 146.993 303.615 145.627C299.851 144.261 297.947 149.213 297.947 149.213C297.947 149.213 291.603 144.975 289.742 150.415C287.88 155.855 294.456 156.219 294.456 156.219C294.456 156.219 292.736 162.367 296.006 162.979C299.277 163.59 301.012 160.484 301.012 160.484Z" fill="#FEFFFA"/>
<path d="M301.012 160.484C301.012 160.484 307.725 162.612 310.149 156.9C312.574 151.189 305.641 151.836 305.641 151.836C305.641 151.836 307.378 146.993 303.615 145.627C299.851 144.261 297.947 149.213 297.947 149.213C297.947 149.213 291.603 144.975 289.742 150.415C287.88 155.855 294.456 156.219 294.456 156.219C294.456 156.219 292.736 162.367 296.006 162.979C299.277 163.59 301.012 160.484 301.012 160.484Z" stroke="#2E1E00" stroke-width="2" stroke-miterlimit="10" stroke-linecap="round" stroke-linejoin="round"/>
<path d="M732.391 411.519C734.793 411.058 737.393 411.017 739.775 411.589C746.588 413.227 747.831 420.343 743.993 425.405C740.617 429.857 736.035 433.34 731.834 436.97C718.38 448.59 704.664 459.77 690.526 470.555C687.395 472.944 684.256 475.321 681.094 477.669L686.023 569.383C686.023 569.383 690.975 631.998 674.921 637.663C652.304 645.64 655.124 521.123 655.124 521.123L644.794 523.915C644.794 523.915 648.03 563.516 624.541 577.548C601.493 591.315 537.653 612.555 536.365 593.765C535.149 576.006 608.85 554.679 608.85 554.679L612.056 431.143C612.727 405.173 613.335 379.279 615.361 353.368L629.931 371.197C646.441 364.306 662.249 371.705 662.249 371.705L671.353 355.219C677.135 397.441 676.014 426.938 676.014 426.938L719.202 401.795C719.202 401.795 726.295 397.288 731.779 402.279C733.191 403.562 733.907 405.446 733.795 407.352C733.728 408.496 733.367 409.604 732.724 410.554C720.572 428.532 636.567 485.935 636.567 485.935" fill="#ADF0E7"/>
<path d="M732.391 411.519C734.793 411.058 737.393 411.017 739.775 411.589C746.588 413.227 747.831 420.343 743.993 425.405C740.617 429.857 736.035 433.34 731.834 436.97C718.38 448.59 704.664 459.77 690.526 470.555C687.395 472.944 684.256 475.321 681.094 477.669L686.023 569.384C686.023 569.384 690.975 631.998 674.921 637.663C652.304 645.64 655.124 521.123 655.124 521.123L644.794 523.915C644.794 523.915 648.03 563.516 624.541 577.548C601.493 591.315 537.653 612.555 536.365 593.765C535.149 576.006 608.85 554.679 608.85 554.679L612.056 431.143C612.727 405.173 613.335 379.279 615.361 353.368L629.931 371.197C646.441 364.306 662.249 371.705 662.249 371.705L671.353 355.219C677.135 397.441 676.014 426.938 676.014 426.938L719.202 401.795C719.202 401.795 726.295 397.288 731.779 402.279C733.191 403.562 733.907 405.446 733.795 407.352C733.728 408.496 733.367 409.604 732.724 410.554C720.572 428.532 636.567 485.935 636.567 485.935" stroke="#2E1E00" stroke-width="2" stroke-miterlimit="10" stroke-linecap="round" stroke-linejoin="round"/>
<path d="M492.821 619.023C492.821 619.023 489.457 612.789 483.71 615.222C477.963 617.655 483.426 622.036 483.426 622.036C483.426 622.036 478.783 624.322 480.548 627.941C482.313 631.561 487.154 629.313 487.154 629.313C487.154 629.313 488.775 636.813 493.926 634.183C499.076 631.553 494.577 626.69 494.577 626.69C494.577 626.69 500.12 623.449 498.185 620.72C496.249 617.99 492.821 619.023 492.821 619.023Z" fill="#FEFFFA"/>
<path d="M492.821 619.023C492.821 619.023 489.457 612.789 483.71 615.222C477.963 617.655 483.426 622.036 483.426 622.036C483.426 622.036 478.783 624.322 480.548 627.941C482.313 631.561 487.154 629.313 487.154 629.313C487.154 629.313 488.775 636.813 493.926 634.183C499.076 631.553 494.577 626.69 494.577 626.69C494.577 626.69 500.12 623.449 498.185 620.72C496.249 617.99 492.821 619.023 492.821 619.023Z" stroke="#2E1E00" stroke-width="2" stroke-miterlimit="10" stroke-linecap="round" stroke-linejoin="round"/>
<path d="M547.873 642.214C547.873 642.214 543.648 641.787 542.922 645.457C542.196 649.128 546.208 647.89 546.208 647.89C546.208 647.89 545.781 650.963 548.172 651.305C550.561 651.646 551.073 648.488 551.073 648.488C551.073 648.488 555.342 650.206 555.768 646.765C556.195 643.324 552.269 643.922 552.269 643.922C552.269 643.922 552.525 640.081 550.519 640.123C548.513 640.166 547.873 642.214 547.873 642.214Z" fill="#FEFFFA"/>
<path d="M547.873 642.214C547.873 642.214 543.648 641.787 542.922 645.457C542.196 649.128 546.208 647.89 546.208 647.89C546.208 647.89 545.781 650.963 548.172 651.305C550.561 651.646 551.073 648.488 551.073 648.488C551.073 648.488 555.342 650.206 555.768 646.765C556.195 643.324 552.269 643.922 552.269 643.922C552.269 643.922 552.525 640.081 550.519 640.123C548.513 640.166 547.873 642.214 547.873 642.214Z" stroke="#2E1E00" stroke-width="2" stroke-miterlimit="10" stroke-linecap="round" stroke-linejoin="round"/>
<path d="M496.199 580.222C496.199 580.222 489.192 579.514 487.989 585.601C486.786 591.687 493.439 589.635 493.439 589.635C493.439 589.635 492.731 594.73 496.694 595.296C500.658 595.863 501.507 590.625 501.507 590.625C501.507 590.625 508.585 593.473 509.292 587.767C510 582.061 503.489 583.052 503.489 583.052C503.489 583.052 503.913 576.682 500.587 576.753C497.261 576.824 496.199 580.222 496.199 580.222Z" fill="#FEFFFA"/>
<path d="M496.199 580.222C496.199 580.222 489.192 579.514 487.989 585.601C486.786 591.687 493.439 589.635 493.439 589.635C493.439 589.635 492.731 594.73 496.694 595.296C500.658 595.863 501.507 590.625 501.507 590.625C501.507 590.625 508.585 593.473 509.292 587.767C510 582.061 503.489 583.052 503.489 583.052C503.489 583.052 503.913 576.682 500.587 576.753C497.261 576.824 496.199 580.222 496.199 580.222Z" stroke="#2E1E00" stroke-width="2" stroke-miterlimit="10" stroke-linecap="round" stroke-linejoin="round"/>
<path d="M742.333 608.089C742.333 608.089 749.375 608.032 749.911 601.851C750.446 595.67 744.056 598.432 744.056 598.432C744.056 598.432 744.206 593.29 740.205 593.157C736.204 593.024 735.927 598.323 735.927 598.323C735.927 598.323 728.583 596.259 728.499 602.008C728.414 607.758 734.779 606.066 734.779 606.066C734.779 606.066 735.049 612.444 738.347 612.013C741.646 611.582 742.333 608.089 742.333 608.089Z" fill="#FEFFFA"/>
<path d="M742.333 608.089C742.333 608.089 749.375 608.032 749.911 601.851C750.446 595.67 744.056 598.432 744.056 598.432C744.056 598.432 744.206 593.29 740.205 593.157C736.204 593.024 735.927 598.323 735.927 598.323C735.927 598.323 728.583 596.259 728.499 602.008C728.414 607.758 734.779 606.066 734.779 606.066C734.779 606.066 735.049 612.444 738.347 612.013C741.646 611.582 742.333 608.089 742.333 608.089Z" stroke="#2E1E00" stroke-width="2" stroke-miterlimit="10" stroke-linecap="round" stroke-linejoin="round"/>
<path d="M725.755 322.069C725.755 322.069 732.797 322.012 733.333 315.831C733.868 309.65 727.478 312.412 727.478 312.412C727.478 312.412 727.628 307.269 723.627 307.137C719.625 307.004 719.349 312.302 719.349 312.302C719.349 312.302 712.004 310.238 711.92 315.988C711.836 321.737 718.201 320.045 718.201 320.045C718.201 320.045 718.47 326.423 721.769 325.992C725.069 325.561 725.755 322.069 725.755 322.069Z" fill="#FEFFFA"/>
<path d="M725.755 322.069C725.755 322.069 732.797 322.012 733.333 315.831C733.868 309.65 727.478 312.412 727.478 312.412C727.478 312.412 727.628 307.269 723.627 307.137C719.625 307.004 719.349 312.302 719.349 312.302C719.349 312.302 712.004 310.238 711.92 315.988C711.836 321.737 718.201 320.045 718.201 320.045C718.201 320.045 718.47 326.423 721.769 325.992C725.069 325.561 725.755 322.069 725.755 322.069Z" stroke="#2E1E00" stroke-width="2" stroke-miterlimit="10" stroke-linecap="round" stroke-linejoin="round"/>
<path d="M525.449 641.7C525.449 641.7 530.667 641.152 530.365 645.341C530.064 649.53 525.214 647.643 525.214 647.643C525.214 647.643 526.091 653.963 521.582 653.264C517.073 652.566 518.487 645.576 518.487 645.576C518.487 645.576 515.003 642.442 517.016 639.604C519.03 636.766 524.808 638.347 525.449 641.7Z" fill="#FEFFFA"/>
<path d="M525.449 641.7C525.449 641.7 530.667 641.152 530.365 645.341C530.064 649.53 525.214 647.643 525.214 647.643C525.214 647.643 526.091 653.963 521.582 653.264C517.073 652.566 518.487 645.576 518.487 645.576C518.487 645.576 515.003 642.442 517.016 639.604C519.03 636.766 524.808 638.347 525.449 641.7Z" stroke="#2E1E00" stroke-width="2" stroke-miterlimit="10" stroke-linecap="round" stroke-linejoin="round"/>
<path d="M578.332 644.215C579.624 645.696 579.469 647.945 577.988 649.236C576.659 650.391 574.717 650.388 573.399 649.31C573.201 649.697 572.922 650.054 572.575 650.358C571.093 651.649 568.845 651.495 567.554 650.014C566.793 649.139 566.535 647.999 566.757 646.945C566.503 646.987 566.239 646.999 565.971 646.98C564.01 646.846 562.527 645.145 562.662 643.184C562.797 641.223 564.497 639.744 566.458 639.879C566.805 639.903 567.14 639.976 567.449 640.093C566.288 638.614 566.48 636.464 567.914 635.214C569.395 633.924 571.643 634.078 572.934 635.559C573.496 636.201 573.784 636.987 573.809 637.78C575.289 636.568 577.478 636.744 578.745 638.198C580.036 639.682 579.882 641.931 578.401 643.222C578.194 643.401 577.972 643.554 577.738 643.677C577.953 643.827 578.153 644.009 578.332 644.215Z" fill="#FEFFFA"/>
<path d="M578.332 644.215C579.624 645.696 579.469 647.945 577.988 649.236C576.659 650.391 574.717 650.388 573.399 649.31C573.201 649.697 572.922 650.054 572.575 650.358C571.093 651.649 568.845 651.495 567.554 650.014C566.793 649.139 566.535 647.999 566.757 646.945C566.503 646.987 566.239 646.999 565.971 646.98C564.01 646.846 562.527 645.145 562.662 643.184C562.797 641.223 564.497 639.744 566.458 639.879C566.805 639.903 567.14 639.976 567.449 640.093C566.288 638.614 566.48 636.464 567.914 635.214C569.395 633.924 571.643 634.078 572.934 635.559C573.496 636.201 573.784 636.987 573.809 637.78C575.289 636.568 577.478 636.744 578.745 638.198C580.036 639.682 579.882 641.931 578.401 643.222C578.194 643.401 577.972 643.554 577.738 643.677C577.953 643.827 578.153 644.009 578.332 644.215Z" stroke="#2E1E00" stroke-width="2" stroke-miterlimit="10" stroke-linecap="round" stroke-linejoin="round"/>
<path d="M491.375 520.358C493.315 520.67 494.636 522.496 494.324 524.436C494.042 526.175 492.549 527.414 490.846 527.431C490.941 527.854 490.957 528.308 490.884 528.763C490.572 530.702 488.746 532.023 486.806 531.711C485.661 531.527 484.732 530.816 484.228 529.865C484.061 530.06 483.865 530.237 483.647 530.394C482.054 531.546 479.827 531.187 478.675 529.595C477.524 528.002 477.884 525.778 479.476 524.626C479.758 524.422 480.062 524.265 480.375 524.156C478.536 523.763 477.307 521.988 477.609 520.11C477.921 518.17 479.747 516.849 481.687 517.161C482.529 517.294 483.255 517.715 483.781 518.307C484.141 516.43 485.936 515.163 487.841 515.469C489.783 515.784 491.103 517.61 490.791 519.55C490.748 519.819 490.675 520.08 490.574 520.324C490.835 520.303 491.105 520.315 491.375 520.358Z" fill="#FEFFFA"/>
<path d="M491.375 520.358C493.315 520.67 494.636 522.496 494.324 524.436C494.042 526.175 492.549 527.414 490.846 527.431C490.941 527.854 490.957 528.308 490.884 528.763C490.572 530.702 488.746 532.023 486.806 531.711C485.661 531.527 484.732 530.816 484.228 529.865C484.061 530.06 483.865 530.237 483.647 530.394C482.054 531.546 479.827 531.187 478.675 529.595C477.524 528.002 477.884 525.778 479.476 524.626C479.758 524.422 480.062 524.265 480.375 524.156C478.536 523.763 477.307 521.988 477.609 520.11C477.921 518.17 479.747 516.849 481.687 517.161C482.529 517.294 483.255 517.715 483.781 518.307C484.141 516.43 485.936 515.163 487.841 515.469C489.783 515.784 491.103 517.61 490.791 519.55C490.748 519.819 490.675 520.08 490.574 520.324C490.835 520.303 491.105 520.315 491.375 520.358Z" stroke="#2E1E00" stroke-width="2" stroke-miterlimit="10" stroke-linecap="round" stroke-linejoin="round"/>
<path d="M749.496 563.562C751.436 563.874 752.757 565.7 752.445 567.64C752.163 569.379 750.669 570.619 748.966 570.635C749.062 571.058 749.077 571.512 749.004 571.966C748.693 573.906 746.866 575.227 744.926 574.916C743.782 574.732 742.853 574.02 742.349 573.069C742.182 573.264 741.986 573.441 741.768 573.598C740.175 574.75 737.948 574.392 736.796 572.8C735.645 571.206 736.004 568.982 737.597 567.83C737.879 567.626 738.183 567.469 738.496 567.361C736.657 566.968 735.428 565.192 735.73 563.314C736.042 561.374 737.868 560.054 739.808 560.366C740.65 560.499 741.376 560.919 741.901 561.511C742.262 559.633 744.057 558.367 745.962 558.673C747.904 558.988 749.224 560.814 748.912 562.754C748.869 563.023 748.795 563.283 748.695 563.528C748.957 563.508 749.226 563.519 749.496 563.562Z" fill="#FEFFFA"/>
<path d="M749.496 563.562C751.436 563.874 752.757 565.7 752.445 567.64C752.163 569.379 750.669 570.619 748.966 570.635C749.062 571.058 749.077 571.512 749.004 571.966C748.693 573.906 746.866 575.227 744.926 574.916C743.782 574.732 742.853 574.02 742.349 573.069C742.182 573.264 741.986 573.441 741.768 573.598C740.175 574.75 737.948 574.392 736.796 572.8C735.645 571.206 736.004 568.982 737.597 567.83C737.879 567.626 738.183 567.469 738.496 567.361C736.657 566.968 735.428 565.192 735.73 563.314C736.042 561.374 737.868 560.054 739.808 560.366C740.65 560.499 741.376 560.919 741.901 561.511C742.262 559.633 744.057 558.367 745.962 558.673C747.904 558.988 749.224 560.814 748.912 562.754C748.869 563.023 748.795 563.283 748.695 563.528C748.957 563.508 749.226 563.519 749.496 563.562Z" stroke="#2E1E00" stroke-width="2" stroke-miterlimit="10" stroke-linecap="round" stroke-linejoin="round"/>
<path d="M641.091 238.804C640.761 240.741 638.922 242.044 636.985 241.713C635.25 241.415 634.024 239.91 634.024 238.207C633.599 238.298 633.146 238.309 632.691 238.231C630.755 237.901 629.452 236.062 629.782 234.125C629.977 232.982 630.697 232.062 631.654 231.566C631.46 231.397 631.285 231.199 631.13 230.979C629.993 229.376 630.373 227.152 631.976 226.016C633.58 224.88 635.802 225.261 636.937 226.865C637.139 227.148 637.293 227.454 637.399 227.767C637.809 225.933 639.596 224.721 641.471 225.041C643.408 225.371 644.711 227.21 644.38 229.147C644.239 229.988 643.812 230.71 643.215 231.23C645.089 231.608 646.338 233.415 646.013 235.317C645.68 237.255 643.842 238.558 641.905 238.228C641.636 238.182 641.376 238.106 641.133 238.003C641.151 238.265 641.137 238.535 641.091 238.804Z" fill="#FEFFFA"/>
<path d="M641.091 238.804C640.761 240.741 638.922 242.044 636.985 241.713C635.25 241.415 634.024 239.91 634.024 238.207C633.599 238.298 633.146 238.309 632.691 238.231C630.755 237.901 629.452 236.062 629.782 234.125C629.977 232.982 630.697 232.062 631.654 231.566C631.46 231.397 631.285 231.199 631.13 230.979C629.993 229.376 630.373 227.152 631.976 226.016C633.58 224.88 635.802 225.261 636.937 226.865C637.139 227.148 637.293 227.454 637.399 227.767C637.809 225.933 639.596 224.721 641.471 225.041C643.408 225.371 644.711 227.21 644.38 229.147C644.239 229.988 643.812 230.71 643.215 231.23C645.089 231.608 646.338 233.415 646.013 235.317C645.68 237.255 643.842 238.558 641.905 238.228C641.636 238.182 641.376 238.106 641.133 238.003C641.151 238.265 641.137 238.535 641.091 238.804Z" stroke="#2E1E00" stroke-width="2" stroke-miterlimit="10" stroke-linecap="round" stroke-linejoin="round"/>
<path d="M511.78 651.154C511.45 653.09 509.611 654.393 507.674 654.062C505.939 653.763 504.713 652.258 504.713 650.556C504.288 650.647 503.835 650.658 503.38 650.58C501.444 650.25 500.141 648.411 500.471 646.475C500.666 645.332 501.386 644.411 502.343 643.915C502.149 643.746 501.974 643.548 501.819 643.328C500.682 641.724 501.062 639.501 502.665 638.365C504.269 637.229 506.491 637.61 507.626 639.213C507.828 639.497 507.982 639.803 508.088 640.116C508.498 638.281 510.285 637.07 512.16 637.39C514.097 637.72 515.4 639.559 515.069 641.496C514.928 642.337 514.501 643.058 513.904 643.579C515.778 643.956 517.027 645.763 516.702 647.666C516.369 649.604 514.531 650.907 512.594 650.576C512.325 650.53 512.065 650.454 511.822 650.351C511.84 650.614 511.826 650.884 511.78 651.154Z" fill="#FEFFFA"/>
<path d="M511.78 651.154C511.45 653.09 509.611 654.393 507.674 654.062C505.939 653.763 504.713 652.258 504.713 650.556C504.288 650.647 503.835 650.658 503.38 650.58C501.444 650.25 500.141 648.411 500.471 646.475C500.666 645.332 501.386 644.411 502.343 643.915C502.149 643.746 501.974 643.548 501.819 643.328C500.682 641.724 501.062 639.501 502.665 638.365C504.269 637.229 506.491 637.61 507.626 639.213C507.828 639.497 507.982 639.803 508.088 640.116C508.498 638.281 510.285 637.07 512.16 637.39C514.097 637.72 515.4 639.559 515.069 641.496C514.928 642.337 514.501 643.058 513.904 643.579C515.778 643.956 517.027 645.763 516.702 647.666C516.369 649.604 514.531 650.907 512.594 650.576C512.325 650.53 512.065 650.454 511.822 650.351C511.84 650.614 511.826 650.884 511.78 651.154Z" stroke="#2E1E00" stroke-width="2" stroke-miterlimit="10" stroke-linecap="round" stroke-linejoin="round"/>
<path d="M539.544 651.154C539.214 653.09 537.375 654.393 535.438 654.062C533.703 653.763 532.477 652.258 532.477 650.556C532.052 650.647 531.599 650.658 531.144 650.58C529.208 650.25 527.905 648.411 528.235 646.475C528.43 645.332 529.15 644.411 530.107 643.915C529.913 643.746 529.738 643.548 529.583 643.328C528.446 641.724 528.826 639.501 530.429 638.365C532.033 637.229 534.254 637.61 535.39 639.213C535.592 639.497 535.746 639.803 535.852 640.116C536.262 638.281 538.049 637.07 539.924 637.39C541.861 637.72 543.164 639.559 542.833 641.496C542.692 642.337 542.265 643.058 541.667 643.579C543.541 643.956 544.791 645.763 544.466 647.666C544.133 649.604 542.295 650.907 540.358 650.576C540.088 650.53 539.829 650.454 539.586 650.351C539.604 650.614 539.59 650.884 539.544 651.154Z" fill="#FEFFFA"/>
<path d="M539.544 651.154C539.214 653.09 537.375 654.393 535.438 654.062C533.703 653.763 532.477 652.258 532.477 650.556C532.052 650.647 531.599 650.658 531.144 650.58C529.208 650.25 527.905 648.411 528.235 646.475C528.43 645.332 529.15 644.411 530.107 643.915C529.913 643.746 529.738 643.548 529.583 643.328C528.446 641.724 528.826 639.501 530.429 638.365C532.033 637.229 534.254 637.61 535.39 639.213C535.592 639.497 535.746 639.803 535.852 640.116C536.262 638.281 538.049 637.07 539.924 637.39C541.861 637.72 543.164 639.559 542.833 641.496C542.692 642.337 542.265 643.058 541.667 643.579C543.541 643.956 544.791 645.763 544.466 647.666C544.133 649.604 542.295 650.907 540.358 650.576C540.088 650.53 539.829 650.454 539.586 650.351C539.604 650.614 539.59 650.884 539.544 651.154Z" stroke="#2E1E00" stroke-width="2" stroke-miterlimit="10" stroke-linecap="round" stroke-linejoin="round"/>
<path d="M520.114 617.294C520.114 617.294 513.067 616.582 511.857 622.704C510.646 628.826 517.338 626.762 517.338 626.762C517.338 626.762 516.626 631.887 520.613 632.457C524.599 633.027 525.453 627.759 525.453 627.759C525.453 627.759 532.572 630.624 533.284 624.884C533.996 619.145 527.447 620.142 527.447 620.142C527.447 620.142 527.874 613.734 524.528 613.806C521.183 613.877 520.114 617.294 520.114 617.294Z" fill="#FEFFFA"/>
<path d="M520.114 617.294C520.114 617.294 513.067 616.582 511.857 622.704C510.646 628.826 517.338 626.762 517.338 626.762C517.338 626.762 516.626 631.887 520.613 632.457C524.599 633.027 525.453 627.759 525.453 627.759C525.453 627.759 532.572 630.624 533.284 624.884C533.996 619.145 527.447 620.142 527.447 620.142C527.447 620.142 527.874 613.734 524.528 613.806C521.183 613.877 520.114 617.294 520.114 617.294Z" stroke="#2E1E00" stroke-width="2" stroke-miterlimit="10" stroke-linecap="round" stroke-linejoin="round"/>
<path d="M736.459 628.477C738.385 628.862 739.635 630.737 739.25 632.664C738.902 634.391 737.362 635.573 735.66 635.524C735.739 635.951 735.738 636.405 735.647 636.857C735.262 638.784 733.386 640.033 731.46 639.648C730.323 639.42 729.423 638.674 728.955 637.704C728.781 637.892 728.577 638.062 728.354 638.211C726.719 639.301 724.506 638.859 723.416 637.224C722.326 635.589 722.77 633.379 724.406 632.289C724.696 632.096 725.005 631.95 725.322 631.854C723.499 631.391 722.339 629.571 722.712 627.705C723.097 625.779 724.972 624.529 726.899 624.914C727.736 625.079 728.445 625.527 728.948 626.139C729.38 624.277 731.222 623.08 733.113 623.458C735.041 623.846 736.291 625.721 735.906 627.648C735.852 627.915 735.769 628.172 735.659 628.413C735.922 628.402 736.191 628.423 736.459 628.477Z" fill="#FEFFFA"/>
<path d="M736.459 628.477C738.385 628.862 739.635 630.737 739.25 632.664C738.902 634.391 737.362 635.573 735.66 635.524C735.739 635.951 735.738 636.405 735.647 636.857C735.262 638.784 733.386 640.033 731.46 639.648C730.323 639.42 729.423 638.674 728.955 637.704C728.781 637.892 728.577 638.062 728.354 638.211C726.719 639.301 724.506 638.859 723.416 637.224C722.326 635.589 722.77 633.379 724.406 632.289C724.696 632.096 725.005 631.95 725.322 631.854C723.499 631.391 722.339 629.571 722.712 627.705C723.097 625.779 724.972 624.529 726.899 624.914C727.736 625.079 728.445 625.527 728.948 626.139C729.38 624.277 731.222 623.08 733.113 623.458C735.041 623.846 736.291 625.721 735.906 627.648C735.852 627.915 735.769 628.172 735.659 628.413C735.922 628.402 736.191 628.423 736.459 628.477Z" stroke="#2E1E00" stroke-width="2" stroke-miterlimit="10" stroke-linecap="round" stroke-linejoin="round"/>
<path d="M479.63 558.53C479.63 558.53 478.612 553.591 474.4 552.223C472.014 551.448 469.315 552.272 467.815 554.283C467.493 554.713 467.27 555.177 467.249 555.646C467.249 555.646 457.921 558.106 460.428 564.38C463.342 571.676 469.114 565.652 469.114 565.652C469.114 565.652 468.86 573.624 474.372 572.182C479.884 570.741 477.001 563.872 477.001 563.872C477.001 563.872 482.852 565.465 483.191 562.252C483.531 559.039 479.63 558.53 479.63 558.53Z" fill="#FEFFFA"/>
<path d="M479.63 558.53C479.63 558.53 478.612 553.591 474.4 552.223C472.014 551.448 469.315 552.272 467.815 554.283C467.493 554.713 467.27 555.177 467.249 555.646C467.249 555.646 457.921 558.106 460.428 564.38C463.342 571.676 469.114 565.652 469.114 565.652C469.114 565.652 468.86 573.624 474.372 572.182C479.884 570.741 477.001 563.872 477.001 563.872C477.001 563.872 482.852 565.465 483.191 562.252C483.531 559.039 479.63 558.53 479.63 558.53Z" stroke="#2E1E00" stroke-width="2" stroke-miterlimit="10" stroke-linecap="round" stroke-linejoin="round"/>
<path d="M765.875 609.728C765.875 609.728 765.186 606.384 762.334 605.458C760.718 604.934 758.891 605.491 757.875 606.853C757.657 607.145 757.506 607.459 757.492 607.776C757.492 607.776 751.176 609.441 752.874 613.69C754.847 618.63 758.755 614.552 758.755 614.552C758.755 614.552 758.583 619.949 762.315 618.972C766.047 617.996 764.095 613.345 764.095 613.345C764.095 613.345 768.057 614.424 768.286 612.248C768.516 610.073 765.875 609.728 765.875 609.728Z" fill="#FEFFFA"/>
<path d="M765.875 609.728C765.875 609.728 765.186 606.384 762.334 605.458C760.718 604.934 758.891 605.491 757.875 606.853C757.657 607.145 757.506 607.459 757.492 607.776C757.492 607.776 751.176 609.441 752.874 613.69C754.847 618.63 758.755 614.552 758.755 614.552C758.755 614.552 758.583 619.949 762.315 618.972C766.047 617.996 764.095 613.345 764.095 613.345C764.095 613.345 768.057 614.424 768.286 612.248C768.516 610.073 765.875 609.728 765.875 609.728Z" stroke="#2E1E00" stroke-width="2" stroke-miterlimit="10" stroke-linecap="round" stroke-linejoin="round"/>
<path d="M681.097 477.671L678.913 455.825" stroke="#2E1E00" stroke-width="2" stroke-miterlimit="10" stroke-linecap="round" stroke-linejoin="round"/>
<path d="M636.121 523.119C636.121 523.119 649.935 525.823 658.523 518.282" stroke="#2E1E00" stroke-width="2" stroke-miterlimit="10" stroke-linecap="round" stroke-linejoin="round"/>
<path d="M613.183 392.67L627.392 398.862L612.768 404.928L613.183 392.67Z" fill="#2E1E00"/>
<path d="M613.183 392.67L627.392 398.862L612.768 404.928L613.183 392.67Z" stroke="#2E1E00" stroke-width="2" stroke-miterlimit="10" stroke-linecap="round" stroke-linejoin="round"/>
<path d="M612.993 411.519L624.503 415.655L612.44 419.009L612.993 411.519Z" fill="#2E1E00"/>
<path d="M612.993 411.519L624.503 415.655L612.44 419.009L612.993 411.519Z" stroke="#2E1E00" stroke-width="2" stroke-miterlimit="10" stroke-linecap="round" stroke-linejoin="round"/>
<path d="M650.712 399.719C650.712 399.719 652.043 407.675 659.698 406.991" stroke="#2E1E00" stroke-width="2" stroke-miterlimit="10" stroke-linecap="round" stroke-linejoin="round"/>
<path d="M664.824 395.865C666.201 397.17 666.26 399.345 664.954 400.722C663.649 402.098 661.474 402.157 660.097 400.852C658.72 399.546 658.662 397.372 659.967 395.995C661.273 394.618 663.447 394.56 664.824 395.865Z" fill="#2E1E00"/>
<path d="M652.728 391.128C653.524 391.883 653.558 393.141 652.803 393.937C652.047 394.734 650.789 394.768 649.993 394.013C649.196 393.257 649.163 392 649.918 391.203C650.673 390.406 651.931 390.373 652.728 391.128Z" fill="#2E1E00"/>
<path d="M651.088 380.757C652.14 382.242 650.761 385.027 648.007 386.977C645.254 388.928 642.17 389.305 641.117 387.821C640.066 386.336 641.444 383.551 644.198 381.6C646.951 379.65 650.036 379.272 651.088 380.757Z" fill="#2E1E00"/>
<path d="M668.042 391.128C667.245 391.883 667.211 393.141 667.966 393.937C668.722 394.734 669.98 394.768 670.776 394.013C671.573 393.257 671.606 392 670.851 391.203C670.096 390.406 668.838 390.373 668.042 391.128Z" fill="#2E1E00"/>
<path d="M669.681 380.757C668.63 382.242 670.008 385.027 672.762 386.977C675.515 388.928 678.599 389.305 679.652 387.821C680.704 386.336 679.325 383.551 676.571 381.6C673.818 379.65 670.733 379.272 669.681 380.757Z" fill="#2E1E00"/>
<path d="M681.094 477.668L678.912 455.825" stroke="#2E1E00" stroke-width="2" stroke-miterlimit="10" stroke-linecap="round" stroke-linejoin="round"/>
<path d="M612.164 426.937C612.164 426.937 652.148 439.642 676.013 423.801" stroke="#FEFFFA" stroke-width="2" stroke-miterlimit="10" stroke-linecap="round" stroke-linejoin="round"/>
<path d="M659.381 438.03L659.223 431.143" stroke="#FEFFFA" stroke-width="2" stroke-miterlimit="10" stroke-linecap="round" stroke-linejoin="round"/>
<path d="M676.018 426.937L624.503 461.922" stroke="#2E1E00" stroke-width="2" stroke-miterlimit="10" stroke-linecap="round" stroke-linejoin="round"/>
<path d="M696.597 571.224L650.307 569.848L654.989 638.03H709.422C709.422 638.03 721.363 616.371 692.632 612.793L696.597 571.224Z" fill="#FA6456"/>
<path d="M696.597 571.224L650.307 569.848L654.989 638.03H709.422C709.422 638.03 721.363 616.371 692.632 612.793L696.597 571.224Z" stroke="#2E1E00" stroke-width="2" stroke-miterlimit="10" stroke-linecap="round" stroke-linejoin="round"/>
<path d="M603.383 599.781L589.796 555.508L526.744 581.873L544.253 633.413C544.253 633.413 568.601 637.753 562.748 609.398L603.383 599.781Z" fill="#FA6456"/>
<path d="M603.383 599.781L589.796 555.508L526.744 581.873L544.253 633.413C544.253 633.413 568.601 637.753 562.748 609.398L603.383 599.781Z" stroke="#2E1E00" stroke-width="2" stroke-miterlimit="10" stroke-linecap="round" stroke-linejoin="round"/>
<path d="M599.845 600.322C599.845 600.322 598.828 595.384 594.616 594.016C592.23 593.241 589.531 594.064 588.031 596.076C587.709 596.507 587.486 596.97 587.465 597.439C587.465 597.439 578.137 599.898 580.643 606.173C583.558 613.468 589.33 607.445 589.33 607.445C589.33 607.445 589.076 615.417 594.588 613.975C600.1 612.534 597.217 605.665 597.217 605.665C597.217 605.665 603.068 607.258 603.407 604.045C603.746 600.832 599.845 600.322 599.845 600.322Z" fill="#FEFFFA"/>
<path d="M599.845 600.322C599.845 600.322 598.828 595.384 594.616 594.016C592.23 593.241 589.531 594.064 588.031 596.076C587.709 596.507 587.486 596.97 587.465 597.439C587.465 597.439 578.137 599.898 580.643 606.173C583.558 613.468 589.33 607.445 589.33 607.445C589.33 607.445 589.076 615.417 594.588 613.975C600.1 612.534 597.217 605.665 597.217 605.665C597.217 605.665 603.068 607.258 603.407 604.045C603.746 600.832 599.845 600.322 599.845 600.322Z" stroke="#2E1E00" stroke-width="2" stroke-miterlimit="10" stroke-linecap="round" stroke-linejoin="round"/>
<path d="M528.422 591.827C528.422 591.827 524.197 591.4 523.471 595.071C522.746 598.74 526.758 597.503 526.758 597.503C526.758 597.503 526.331 600.576 528.721 600.918C531.111 601.259 531.623 598.101 531.623 598.101C531.623 598.101 535.892 599.819 536.318 596.378C536.745 592.937 532.819 593.534 532.819 593.534C532.819 593.534 533.074 589.694 531.068 589.736C529.062 589.778 528.422 591.827 528.422 591.827Z" fill="#FEFFFA"/>
<path d="M528.422 591.827C528.422 591.827 524.197 591.4 523.471 595.071C522.746 598.74 526.758 597.503 526.758 597.503C526.758 597.503 526.331 600.576 528.721 600.918C531.111 601.259 531.623 598.101 531.623 598.101C531.623 598.101 535.892 599.819 536.318 596.378C536.745 592.937 532.819 593.534 532.819 593.534C532.819 593.534 533.074 589.694 531.068 589.736C529.062 589.778 528.422 591.827 528.422 591.827Z" stroke="#2E1E00" stroke-width="2" stroke-miterlimit="10" stroke-linecap="round" stroke-linejoin="round"/>
<path d="M651.006 632.205C651.006 632.205 643.999 631.497 642.796 637.584C641.593 643.67 648.246 641.618 648.246 641.618C648.246 641.618 647.538 646.713 651.501 647.28C655.465 647.846 656.314 642.609 656.314 642.609C656.314 642.609 663.392 645.457 664.1 639.751C664.807 634.045 658.296 635.036 658.296 635.036C658.296 635.036 658.721 628.666 655.394 628.737C652.068 628.809 651.006 632.205 651.006 632.205Z" fill="#FEFFFA"/>
<path d="M651.006 632.205C651.006 632.205 643.999 631.497 642.796 637.584C641.593 643.67 648.246 641.618 648.246 641.618C648.246 641.618 647.538 646.713 651.501 647.28C655.465 647.846 656.314 642.609 656.314 642.609C656.314 642.609 663.392 645.457 664.1 639.751C664.807 634.045 658.296 635.036 658.296 635.036C658.296 635.036 658.721 628.666 655.394 628.737C652.068 628.809 651.006 632.205 651.006 632.205Z" stroke="#2E1E00" stroke-width="2" stroke-miterlimit="10" stroke-linecap="round" stroke-linejoin="round"/>
<path d="M717.212 613.167C717.212 613.167 716.195 608.228 711.983 606.86C709.597 606.085 706.898 606.909 705.398 608.92C705.076 609.351 704.853 609.815 704.832 610.284C704.832 610.284 695.504 612.743 698.01 619.018C700.925 626.313 706.697 620.289 706.697 620.289C706.697 620.289 706.443 628.261 711.955 626.819C717.467 625.378 714.584 618.51 714.584 618.51C714.584 618.51 720.435 620.102 720.774 616.889C721.113 613.675 717.212 613.167 717.212 613.167Z" fill="#FEFFFA"/>
<path d="M717.212 613.167C717.212 613.167 716.195 608.228 711.983 606.86C709.597 606.085 706.898 606.909 705.398 608.92C705.076 609.351 704.853 609.815 704.832 610.284C704.832 610.284 695.504 612.743 698.01 619.018C700.925 626.313 706.697 620.289 706.697 620.289C706.697 620.289 706.443 628.261 711.955 626.819C717.467 625.378 714.584 618.51 714.584 618.51C714.584 618.51 720.435 620.102 720.774 616.889C721.113 613.675 717.212 613.167 717.212 613.167Z" stroke="#2E1E00" stroke-width="2" stroke-miterlimit="10" stroke-linecap="round" stroke-linejoin="round"/>
<path d="M532.097 646.142C532.097 646.142 531.079 641.203 526.867 639.835C524.481 639.06 521.783 639.884 520.282 641.895C519.961 642.326 519.737 642.79 519.716 643.259C519.716 643.259 510.388 645.718 512.895 651.993C515.81 659.288 521.582 653.265 521.582 653.265C521.582 653.265 521.328 661.236 526.839 659.794C532.352 658.353 529.468 651.485 529.468 651.485C529.468 651.485 535.319 653.077 535.659 649.864C535.998 646.651 532.097 646.142 532.097 646.142Z" fill="#FEFFFA"/>
<path d="M532.097 646.142C532.097 646.142 531.079 641.203 526.867 639.835C524.481 639.06 521.783 639.884 520.282 641.895C519.961 642.326 519.737 642.79 519.716 643.259C519.716 643.259 510.388 645.718 512.895 651.993C515.81 659.288 521.582 653.265 521.582 653.265C521.582 653.265 521.328 661.236 526.839 659.794C532.352 658.353 529.468 651.485 529.468 651.485C529.468 651.485 535.319 653.077 535.659 649.864C535.998 646.651 532.097 646.142 532.097 646.142Z" stroke="#2E1E00" stroke-width="2" stroke-miterlimit="10" stroke-linecap="round" stroke-linejoin="round"/>
<path d="M389.022 196.42C389.022 196.42 384.159 195.087 381.03 198.22C379.257 199.995 378.767 202.774 379.879 205.023C380.117 205.506 380.429 205.915 380.838 206.146C380.838 206.146 378.799 215.575 385.528 216.187C393.352 216.898 390.601 209.022 390.601 209.022C390.601 209.022 397.59 212.863 398.805 207.297C400.02 201.731 392.591 201.185 392.591 201.185C392.591 201.185 396.664 196.693 393.954 194.933C391.245 193.174 389.022 196.42 389.022 196.42Z" fill="#FEFFFA"/>
<path d="M389.022 196.42C389.022 196.42 384.159 195.087 381.03 198.22C379.257 199.995 378.767 202.774 379.879 205.023C380.117 205.506 380.429 205.915 380.838 206.146C380.838 206.146 378.799 215.575 385.528 216.187C393.352 216.898 390.601 209.022 390.601 209.022C390.601 209.022 397.59 212.863 398.805 207.297C400.02 201.731 392.591 201.185 392.591 201.185C392.591 201.185 396.664 196.693 393.954 194.933C391.245 193.174 389.022 196.42 389.022 196.42Z" stroke="#2E1E00" stroke-width="2" stroke-miterlimit="10" stroke-linecap="round" stroke-linejoin="round"/>
<path d="M639.541 610.89C639.541 610.89 635.316 610.463 634.59 614.134C633.865 617.804 637.877 616.567 637.877 616.567C637.877 616.567 637.45 619.639 639.84 619.981C642.23 620.322 642.742 617.165 642.742 617.165C642.742 617.165 647.01 618.882 647.437 615.441C647.864 612 643.938 612.598 643.938 612.598C643.938 612.598 644.193 608.757 642.187 608.8C640.181 608.842 639.541 610.89 639.541 610.89Z" fill="#FEFFFA"/>
<path d="M639.541 610.89C639.541 610.89 635.316 610.463 634.59 614.134C633.865 617.804 637.877 616.567 637.877 616.567C637.877 616.567 637.45 619.639 639.84 619.981C642.23 620.322 642.742 617.165 642.742 617.165C642.742 617.165 647.01 618.882 647.437 615.441C647.864 612 643.938 612.598 643.938 612.598C643.938 612.598 644.193 608.757 642.187 608.8C640.181 608.842 639.541 610.89 639.541 610.89Z" stroke="#2E1E00" stroke-width="2" stroke-miterlimit="10" stroke-linecap="round" stroke-linejoin="round"/>
<path d="M553.858 148.707C553.858 148.707 558.045 147.998 557.772 144.267C557.498 140.536 553.958 142.793 553.958 142.793C553.958 142.793 553.554 139.717 551.159 140.021C548.764 140.326 549.108 143.507 549.108 143.507C549.108 143.507 544.537 142.983 545.038 146.413C545.539 149.845 549.167 148.227 549.167 148.227C549.167 148.227 549.939 151.999 551.862 151.426C553.784 150.852 553.858 148.707 553.858 148.707Z" fill="#FEFFFA"/>
<path d="M553.858 148.707C553.858 148.707 558.045 147.998 557.772 144.267C557.498 140.536 553.958 142.793 553.958 142.793C553.958 142.793 553.554 139.717 551.159 140.021C548.764 140.326 549.108 143.507 549.108 143.507C549.108 143.507 544.537 142.983 545.038 146.413C545.539 149.845 549.167 148.227 549.167 148.227C549.167 148.227 549.939 151.999 551.862 151.426C553.784 150.852 553.858 148.707 553.858 148.707Z" stroke="#2E1E00" stroke-width="2" stroke-miterlimit="10" stroke-linecap="round" stroke-linejoin="round"/>
<path d="M687.962 234.974C687.962 234.974 692.15 234.265 691.876 230.533C691.602 226.802 688.062 229.059 688.062 229.059C688.062 229.059 687.658 225.983 685.263 226.288C682.868 226.592 683.212 229.773 683.212 229.773C683.212 229.773 678.642 229.249 679.143 232.68C679.644 236.111 683.271 234.494 683.271 234.494C683.271 234.494 684.043 238.265 685.966 237.692C687.888 237.119 687.962 234.974 687.962 234.974Z" fill="#FEFFFA"/>
<path d="M687.962 234.974C687.962 234.974 692.15 234.265 691.876 230.533C691.602 226.802 688.062 229.059 688.062 229.059C688.062 229.059 687.658 225.983 685.263 226.288C682.868 226.592 683.212 229.773 683.212 229.773C683.212 229.773 678.642 229.249 679.143 232.68C679.644 236.111 683.271 234.494 683.271 234.494C683.271 234.494 684.043 238.265 685.966 237.692C687.888 237.119 687.962 234.974 687.962 234.974Z" stroke="#2E1E00" stroke-width="2" stroke-miterlimit="10" stroke-linecap="round" stroke-linejoin="round"/>
<path d="M620.7 601.76C620.7 601.76 621.361 605.545 624.737 605.281C628.113 605.016 626.054 601.823 626.054 601.823C626.054 601.823 628.836 601.443 628.549 599.277C628.262 597.111 625.385 597.436 625.385 597.436C625.385 597.436 625.839 593.298 622.736 593.767C619.633 594.237 621.113 597.512 621.113 597.512C621.113 597.512 617.703 598.228 618.231 599.965C618.759 601.702 620.7 601.76 620.7 601.76Z" fill="#FEFFFA"/>
<path d="M620.7 601.76C620.7 601.76 621.361 605.545 624.737 605.281C628.113 605.016 626.054 601.823 626.054 601.823C626.054 601.823 628.836 601.443 628.549 599.277C628.262 597.111 625.385 597.436 625.385 597.436C625.385 597.436 625.839 593.298 622.736 593.767C619.633 594.237 621.113 597.512 621.113 597.512C621.113 597.512 617.703 598.228 618.231 599.965C618.759 601.702 620.7 601.76 620.7 601.76Z" stroke="#2E1E00" stroke-width="2" stroke-miterlimit="10" stroke-linecap="round" stroke-linejoin="round"/>
<path d="M769.362 577.497C769.362 577.497 765.137 577.07 764.411 580.741C763.686 584.411 767.698 583.174 767.698 583.174C767.698 583.174 767.271 586.247 769.661 586.588C772.051 586.929 772.563 583.771 772.563 583.771C772.563 583.771 776.831 585.489 777.258 582.048C777.684 578.607 773.758 579.205 773.758 579.205C773.758 579.205 774.014 575.364 772.008 575.407C770.002 575.448 769.362 577.497 769.362 577.497Z" fill="#FEFFFA"/>
<path d="M769.362 577.497C769.362 577.497 765.137 577.07 764.411 580.741C763.686 584.411 767.698 583.174 767.698 583.174C767.698 583.174 767.271 586.247 769.661 586.588C772.051 586.929 772.563 583.771 772.563 583.771C772.563 583.771 776.831 585.489 777.258 582.048C777.684 578.607 773.758 579.205 773.758 579.205C773.758 579.205 774.014 575.364 772.008 575.407C770.002 575.448 769.362 577.497 769.362 577.497Z" stroke="#2E1E00" stroke-width="2" stroke-miterlimit="10" stroke-linecap="round" stroke-linejoin="round"/>
<path d="M568.434 379.074C568.434 379.074 576.058 379.012 576.638 372.32C577.218 365.628 570.299 368.619 570.299 368.619C570.299 368.619 570.463 363.051 566.13 362.907C561.798 362.764 561.5 368.5 561.5 368.5C561.5 368.5 553.548 366.266 553.456 372.49C553.365 378.714 560.256 376.883 560.256 376.883C560.256 376.883 560.548 383.789 564.119 383.321C567.691 382.854 568.434 379.074 568.434 379.074Z" fill="#FEFFFA"/>
<path d="M568.434 379.074C568.434 379.074 576.058 379.012 576.638 372.32C577.218 365.628 570.299 368.619 570.299 368.619C570.299 368.619 570.463 363.051 566.13 362.907C561.798 362.764 561.5 368.5 561.5 368.5C561.5 368.5 553.548 366.266 553.456 372.49C553.365 378.714 560.256 376.883 560.256 376.883C560.256 376.883 560.548 383.789 564.119 383.321C567.691 382.854 568.434 379.074 568.434 379.074Z" stroke="#2E1E00" stroke-width="2" stroke-miterlimit="10" stroke-linecap="round" stroke-linejoin="round"/>
<path d="M494.781 347.856C496.721 348.167 498.041 349.994 497.729 351.934C497.447 353.672 495.954 354.912 494.251 354.928C494.346 355.352 494.362 355.805 494.289 356.26C493.977 358.2 492.151 359.521 490.211 359.209C489.066 359.025 488.138 358.314 487.634 357.362C487.466 357.557 487.27 357.734 487.052 357.892C485.459 359.044 483.232 358.686 482.081 357.093C480.929 355.5 481.289 353.276 482.881 352.124C483.163 351.92 483.468 351.762 483.78 351.654C481.941 351.261 480.712 349.486 481.014 347.608C481.326 345.668 483.152 344.348 485.092 344.659C485.934 344.793 486.66 345.213 487.186 345.805C487.547 343.928 489.341 342.661 491.246 342.967C493.188 343.282 494.508 345.108 494.197 347.048C494.153 347.317 494.08 347.578 493.979 347.822C494.241 347.801 494.511 347.812 494.781 347.856Z" fill="#FEFFFA"/>
<path d="M494.781 347.856C496.721 348.167 498.041 349.994 497.729 351.934C497.447 353.672 495.954 354.912 494.251 354.928C494.346 355.352 494.362 355.805 494.289 356.26C493.977 358.2 492.151 359.521 490.211 359.209C489.066 359.025 488.138 358.314 487.634 357.362C487.466 357.557 487.27 357.734 487.052 357.892C485.459 359.044 483.232 358.686 482.081 357.093C480.929 355.5 481.289 353.276 482.881 352.124C483.163 351.92 483.468 351.762 483.78 351.654C481.941 351.261 480.712 349.486 481.014 347.608C481.326 345.668 483.152 344.348 485.092 344.659C485.934 344.793 486.66 345.213 487.186 345.805C487.547 343.928 489.341 342.661 491.246 342.967C493.188 343.282 494.508 345.108 494.197 347.048C494.153 347.317 494.08 347.578 493.979 347.822C494.241 347.801 494.511 347.812 494.781 347.856Z" stroke="#2E1E00" stroke-width="2" stroke-miterlimit="10" stroke-linecap="round" stroke-linejoin="round"/>
<path d="M564.805 249.393C564.805 249.393 568.149 248.704 569.075 245.852C569.6 244.236 569.043 242.409 567.681 241.394C567.389 241.176 567.075 241.024 566.758 241.01C566.758 241.01 565.093 234.695 560.844 236.392C555.904 238.365 559.982 242.274 559.982 242.274C559.982 242.274 554.585 242.101 555.561 245.833C556.537 249.565 561.188 247.613 561.188 247.613C561.188 247.613 560.11 251.575 562.285 251.804C564.461 252.034 564.805 249.393 564.805 249.393Z" fill="#FEFFFA"/>
<path d="M564.805 249.393C564.805 249.393 568.149 248.704 569.075 245.852C569.6 244.236 569.043 242.409 567.681 241.394C567.389 241.176 567.075 241.024 566.758 241.01C566.758 241.01 565.093 234.695 560.844 236.392C555.904 238.365 559.982 242.274 559.982 242.274C559.982 242.274 554.585 242.101 555.561 245.833C556.537 249.565 561.188 247.613 561.188 247.613C561.188 247.613 560.11 251.575 562.285 251.804C564.461 252.034 564.805 249.393 564.805 249.393Z" stroke="#2E1E00" stroke-width="2" stroke-miterlimit="10" stroke-linecap="round" stroke-linejoin="round"/>
<path d="M600.686 299.364C600.686 299.364 605.121 301.764 608.878 299.421C611.007 298.094 612.114 295.498 611.541 293.056C611.417 292.532 611.207 292.063 610.861 291.745C610.861 291.745 614.983 283.023 608.567 280.903C601.108 278.437 602.002 286.732 602.002 286.732C602.002 286.732 596.066 281.407 593.621 286.554C591.177 291.7 598.289 293.914 598.289 293.914C598.289 293.914 593.305 297.367 595.545 299.695C597.786 302.022 600.686 299.364 600.686 299.364Z" fill="#FEFFFA"/>
<path d="M600.686 299.364C600.686 299.364 605.121 301.764 608.878 299.421C611.007 298.094 612.114 295.498 611.541 293.056C611.417 292.532 611.207 292.063 610.861 291.745C610.861 291.745 614.983 283.023 608.567 280.903C601.108 278.437 602.002 286.732 602.002 286.732C602.002 286.732 596.066 281.407 593.621 286.554C591.177 291.7 598.289 293.914 598.289 293.914C598.289 293.914 593.305 297.367 595.545 299.695C597.786 302.022 600.686 299.364 600.686 299.364Z" stroke="#2E1E00" stroke-width="2" stroke-miterlimit="10" stroke-linecap="round" stroke-linejoin="round"/>
<path d="M522.419 306.09C522.419 306.09 527.337 309.518 530.752 305.489C534.167 301.46 528.369 300.232 528.369 300.232C528.369 300.232 531.006 296.736 528.292 294.673C525.579 292.611 522.779 296.155 522.779 296.155C522.779 296.155 518.695 291.106 515.806 295.057C512.917 299.008 518.17 300.966 518.17 300.966C518.17 300.966 515.217 305.528 517.72 306.852C520.223 308.177 522.419 306.09 522.419 306.09Z" fill="#FEFFFA"/>
<path d="M522.419 306.09C522.419 306.09 527.337 309.518 530.752 305.489C534.167 301.46 528.369 300.232 528.369 300.232C528.369 300.232 531.006 296.736 528.292 294.673C525.579 292.611 522.779 296.155 522.779 296.155C522.779 296.155 518.695 291.106 515.806 295.057C512.917 299.008 518.17 300.966 518.17 300.966C518.17 300.966 515.217 305.528 517.72 306.852C520.223 308.177 522.419 306.09 522.419 306.09Z" stroke="#2E1E00" stroke-width="2" stroke-miterlimit="10" stroke-linecap="round" stroke-linejoin="round"/>
<path d="M398.005 315.565C398.005 315.565 402.146 314.623 401.665 310.913C401.182 307.202 397.774 309.653 397.774 309.653C397.774 309.653 397.199 306.605 394.825 307.043C392.451 307.481 392.972 310.638 392.972 310.638C392.972 310.638 388.379 310.37 389.071 313.768C389.763 317.165 393.294 315.347 393.294 315.347C393.294 315.347 394.276 319.07 396.163 318.39C398.051 317.71 398.005 315.565 398.005 315.565Z" fill="#FEFFFA"/>
<path d="M398.005 315.565C398.005 315.565 402.146 314.623 401.665 310.913C401.182 307.202 397.774 309.653 397.774 309.653C397.774 309.653 397.199 306.605 394.825 307.043C392.451 307.481 392.972 310.638 392.972 310.638C392.972 310.638 388.379 310.37 389.071 313.768C389.763 317.165 393.294 315.347 393.294 315.347C393.294 315.347 394.276 319.07 396.163 318.39C398.051 317.71 398.005 315.565 398.005 315.565Z" stroke="#2E1E00" stroke-width="2" stroke-miterlimit="10" stroke-linecap="round" stroke-linejoin="round"/>
<path d="M594.476 645.613C594.476 645.613 598.617 644.672 598.135 640.961C597.653 637.251 594.245 639.702 594.245 639.702C594.245 639.702 593.67 636.654 591.296 637.092C588.922 637.53 589.443 640.687 589.443 640.687C589.443 640.687 584.85 640.419 585.542 643.816C586.234 647.213 589.765 645.395 589.765 645.395C589.765 645.395 590.747 649.118 592.634 648.438C594.522 647.759 594.476 645.613 594.476 645.613Z" fill="#FEFFFA"/>
<path d="M594.476 645.613C594.476 645.613 598.617 644.672 598.135 640.961C597.653 637.251 594.245 639.702 594.245 639.702C594.245 639.702 593.67 636.654 591.296 637.092C588.922 637.53 589.443 640.687 589.443 640.687C589.443 640.687 584.85 640.419 585.542 643.816C586.234 647.213 589.765 645.395 589.765 645.395C589.765 645.395 590.747 649.118 592.634 648.438C594.522 647.759 594.476 645.613 594.476 645.613Z" stroke="#2E1E00" stroke-width="2" stroke-miterlimit="10" stroke-linecap="round" stroke-linejoin="round"/>
<path d="M646.769 310.404C646.769 310.404 650.952 309.676 650.662 305.946C650.371 302.215 646.841 304.489 646.841 304.489C646.841 304.489 646.424 301.415 644.03 301.731C641.636 302.046 641.995 305.226 641.995 305.226C641.995 305.226 637.422 304.723 637.938 308.151C638.455 311.58 642.075 309.946 642.075 309.946C642.075 309.946 642.864 313.714 644.784 313.131C646.705 312.549 646.769 310.404 646.769 310.404Z" fill="#FEFFFA"/>
<path d="M646.769 310.404C646.769 310.404 650.952 309.676 650.662 305.946C650.371 302.215 646.841 304.489 646.841 304.489C646.841 304.489 646.424 301.415 644.03 301.731C641.636 302.046 641.995 305.226 641.995 305.226C641.995 305.226 637.422 304.723 637.938 308.151C638.455 311.58 642.075 309.946 642.075 309.946C642.075 309.946 642.864 313.714 644.784 313.131C646.705 312.549 646.769 310.404 646.769 310.404Z" stroke="#2E1E00" stroke-width="2" stroke-miterlimit="10" stroke-linecap="round" stroke-linejoin="round"/>
<path d="M425.562 145.958C425.562 145.958 431.113 150.292 435.375 145.783C439.638 141.275 432.915 139.465 432.915 139.465C432.915 139.465 436.23 135.531 433.178 132.939C430.127 130.348 426.617 134.326 426.617 134.326C426.617 134.326 422.146 128.144 418.507 132.594C414.866 137.045 420.903 139.677 420.903 139.677C420.903 139.677 417.149 144.84 420.001 146.554C422.853 148.266 425.562 145.958 425.562 145.958Z" fill="#FEFFFA"/>
<path d="M425.562 145.958C425.562 145.958 431.113 150.292 435.375 145.783C439.638 141.275 432.915 139.465 432.915 139.465C432.915 139.465 436.23 135.531 433.178 132.939C430.127 130.348 426.617 134.326 426.617 134.326C426.617 134.326 422.146 128.144 418.507 132.594C414.866 137.045 420.903 139.677 420.903 139.677C420.903 139.677 417.149 144.84 420.001 146.554C422.853 148.266 425.562 145.958 425.562 145.958Z" stroke="#2E1E00" stroke-width="2" stroke-miterlimit="10" stroke-linecap="round" stroke-linejoin="round"/>
<path d="M471.054 269.655C471.054 269.655 471.547 276.681 477.749 276.833C483.952 276.985 480.799 270.777 480.799 270.777C480.799 270.777 485.941 270.61 485.826 266.608C485.711 262.606 480.406 262.658 480.406 262.658C480.406 262.658 482.011 255.2 476.268 255.471C470.525 255.743 472.607 261.991 472.607 261.991C472.607 261.991 466.257 262.654 466.892 265.92C467.527 269.186 471.054 269.655 471.054 269.655Z" fill="#FEFFFA"/>
<path d="M471.054 269.655C471.054 269.655 471.547 276.681 477.749 276.833C483.952 276.985 480.799 270.777 480.799 270.777C480.799 270.777 485.941 270.61 485.826 266.608C485.711 262.606 480.406 262.658 480.406 262.658C480.406 262.658 482.011 255.2 476.268 255.471C470.525 255.743 472.607 261.991 472.607 261.991C472.607 261.991 466.257 262.654 466.892 265.92C467.527 269.186 471.054 269.655 471.054 269.655Z" stroke="#2E1E00" stroke-width="2" stroke-miterlimit="10" stroke-linecap="round" stroke-linejoin="round"/>
<path d="M685.413 639.278C687.353 639.589 688.674 641.416 688.362 643.356C688.08 645.095 686.587 646.335 684.884 646.35C684.979 646.774 684.995 647.227 684.922 647.682C684.61 649.622 682.784 650.943 680.844 650.631C679.699 650.447 678.771 649.736 678.267 648.784C678.099 648.979 677.903 649.157 677.685 649.314C676.092 650.466 673.865 650.108 672.713 648.515C671.562 646.922 671.922 644.698 673.514 643.546C673.796 643.342 674.1 643.184 674.413 643.076C672.574 642.683 671.345 640.908 671.647 639.029C671.959 637.09 673.785 635.769 675.725 636.081C676.567 636.215 677.293 636.635 677.819 637.227C678.18 635.349 679.974 634.083 681.879 634.389C683.821 634.704 685.141 636.53 684.829 638.469C684.786 638.739 684.713 638.999 684.612 639.243C684.874 639.223 685.144 639.235 685.413 639.278Z" fill="#FEFFFA"/>
<path d="M685.413 639.278C687.353 639.589 688.674 641.416 688.362 643.356C688.08 645.095 686.587 646.335 684.884 646.35C684.979 646.774 684.995 647.227 684.922 647.682C684.61 649.622 682.784 650.943 680.844 650.631C679.699 650.447 678.771 649.736 678.267 648.784C678.099 648.979 677.903 649.157 677.685 649.314C676.092 650.466 673.865 650.108 672.713 648.515C671.562 646.922 671.922 644.698 673.514 643.546C673.796 643.342 674.1 643.184 674.413 643.076C672.574 642.683 671.345 640.908 671.647 639.029C671.959 637.09 673.785 635.769 675.725 636.081C676.567 636.215 677.293 636.635 677.819 637.227C678.18 635.349 679.974 634.083 681.879 634.389C683.821 634.704 685.141 636.53 684.829 638.469C684.786 638.739 684.713 638.999 684.612 639.243C684.874 639.223 685.144 639.235 685.413 639.278Z" stroke="#2E1E00" stroke-width="2" stroke-miterlimit="10" stroke-linecap="round" stroke-linejoin="round"/>
<path d="M706.763 640.062C706.763 640.062 706.074 636.718 703.222 635.792C701.607 635.267 699.779 635.824 698.764 637.186C698.546 637.478 698.395 637.793 698.381 638.11C698.381 638.11 692.065 639.775 693.762 644.024C695.735 648.963 699.644 644.885 699.644 644.885C699.644 644.885 699.472 650.282 703.203 649.306C706.935 648.33 704.983 643.679 704.983 643.679C704.983 643.679 708.945 644.758 709.174 642.582C709.405 640.406 706.763 640.062 706.763 640.062Z" fill="#FEFFFA"/>
<path d="M706.763 640.062C706.763 640.062 706.074 636.718 703.222 635.792C701.607 635.267 699.779 635.824 698.764 637.186C698.546 637.478 698.395 637.793 698.381 638.11C698.381 638.11 692.065 639.775 693.762 644.024C695.735 648.963 699.644 644.885 699.644 644.885C699.644 644.885 699.472 650.282 703.203 649.306C706.935 648.33 704.983 643.679 704.983 643.679C704.983 643.679 708.945 644.758 709.174 642.582C709.405 640.406 706.763 640.062 706.763 640.062Z" stroke="#2E1E00" stroke-width="2" stroke-miterlimit="10" stroke-linecap="round" stroke-linejoin="round"/>
<path d="M684.36 136.815C684.03 138.752 682.191 140.054 680.254 139.723C678.518 139.425 677.293 137.92 677.293 136.217C676.869 136.308 676.415 136.319 675.96 136.242C674.024 135.911 672.721 134.073 673.051 132.136C673.246 130.993 673.966 130.072 674.923 129.577C674.729 129.407 674.554 129.209 674.398 128.99C673.262 127.386 673.642 125.162 675.245 124.026C676.849 122.89 679.07 123.271 680.206 124.875C680.408 125.159 680.562 125.465 680.668 125.778C681.078 123.943 682.865 122.731 684.74 123.051C686.677 123.382 687.98 125.221 687.649 127.157C687.508 127.998 687.081 128.72 686.483 129.24C688.357 129.619 689.607 131.426 689.282 133.328C688.949 135.266 687.111 136.569 685.174 136.238C684.904 136.193 684.645 136.116 684.402 136.013C684.42 136.276 684.406 136.546 684.36 136.815Z" fill="#FEFFFA"/>
<path d="M684.36 136.815C684.03 138.752 682.191 140.054 680.254 139.723C678.518 139.425 677.293 137.92 677.293 136.217C676.869 136.308 676.415 136.319 675.96 136.242C674.024 135.911 672.721 134.073 673.051 132.136C673.246 130.993 673.966 130.072 674.923 129.577C674.729 129.407 674.554 129.209 674.398 128.99C673.262 127.386 673.642 125.162 675.245 124.026C676.849 122.89 679.07 123.271 680.206 124.875C680.408 125.159 680.562 125.465 680.668 125.778C681.078 123.943 682.865 122.731 684.74 123.051C686.677 123.382 687.98 125.221 687.649 127.157C687.508 127.998 687.081 128.72 686.483 129.24C688.357 129.619 689.607 131.426 689.282 133.328C688.949 135.266 687.111 136.569 685.174 136.238C684.904 136.193 684.645 136.116 684.402 136.013C684.42 136.276 684.406 136.546 684.36 136.815Z" stroke="#2E1E00" stroke-width="2" stroke-miterlimit="10" stroke-linecap="round" stroke-linejoin="round"/>
<path d="M81.3563 88.7582C81.3563 88.7582 76.3896 87.8869 73.5677 91.2996C71.969 93.233 71.7413 96.0452 73.0592 98.1804C73.3415 98.6383 73.6905 99.0163 74.1188 99.2085C74.1188 99.2085 72.9721 108.787 79.7291 108.766C87.5849 108.741 84.1089 101.157 84.1089 101.157C84.1089 101.157 91.4272 104.327 92.1152 98.6716C92.8039 93.0159 85.3561 93.1685 85.3561 93.1685C85.3561 93.1685 88.9903 88.3144 86.1277 86.8164C83.265 85.3183 81.3563 88.7582 81.3563 88.7582Z" fill="#FEFFFA"/>
<path d="M81.3563 88.7582C81.3563 88.7582 76.3896 87.8869 73.5677 91.2996C71.969 93.233 71.7413 96.0452 73.0592 98.1804C73.3415 98.6383 73.6905 99.0163 74.1188 99.2085C74.1188 99.2085 72.9721 108.787 79.7291 108.766C87.5849 108.741 84.1089 101.157 84.1089 101.157C84.1089 101.157 91.4272 104.327 92.1152 98.6716C92.8039 93.0159 85.3561 93.1685 85.3561 93.1685C85.3561 93.1685 88.9903 88.3144 86.1277 86.8164C83.265 85.3183 81.3563 88.7582 81.3563 88.7582Z" stroke="#2E1E00" stroke-width="2" stroke-miterlimit="10" stroke-linecap="round" stroke-linejoin="round"/>
<path d="M202.724 209.803C202.724 209.803 199.695 213.834 201.457 217.897C202.455 220.198 204.858 221.677 207.358 221.47C207.894 221.427 208.39 221.287 208.755 220.992C208.755 220.992 216.772 226.358 219.817 220.327C223.358 213.314 215.023 212.972 215.023 212.972C215.023 212.972 221.167 207.888 216.439 204.71C211.71 201.531 208.469 208.238 208.469 208.238C208.469 208.238 205.791 202.797 203.157 204.669C200.524 206.541 202.724 209.803 202.724 209.803Z" fill="#FEFFFA"/>
<path d="M202.724 209.803C202.724 209.803 199.695 213.834 201.457 217.897C202.455 220.198 204.858 221.677 207.358 221.47C207.894 221.427 208.39 221.287 208.755 220.992C208.755 220.992 216.772 226.358 219.817 220.327C223.358 213.314 215.023 212.972 215.023 212.972C215.023 212.972 221.167 207.888 216.439 204.71C211.71 201.531 208.469 208.238 208.469 208.238C208.469 208.238 205.791 202.797 203.157 204.669C200.524 206.541 202.724 209.803 202.724 209.803Z" stroke="#2E1E00" stroke-width="2" stroke-miterlimit="10" stroke-linecap="round" stroke-linejoin="round"/>
<path d="M14.6525 125.055C14.6525 125.055 17.9568 122.387 15.8914 119.267C13.8264 116.148 11.8441 119.849 11.8441 119.849C11.8441 119.849 9.98665 117.364 8.04715 118.802C6.10793 120.24 7.96484 122.845 7.96484 122.845C7.96484 122.845 3.72228 124.625 5.83851 127.372C7.95504 130.119 10.3267 126.932 10.3267 126.932C10.3267 126.932 12.8454 129.844 14.2419 128.403C15.6377 126.962 14.6525 125.055 14.6525 125.055Z" fill="#FEFFFA"/>
<path d="M14.6525 125.055C14.6525 125.055 17.9568 122.387 15.8914 119.267C13.8264 116.148 11.8441 119.849 11.8441 119.849C11.8441 119.849 9.98665 117.364 8.04715 118.802C6.10793 120.24 7.96484 122.845 7.96484 122.845C7.96484 122.845 3.72228 124.625 5.83851 127.372C7.95504 130.119 10.3267 126.932 10.3267 126.932C10.3267 126.932 12.8454 129.844 14.2419 128.403C15.6377 126.962 14.6525 125.055 14.6525 125.055Z" stroke="#2E1E00" stroke-width="2" stroke-miterlimit="10" stroke-linecap="round" stroke-linejoin="round"/>
<path d="M281.705 102.79C281.705 102.79 282.353 98.5928 278.726 97.6753C275.098 96.7581 276.123 100.829 276.123 100.829C276.123 100.829 273.077 100.242 272.611 102.611C272.144 104.979 275.271 105.657 275.271 105.657C275.271 105.657 273.332 109.829 276.745 110.436C280.159 111.043 279.769 107.09 279.769 107.09C279.769 107.09 283.591 107.547 283.654 105.542C283.716 103.536 281.705 102.79 281.705 102.79Z" fill="#FEFFFA"/>
<path d="M281.705 102.79C281.705 102.79 282.353 98.5928 278.726 97.6753C275.098 96.7581 276.123 100.829 276.123 100.829C276.123 100.829 273.077 100.242 272.611 102.611C272.144 104.979 275.271 105.657 275.271 105.657C275.271 105.657 273.332 109.829 276.745 110.436C280.159 111.043 279.769 107.09 279.769 107.09C279.769 107.09 283.591 107.547 283.654 105.542C283.716 103.536 281.705 102.79 281.705 102.79Z" stroke="#2E1E00" stroke-width="2" stroke-miterlimit="10" stroke-linecap="round" stroke-linejoin="round"/>
<path d="M32.0988 223.124C32.0988 223.124 35.9667 229.009 41.4498 226.106C46.9331 223.203 41.1457 219.332 41.1457 219.332C41.1457 219.332 45.5476 216.669 43.4884 213.236C41.4293 209.802 36.8285 212.445 36.8285 212.445C36.8285 212.445 34.5777 205.155 29.7026 208.203C24.8271 211.251 29.7007 215.68 29.7007 215.68C29.7007 215.68 24.4884 219.367 26.6407 221.904C28.7926 224.441 32.0988 223.124 32.0988 223.124Z" fill="#FEFFFA"/>
<path d="M32.0988 223.124C32.0988 223.124 35.9667 229.009 41.4498 226.106C46.9331 223.203 41.1457 219.332 41.1457 219.332C41.1457 219.332 45.5476 216.669 43.4884 213.236C41.4293 209.802 36.8285 212.445 36.8285 212.445C36.8285 212.445 34.5777 205.155 29.7026 208.203C24.8271 211.251 29.7007 215.68 29.7007 215.68C29.7007 215.68 24.4884 219.367 26.6407 221.904C28.7926 224.441 32.0988 223.124 32.0988 223.124Z" stroke="#2E1E00" stroke-width="2" stroke-miterlimit="10" stroke-linecap="round" stroke-linejoin="round"/>
<path d="M342.576 24.0125C342.576 24.0125 346.444 29.8978 351.927 26.9943C357.41 24.0913 351.623 20.221 351.623 20.221C351.623 20.221 356.025 17.558 353.965 14.1245C351.906 10.6909 347.306 13.3336 347.306 13.3336C347.306 13.3336 345.055 6.04369 340.18 9.09143C335.304 12.1395 340.178 16.5689 340.178 16.5689C340.178 16.5689 334.965 20.2553 337.118 22.7928C339.27 25.3295 342.576 24.0125 342.576 24.0125Z" fill="#FEFFFA"/>
<path d="M342.576 24.0125C342.576 24.0125 346.444 29.8978 351.927 26.9943C357.41 24.0913 351.623 20.221 351.623 20.221C351.623 20.221 356.025 17.558 353.965 14.1245C351.906 10.6909 347.306 13.3336 347.306 13.3336C347.306 13.3336 345.055 6.04369 340.18 9.09143C335.304 12.1395 340.178 16.5689 340.178 16.5689C340.178 16.5689 334.965 20.2553 337.118 22.7928C339.27 25.3295 342.576 24.0125 342.576 24.0125Z" stroke="#2E1E00" stroke-width="2" stroke-miterlimit="10" stroke-linecap="round" stroke-linejoin="round"/>
<path d="M710.837 651.703C710.837 651.703 709.064 654.77 710.634 657.455C711.524 658.976 713.324 659.805 715.051 659.451C715.421 659.375 715.754 659.236 715.984 659.001C715.984 659.001 722.027 662.069 723.644 657.606C725.524 652.417 719.681 652.879 719.681 652.879C719.681 652.879 723.539 648.818 719.974 646.998C716.409 645.179 714.712 650.129 714.712 650.129C714.712 650.129 712.387 646.56 710.708 648.087C709.029 649.614 710.837 651.703 710.837 651.703Z" fill="#FEFFFA"/>
<path d="M710.837 651.703C710.837 651.703 709.064 654.77 710.634 657.455C711.524 658.976 713.324 659.805 715.051 659.451C715.421 659.375 715.754 659.236 715.984 659.001C715.984 659.001 722.027 662.069 723.644 657.606C725.524 652.417 719.681 652.879 719.681 652.879C719.681 652.879 723.539 648.818 719.974 646.998C716.409 645.179 714.712 650.129 714.712 650.129C714.712 650.129 712.387 646.56 710.708 648.087C709.029 649.614 710.837 651.703 710.837 651.703Z" stroke="#2E1E00" stroke-width="2" stroke-miterlimit="10" stroke-linecap="round" stroke-linejoin="round"/>
<path d="M647.861 646.128C647.861 646.128 646.088 649.194 647.658 651.879C648.548 653.401 650.348 654.229 652.075 653.876C652.445 653.8 652.778 653.661 653.009 653.425C653.009 653.425 659.051 656.494 660.668 652.03C662.548 646.841 656.705 647.304 656.705 647.304C656.705 647.304 660.563 643.242 656.998 641.423C653.433 639.604 651.737 644.553 651.737 644.553C651.737 644.553 649.411 640.984 647.732 642.511C646.053 644.038 647.861 646.128 647.861 646.128Z" fill="#FEFFFA"/>
<path d="M647.861 646.128C647.861 646.128 646.088 649.194 647.658 651.879C648.548 653.401 650.348 654.229 652.075 653.876C652.445 653.8 652.778 653.661 653.009 653.425C653.009 653.425 659.051 656.494 660.668 652.03C662.548 646.841 656.705 647.304 656.705 647.304C656.705 647.304 660.563 643.242 656.998 641.423C653.433 639.604 651.737 644.553 651.737 644.553C651.737 644.553 649.411 640.984 647.732 642.511C646.053 644.038 647.861 646.128 647.861 646.128Z" stroke="#2E1E00" stroke-width="2" stroke-miterlimit="10" stroke-linecap="round" stroke-linejoin="round"/>
<path d="M763.174 637.282C763.174 637.282 761.401 640.348 762.971 643.034C763.861 644.554 765.661 645.383 767.388 645.03C767.758 644.954 768.091 644.815 768.322 644.579C768.322 644.579 774.364 647.647 775.981 643.184C777.861 637.996 772.018 638.458 772.018 638.458C772.018 638.458 775.876 634.396 772.311 632.577C768.746 630.758 767.049 635.708 767.049 635.708C767.049 635.708 764.724 632.138 763.045 633.666C761.366 635.193 763.174 637.282 763.174 637.282Z" fill="#FEFFFA"/>
<path d="M763.174 637.282C763.174 637.282 761.401 640.348 762.971 643.034C763.861 644.554 765.661 645.383 767.388 645.03C767.758 644.954 768.091 644.815 768.322 644.579C768.322 644.579 774.364 647.647 775.981 643.184C777.861 637.996 772.018 638.458 772.018 638.458C772.018 638.458 775.876 634.396 772.311 632.577C768.746 630.758 767.049 635.708 767.049 635.708C767.049 635.708 764.724 632.138 763.045 633.666C761.366 635.193 763.174 637.282 763.174 637.282Z" stroke="#2E1E00" stroke-width="2" stroke-miterlimit="10" stroke-linecap="round" stroke-linejoin="round"/>
<path d="M636.955 634.068C636.955 634.068 629.686 633.334 628.437 639.649C627.189 645.963 634.091 643.834 634.091 643.834C634.091 643.834 633.357 649.121 637.469 649.709C641.581 650.296 642.462 644.862 642.462 644.862C642.462 644.862 649.805 647.818 650.539 641.898C651.274 635.978 644.518 637.005 644.518 637.005C644.518 637.005 644.958 630.397 641.508 630.471C638.056 630.544 636.955 634.068 636.955 634.068Z" fill="#FEFFFA"/>
<path d="M636.955 634.068C636.955 634.068 629.686 633.334 628.437 639.649C627.189 645.963 634.091 643.834 634.091 643.834C634.091 643.834 633.357 649.121 637.469 649.709C641.581 650.296 642.462 644.862 642.462 644.862C642.462 644.862 649.805 647.818 650.539 641.898C651.274 635.978 644.518 637.005 644.518 637.005C644.518 637.005 644.958 630.397 641.508 630.471C638.056 630.544 636.955 634.068 636.955 634.068Z" stroke="#2E1E00" stroke-width="2" stroke-miterlimit="10" stroke-linecap="round" stroke-linejoin="round"/>
<path d="M620.827 633.348C620.827 633.348 619.77 628.225 615.401 626.805C612.926 626.001 610.126 626.855 608.569 628.942C608.236 629.39 608.004 629.87 607.982 630.357C607.982 630.357 598.304 632.908 600.905 639.419C603.928 646.988 609.918 640.739 609.918 640.739C609.918 640.739 609.654 649.009 615.373 647.513C621.091 646.017 618.1 638.891 618.1 638.891C618.1 638.891 624.17 640.544 624.522 637.21C624.874 633.876 620.827 633.348 620.827 633.348Z" fill="#FEFFFA"/>
<path d="M620.827 633.348C620.827 633.348 619.77 628.225 615.401 626.805C612.926 626.001 610.126 626.855 608.569 628.942C608.236 629.39 608.004 629.87 607.982 630.357C607.982 630.357 598.304 632.908 600.905 639.419C603.928 646.988 609.918 640.739 609.918 640.739C609.918 640.739 609.654 649.009 615.373 647.513C621.091 646.017 618.1 638.891 618.1 638.891C618.1 638.891 624.17 640.544 624.522 637.21C624.874 633.876 620.827 633.348 620.827 633.348Z" stroke="#2E1E00" stroke-width="2" stroke-miterlimit="10" stroke-linecap="round" stroke-linejoin="round"/>
<path d="M728.427 643.322C728.427 643.322 724.723 647.016 725.933 651.447C726.62 653.958 728.87 655.831 731.468 655.987C732.026 656.021 732.555 655.95 732.973 655.702C732.973 655.702 740.416 662.393 744.432 656.646C749.102 649.966 740.591 648.387 740.591 648.387C740.591 648.387 747.65 644.07 743.262 640.11C738.874 636.15 734.557 642.56 734.557 642.56C734.557 642.56 732.608 636.578 729.628 638.113C726.648 639.648 728.427 643.322 728.427 643.322Z" fill="#FEFFFA"/>
<path d="M728.427 643.322C728.427 643.322 724.723 647.016 725.933 651.447C726.62 653.958 728.87 655.831 731.468 655.987C732.026 656.021 732.555 655.95 732.973 655.702C732.973 655.702 740.416 662.393 744.432 656.646C749.102 649.966 740.591 648.387 740.591 648.387C740.591 648.387 747.65 644.07 743.262 640.11C738.874 636.15 734.557 642.56 734.557 642.56C734.557 642.56 732.608 636.578 729.628 638.113C726.648 639.648 728.427 643.322 728.427 643.322Z" stroke="#2E1E00" stroke-width="2" stroke-miterlimit="10" stroke-linecap="round" stroke-linejoin="round"/>
<path d="M551.222 634.384C551.222 634.384 547.518 638.079 548.728 642.51C549.415 645.021 551.665 646.893 554.263 647.049C554.821 647.084 555.35 647.013 555.768 646.764C555.768 646.764 563.211 653.456 567.227 647.71C571.897 641.029 563.386 639.45 563.386 639.45C563.386 639.45 570.445 635.133 566.057 631.173C561.669 627.213 557.352 633.623 557.352 633.623C557.352 633.623 555.403 627.641 552.423 629.176C549.443 630.711 551.222 634.384 551.222 634.384Z" fill="#FEFFFA"/>
<path d="M551.222 634.384C551.222 634.384 547.518 638.079 548.728 642.51C549.415 645.021 551.665 646.893 554.263 647.049C554.821 647.084 555.35 647.013 555.768 646.764C555.768 646.764 563.211 653.456 567.227 647.71C571.897 641.029 563.386 639.45 563.386 639.45C563.386 639.45 570.445 635.133 566.057 631.173C561.669 627.213 557.352 633.623 557.352 633.623C557.352 633.623 555.403 627.641 552.423 629.176C549.443 630.711 551.222 634.384 551.222 634.384Z" stroke="#2E1E00" stroke-width="2" stroke-miterlimit="10" stroke-linecap="round" stroke-linejoin="round"/>
<path d="M710.349 636C710.349 636 708.248 640.792 710.993 644.476C712.549 646.563 715.327 647.484 717.803 646.682C718.335 646.51 718.801 646.251 719.1 645.867C719.1 645.867 728.472 649.379 730.114 642.564C732.022 634.64 723.523 636.277 723.523 636.277C723.523 636.277 728.519 629.682 722.988 627.596C717.458 625.51 715.779 633.054 715.779 633.054C715.779 633.054 711.78 628.197 709.566 630.714C707.352 633.229 710.349 636 710.349 636Z" fill="#FEFFFA"/>
<path d="M710.349 636C710.349 636 708.248 640.792 710.993 644.476C712.549 646.563 715.327 647.484 717.803 646.682C718.335 646.51 718.801 646.251 719.1 645.867C719.1 645.867 728.472 649.379 730.114 642.564C732.022 634.64 723.523 636.277 723.523 636.277C723.523 636.277 728.519 629.682 722.988 627.596C717.458 625.51 715.779 633.054 715.779 633.054C715.779 633.054 711.78 628.197 709.566 630.714C707.352 633.229 710.349 636 710.349 636Z" stroke="#2E1E00" stroke-width="2" stroke-miterlimit="10" stroke-linecap="round" stroke-linejoin="round"/>
<path d="M702.049 647.917C702.049 647.917 697.665 647.474 696.912 651.283C696.159 655.091 700.322 653.807 700.322 653.807C700.322 653.807 699.879 656.995 702.359 657.349C704.838 657.702 705.37 654.426 705.37 654.426C705.37 654.426 709.797 656.209 710.24 652.638C710.683 649.068 706.609 649.688 706.609 649.688C706.609 649.688 706.875 645.703 704.794 645.747C702.712 645.791 702.049 647.917 702.049 647.917Z" fill="#FEFFFA"/>
<path d="M702.049 647.917C702.049 647.917 697.665 647.474 696.912 651.283C696.159 655.091 700.322 653.807 700.322 653.807C700.322 653.807 699.879 656.995 702.359 657.349C704.838 657.702 705.37 654.426 705.37 654.426C705.37 654.426 709.797 656.209 710.24 652.638C710.683 649.068 706.609 649.688 706.609 649.688C706.609 649.688 706.875 645.703 704.794 645.747C702.712 645.791 702.049 647.917 702.049 647.917Z" stroke="#2E1E00" stroke-width="2" stroke-miterlimit="10" stroke-linecap="round" stroke-linejoin="round"/>
<path d="M732.453 636.315C732.453 636.315 728.069 635.872 727.316 639.681C726.563 643.489 730.726 642.205 730.726 642.205C730.726 642.205 730.283 645.393 732.763 645.747C735.242 646.1 735.774 642.824 735.774 642.824C735.774 642.824 740.202 644.607 740.644 641.036C741.088 637.466 737.014 638.086 737.014 638.086C737.014 638.086 737.279 634.101 735.198 634.145C733.117 634.189 732.453 636.315 732.453 636.315Z" fill="#FEFFFA"/>
<path d="M732.453 636.315C732.453 636.315 728.069 635.872 727.316 639.681C726.563 643.489 730.726 642.205 730.726 642.205C730.726 642.205 730.283 645.393 732.763 645.747C735.242 646.1 735.774 642.824 735.774 642.824C735.774 642.824 740.202 644.607 740.644 641.036C741.088 637.466 737.014 638.086 737.014 638.086C737.014 638.086 737.279 634.101 735.198 634.145C733.117 634.189 732.453 636.315 732.453 636.315Z" stroke="#2E1E00" stroke-width="2" stroke-miterlimit="10" stroke-linecap="round" stroke-linejoin="round"/>
<path d="M697.836 634.569C699.849 634.892 701.218 636.787 700.895 638.8C700.603 640.603 699.053 641.89 697.286 641.907C697.385 642.346 697.401 642.817 697.325 643.288C697.002 645.301 695.107 646.671 693.094 646.347C691.907 646.156 690.944 645.419 690.421 644.431C690.247 644.634 690.044 644.818 689.817 644.981C688.165 646.176 685.854 645.804 684.659 644.152C683.465 642.499 683.838 640.192 685.49 638.997C685.783 638.785 686.099 638.621 686.422 638.509C684.515 638.101 683.24 636.26 683.553 634.311C683.877 632.299 685.771 630.929 687.784 631.253C688.658 631.39 689.411 631.827 689.957 632.441C690.33 630.493 692.193 629.179 694.169 629.496C696.184 629.823 697.553 631.718 697.23 633.73C697.185 634.01 697.109 634.28 697.004 634.533C697.276 634.512 697.556 634.524 697.836 634.569Z" fill="#FEFFFA"/>
<path d="M697.836 634.569C699.849 634.892 701.218 636.787 700.895 638.8C700.603 640.603 699.053 641.89 697.286 641.907C697.385 642.346 697.401 642.817 697.325 643.288C697.002 645.301 695.107 646.671 693.094 646.347C691.907 646.156 690.944 645.419 690.421 644.431C690.247 644.634 690.044 644.818 689.817 644.981C688.165 646.176 685.854 645.804 684.659 644.152C683.465 642.499 683.838 640.192 685.49 638.997C685.783 638.785 686.099 638.621 686.422 638.509C684.515 638.101 683.24 636.26 683.553 634.311C683.877 632.299 685.771 630.929 687.784 631.253C688.658 631.39 689.411 631.827 689.957 632.441C690.33 630.493 692.193 629.179 694.169 629.496C696.184 629.823 697.553 631.718 697.23 633.73C697.185 634.01 697.109 634.28 697.004 634.533C697.276 634.512 697.556 634.524 697.836 634.569Z" stroke="#2E1E00" stroke-width="2" stroke-miterlimit="10" stroke-linecap="round" stroke-linejoin="round"/>
<path d="M678.24 658.086C678.24 658.086 686.886 658.017 687.544 650.427C688.201 642.838 680.355 646.229 680.355 646.229C680.355 646.229 680.539 639.915 675.626 639.752C670.713 639.59 670.374 646.095 670.374 646.095C670.374 646.095 661.357 643.561 661.253 650.62C661.149 657.679 668.965 655.602 668.965 655.602C668.965 655.602 669.295 663.432 673.346 662.903C677.396 662.374 678.24 658.086 678.24 658.086Z" fill="#FEFFFA"/>
<path d="M678.24 658.086C678.24 658.086 686.886 658.017 687.544 650.427C688.201 642.838 680.355 646.229 680.355 646.229C680.355 646.229 680.539 639.915 675.626 639.752C670.713 639.59 670.374 646.095 670.374 646.095C670.374 646.095 661.357 643.561 661.253 650.62C661.149 657.679 668.965 655.602 668.965 655.602C668.965 655.602 669.295 663.432 673.346 662.903C677.396 662.374 678.24 658.086 678.24 658.086Z" stroke="#2E1E00" stroke-width="2" stroke-miterlimit="10" stroke-linecap="round" stroke-linejoin="round"/>
<path d="M628.542 646.648C628.542 646.648 635.848 646.589 636.404 640.176C636.96 633.764 630.329 636.63 630.329 636.63C630.329 636.63 630.486 631.293 626.334 631.157C622.182 631.019 621.896 636.516 621.896 636.516C621.896 636.516 614.276 634.375 614.188 640.34C614.101 646.305 620.705 644.55 620.705 644.55C620.705 644.55 620.984 651.167 624.407 650.72C627.83 650.271 628.542 646.648 628.542 646.648Z" fill="#FEFFFA"/>
<path d="M628.542 646.648C628.542 646.648 635.848 646.589 636.404 640.176C636.96 633.764 630.329 636.63 630.329 636.63C630.329 636.63 630.486 631.293 626.334 631.157C622.182 631.019 621.896 636.516 621.896 636.516C621.896 636.516 614.276 634.375 614.188 640.34C614.101 646.305 620.705 644.55 620.705 644.55C620.705 644.55 620.984 651.167 624.407 650.72C627.83 650.271 628.542 646.648 628.542 646.648Z" stroke="#2E1E00" stroke-width="2" stroke-miterlimit="10" stroke-linecap="round" stroke-linejoin="round"/>
<path d="M656.494 637.282C656.494 637.282 654.72 640.348 656.291 643.034C657.181 644.554 658.98 645.383 660.707 645.03C661.078 644.954 661.411 644.815 661.641 644.579C661.641 644.579 667.684 647.647 669.301 643.184C671.18 637.996 665.338 638.458 665.338 638.458C665.338 638.458 669.196 634.396 665.631 632.577C662.066 630.758 660.369 635.708 660.369 635.708C660.369 635.708 658.044 632.138 656.365 633.666C654.685 635.193 656.494 637.282 656.494 637.282Z" fill="#FEFFFA"/>
<path d="M656.494 637.282C656.494 637.282 654.72 640.348 656.291 643.034C657.181 644.554 658.98 645.383 660.707 645.03C661.078 644.954 661.411 644.815 661.641 644.579C661.641 644.579 667.684 647.647 669.301 643.184C671.18 637.996 665.338 638.458 665.338 638.458C665.338 638.458 669.196 634.396 665.631 632.577C662.066 630.758 660.369 635.708 660.369 635.708C660.369 635.708 658.044 632.138 656.365 633.666C654.685 635.193 656.494 637.282 656.494 637.282Z" stroke="#2E1E00" stroke-width="2" stroke-miterlimit="10" stroke-linecap="round" stroke-linejoin="round"/>
<path d="M644.274 657.235C644.274 657.235 651.58 657.176 652.136 650.763C652.692 644.35 646.061 647.216 646.061 647.216C646.061 647.216 646.217 641.88 642.066 641.743C637.914 641.605 637.628 647.102 637.628 647.102C637.628 647.102 630.008 644.961 629.92 650.926C629.833 656.891 636.437 655.136 636.437 655.136C636.437 655.136 636.716 661.753 640.139 661.306C643.562 660.858 644.274 657.235 644.274 657.235Z" fill="#FEFFFA"/>
<path d="M644.274 657.235C644.274 657.235 651.58 657.176 652.136 650.763C652.692 644.35 646.061 647.216 646.061 647.216C646.061 647.216 646.217 641.88 642.066 641.743C637.914 641.605 637.628 647.102 637.628 647.102C637.628 647.102 630.008 644.961 629.92 650.926C629.833 656.891 636.437 655.136 636.437 655.136C636.437 655.136 636.716 661.753 640.139 661.306C643.562 660.858 644.274 657.235 644.274 657.235Z" stroke="#2E1E00" stroke-width="2" stroke-miterlimit="10" stroke-linecap="round" stroke-linejoin="round"/>
<path d="M751.775 642.801C751.775 642.801 759.081 642.742 759.637 636.33C760.193 629.916 753.562 632.783 753.562 632.783C753.562 632.783 753.718 627.447 749.567 627.309C745.415 627.172 745.129 632.669 745.129 632.669C745.129 632.669 737.509 630.528 737.421 636.493C737.334 642.458 743.938 640.703 743.938 640.703C743.938 640.703 744.217 647.32 747.64 646.872C751.063 646.424 751.775 642.801 751.775 642.801Z" fill="#FEFFFA"/>
<path d="M751.775 642.801C751.775 642.801 759.081 642.742 759.637 636.33C760.193 629.916 753.562 632.783 753.562 632.783C753.562 632.783 753.718 627.447 749.567 627.309C745.415 627.172 745.129 632.669 745.129 632.669C745.129 632.669 737.509 630.528 737.421 636.493C737.334 642.458 743.938 640.703 743.938 640.703C743.938 640.703 744.217 647.32 747.64 646.872C751.063 646.424 751.775 642.801 751.775 642.801Z" stroke="#2E1E00" stroke-width="2" stroke-miterlimit="10" stroke-linecap="round" stroke-linejoin="round"/>
</svg>
