<svg width="617" height="552" viewBox="0 0 617 552" fill="none" xmlns="http://www.w3.org/2000/svg">
<path d="M64.1464 466.244C63.7783 468.405 61.7268 469.859 59.5666 469.489C57.6297 469.156 56.2629 467.477 56.2629 465.578C55.7893 465.679 55.2838 465.692 54.7763 465.605C52.616 465.236 51.1626 463.186 51.5313 461.025C51.7496 459.75 52.5521 458.722 53.6192 458.17C53.403 457.981 53.2075 457.76 53.0349 457.515C51.7671 455.726 52.1906 453.245 53.9795 451.978C55.7678 450.711 58.2466 451.136 59.5138 452.925C59.7385 453.241 59.9099 453.583 60.0278 453.932C60.4858 451.884 62.4799 450.533 64.5718 450.89C66.7314 451.258 68.1855 453.311 67.8161 455.471C67.6585 456.408 67.1823 457.214 66.5158 457.794C68.6064 458.216 70.0005 460.232 69.6383 462.354C69.2669 464.516 67.2155 465.969 65.0552 465.601C64.7549 465.549 64.4656 465.464 64.194 465.35C64.2142 465.643 64.1979 465.944 64.1464 466.244Z" fill="#FEFFFA"/>
<path d="M64.1464 466.244C63.7783 468.405 61.7268 469.859 59.5666 469.489C57.6297 469.156 56.2629 467.477 56.2629 465.578C55.7893 465.679 55.2838 465.692 54.7763 465.605C52.616 465.236 51.1626 463.186 51.5313 461.025C51.7496 459.75 52.5521 458.722 53.6192 458.17C53.403 457.981 53.2075 457.76 53.0349 457.515C51.7671 455.726 52.1906 453.245 53.9795 451.978C55.7678 450.711 58.2466 451.136 59.5137 452.925C59.7385 453.241 59.9099 453.583 60.0278 453.932C60.4858 451.884 62.4799 450.533 64.5718 450.89C66.7314 451.258 68.1855 453.311 67.8161 455.471C67.6585 456.408 67.1823 457.214 66.5158 457.794C68.6064 458.216 70.0005 460.232 69.6383 462.354C69.2669 464.516 67.2155 465.969 65.0552 465.601C64.7549 465.549 64.4656 465.464 64.194 465.35C64.2142 465.643 64.1979 465.944 64.1464 466.244Z" stroke="#2E1E00" stroke-width="2" stroke-miterlimit="10" stroke-linecap="round" stroke-linejoin="round"/>
<path d="M152.168 521.711C152.168 521.711 150.261 525.008 151.949 527.895C152.906 529.531 154.841 530.422 156.698 530.042C157.096 529.96 157.455 529.811 157.702 529.556C157.702 529.556 164.2 532.855 165.938 528.057C167.959 522.479 161.678 522.975 161.678 522.975C161.678 522.975 165.826 518.607 161.992 516.651C158.158 514.696 156.334 520.018 156.334 520.018C156.334 520.018 153.834 516.18 152.028 517.822C150.223 519.464 152.168 521.711 152.168 521.711Z" fill="#FEFFFA"/>
<path d="M152.168 521.711C152.168 521.711 150.261 525.008 151.949 527.895C152.906 529.531 154.841 530.422 156.698 530.042C157.096 529.96 157.455 529.811 157.702 529.556C157.702 529.556 164.2 532.855 165.938 528.057C167.959 522.479 161.678 522.975 161.678 522.975C161.678 522.975 165.826 518.607 161.992 516.651C158.158 514.696 156.334 520.018 156.334 520.018C156.334 520.018 153.834 516.18 152.028 517.822C150.223 519.464 152.168 521.711 152.168 521.711Z" stroke="#2E1E00" stroke-width="2" stroke-miterlimit="10" stroke-linecap="round" stroke-linejoin="round"/>
<path d="M181.544 12.0086C182.353 14.679 184.105 16.8751 186.998 17.8263C191.725 19.38 196.131 16.7644 194.802 13.7037C193.475 10.6438 191.28 11.0073 191.28 11.0073C191.28 11.0073 195.116 9.48741 193.704 6.61702C192.292 3.74664 189.211 5.37337 189.211 5.37337C189.211 5.37337 190.195 0.514041 185.64 1.03978C181.744 1.48929 180.806 6.01181 181.045 9.25549C181.116 10.2066 181.28 11.1337 181.544 12.0086Z" fill="#FEFFFA"/>
<path d="M181.544 12.0086C182.353 14.679 184.105 16.8751 186.998 17.8263C191.725 19.38 196.131 16.7644 194.802 13.7037C193.475 10.6438 191.28 11.0073 191.28 11.0073C191.28 11.0073 195.116 9.48741 193.704 6.61702C192.292 3.74664 189.211 5.37337 189.211 5.37337C189.211 5.37337 190.195 0.514041 185.64 1.03978C181.744 1.48929 180.806 6.01181 181.045 9.25549C181.116 10.2066 181.28 11.1337 181.544 12.0086Z" stroke="#2E1E00" stroke-width="2" stroke-miterlimit="10" stroke-linecap="round" stroke-linejoin="round"/>
<path d="M17.6724 404.095C19.3108 401.836 20.0021 399.114 19.0118 396.234C17.3929 391.529 12.6463 389.601 11.0105 392.507C9.37461 395.414 10.9915 396.943 10.9915 396.943C10.9915 396.943 7.46189 394.805 6.02931 397.666C4.59607 400.526 7.7531 401.995 7.7531 401.995C7.7531 401.995 3.28787 404.149 6.45858 407.461C9.17131 410.293 13.3414 408.308 15.7825 406.157C16.4958 405.526 17.1349 404.836 17.6724 404.095Z" fill="#FEFFFA"/>
<path d="M17.6724 404.095C19.3108 401.836 20.0021 399.114 19.0118 396.234C17.3929 391.529 12.6463 389.601 11.0105 392.507C9.37461 395.414 10.9915 396.943 10.9915 396.943C10.9915 396.943 7.46189 394.805 6.02931 397.666C4.59607 400.526 7.7531 401.995 7.7531 401.995C7.7531 401.995 3.28787 404.149 6.45858 407.461C9.17131 410.293 13.3414 408.308 15.7825 406.157C16.4958 405.526 17.1349 404.836 17.6724 404.095Z" stroke="#2E1E00" stroke-width="2" stroke-miterlimit="10" stroke-linecap="round" stroke-linejoin="round"/>
<path d="M268.429 475.341C266.995 496.299 195.776 472.605 170.063 457.249C143.861 441.595 147.47 397.418 147.47 397.418L135.945 394.304C135.945 394.304 139.092 533.211 113.861 524.312C95.9519 517.993 101.476 448.142 101.476 448.142L109.144 346.564L110.558 327.828L111.698 306.701L112.643 289.234C112.643 289.234 111.392 256.328 117.841 209.227L127.997 227.618C127.997 227.618 145.633 219.364 164.05 227.051L180.305 207.162C182.565 236.067 183.243 264.954 183.991 293.925L187.568 431.737C187.567 431.738 269.789 455.529 268.429 475.341Z" fill="#ADF0E7"/>
<path d="M268.429 475.341C266.995 496.299 195.776 472.605 170.063 457.249C143.861 441.595 147.47 397.418 147.47 397.418L135.945 394.304C135.945 394.304 139.092 533.211 113.861 524.312C95.9519 517.993 101.476 448.142 101.476 448.142L109.144 346.564L110.558 327.828L111.698 306.701L112.643 289.234C112.643 289.234 111.392 256.328 117.841 209.227L127.997 227.618C127.997 227.618 145.633 219.364 164.05 227.051L180.305 207.162C182.565 236.067 183.243 264.954 183.991 293.925L187.568 431.737C187.567 431.738 269.789 455.529 268.429 475.341Z" stroke="#2E1E00" stroke-width="2" stroke-miterlimit="10" stroke-linecap="round" stroke-linejoin="round"/>
<path d="M157.147 396.53C157.147 396.53 141.736 399.546 132.156 391.135" stroke="#2E1E00" stroke-width="2" stroke-miterlimit="10" stroke-linecap="round" stroke-linejoin="round"/>
<path d="M140.869 258.868C140.869 258.868 139.384 267.745 130.845 266.981" stroke="#2E1E00" stroke-width="2" stroke-miterlimit="10" stroke-linecap="round" stroke-linejoin="round"/>
<path d="M125.126 254.57C123.59 256.026 123.525 258.452 124.981 259.988C126.437 261.524 128.863 261.59 130.399 260.133C131.935 258.677 132 256.251 130.544 254.715C129.088 253.178 126.662 253.114 125.126 254.57Z" fill="#2E1E00"/>
<path d="M138.621 249.284C137.732 250.127 137.694 251.53 138.537 252.419C139.38 253.307 140.782 253.346 141.672 252.503C142.561 251.661 142.597 250.258 141.755 249.369C140.912 248.48 139.509 248.442 138.621 249.284Z" fill="#2E1E00"/>
<path d="M140.449 237.716C139.276 239.372 140.815 242.479 143.886 244.655C146.957 246.831 150.398 247.251 151.572 245.595C152.745 243.939 151.207 240.832 148.136 238.656C145.064 236.48 141.623 236.059 140.449 237.716Z" fill="#2E1E00"/>
<path d="M121.537 249.284C122.425 250.127 122.464 251.53 121.621 252.419C120.778 253.307 119.375 253.346 118.486 252.503C117.598 251.661 117.561 250.258 118.403 249.369C119.245 248.48 120.649 248.442 121.537 249.284Z" fill="#2E1E00"/>
<path d="M119.707 237.716C120.88 239.372 119.342 242.479 116.271 244.655C113.2 246.831 109.759 247.251 108.585 245.595C107.411 243.939 108.95 240.832 112.021 238.656C115.092 236.48 118.535 236.059 119.707 237.716Z" fill="#2E1E00"/>
<path d="M183.872 289.233C183.872 289.233 139.267 303.406 112.644 285.734" stroke="#FEFFFA" stroke-width="2" stroke-miterlimit="10" stroke-linecap="round" stroke-linejoin="round"/>
<path d="M131.199 301.607L131.375 293.923" stroke="#FEFFFA" stroke-width="2" stroke-miterlimit="10" stroke-linecap="round" stroke-linejoin="round"/>
<path d="M89.6823 450.193L141.322 448.659L136.098 524.721H75.3747C75.3747 524.721 62.054 500.559 94.1051 496.566L89.6823 450.193Z" fill="#F9A058"/>
<path d="M89.6823 450.193L141.322 448.659L136.098 524.721H75.3747C75.3747 524.721 62.054 500.559 94.1051 496.566L89.6823 450.193Z" stroke="#2E1E00" stroke-width="2" stroke-miterlimit="10" stroke-linecap="round" stroke-linejoin="round"/>
<path d="M193.667 482.051L208.825 432.662L279.164 462.074L259.632 519.57C259.632 519.57 232.47 524.411 238.999 492.779L193.667 482.051Z" fill="#F9A058"/>
<path d="M193.667 482.051L208.825 432.662L279.164 462.074L259.632 519.57C259.632 519.57 232.47 524.411 238.999 492.779L193.667 482.051Z" stroke="#2E1E00" stroke-width="2" stroke-miterlimit="10" stroke-linecap="round" stroke-linejoin="round"/>
<path d="M112.644 287.365L111.504 308.492L110.09 327.229C109.615 326.844 109.256 326.551 109.093 326.395C104.142 321.659 99.1912 316.922 94.2465 312.186C84.52 302.883 74.7935 293.574 65.067 284.264C55.8161 275.41 45.9333 267.182 37.3209 257.677C32.6498 252.524 22.2452 241.13 28.3631 233.775C32.6563 228.622 39.4772 230.088 44.4212 232.198C51.2356 235.117 56.5581 240.596 62.1673 245.273C67.985 250.12 73.8026 254.974 79.6138 259.821C90.6236 269 101.634 278.186 112.644 287.365Z" fill="#ADF0E7"/>
<path d="M112.644 287.365L111.504 308.492L110.09 327.229C109.615 326.844 109.256 326.551 109.093 326.395C104.142 321.659 99.1912 316.922 94.2465 312.186C84.52 302.883 74.7935 293.574 65.067 284.264C55.8161 275.41 45.9333 267.182 37.3209 257.677C32.6498 252.524 22.2452 241.13 28.3631 233.775C32.6563 228.622 39.4772 230.088 44.4212 232.198C51.2356 235.117 56.5581 240.596 62.1673 245.273C67.985 250.12 73.8026 254.974 79.6138 259.821C90.6236 269 101.634 278.186 112.644 287.365Z" stroke="#2E1E00" stroke-width="2" stroke-miterlimit="10" stroke-linecap="round" stroke-linejoin="round"/>
<path d="M158.795 308.557V227.375C158.795 227.375 143.149 221.284 148.257 207.162C152.969 194.136 173.011 197.042 180.55 205.969C185.592 211.94 185.328 219.871 185.586 227.26C185.94 237.411 185.89 247.579 185.77 257.735C185.64 268.816 185.377 279.895 185.048 290.972C184.797 299.408 184.505 307.843 184.173 316.278C184.077 318.73 183.978 321.182 183.871 323.634" fill="#ADF0E7"/>
<path d="M158.795 308.557V227.375C158.795 227.375 143.149 221.284 148.257 207.162C152.969 194.136 173.011 197.042 180.55 205.969C185.592 211.94 185.328 219.871 185.586 227.26C185.94 237.411 185.89 247.579 185.77 257.735C185.64 268.816 185.377 279.895 185.048 290.972C184.797 299.408 184.505 307.843 184.173 316.278C184.077 318.73 183.978 321.182 183.871 323.634" stroke="#2E1E00" stroke-width="2" stroke-miterlimit="10" stroke-linecap="round" stroke-linejoin="round"/>
<path d="M158.795 227.375C158.795 227.375 168.628 230.926 172.64 221.049" stroke="#2E1E00" stroke-width="2" stroke-miterlimit="10" stroke-linecap="round" stroke-linejoin="round"/>
<path d="M138.714 313.31C139.867 315.174 139.289 317.621 137.425 318.774C135.752 319.804 133.616 319.449 132.36 318.025C132.072 318.414 131.7 318.757 131.263 319.028C129.399 320.181 126.952 319.604 125.799 317.739C125.119 316.639 125.042 315.336 125.477 314.217C125.19 314.217 124.897 314.182 124.606 314.112C122.472 313.61 121.148 311.468 121.652 309.335C122.155 307.201 124.296 305.88 126.429 306.385C126.807 306.474 127.162 306.615 127.481 306.8C126.471 304.962 127.072 302.63 128.878 301.514C130.742 300.361 133.188 300.939 134.341 302.804C134.843 303.611 135.018 304.529 134.902 305.406C136.75 304.34 139.127 304.931 140.259 306.761C141.412 308.628 140.834 311.075 138.97 312.228C138.711 312.388 138.438 312.515 138.158 312.61C138.367 312.813 138.554 313.05 138.714 313.31Z" fill="#FEFFFA"/>
<path d="M138.714 313.31C139.867 315.174 139.289 317.621 137.425 318.774C135.752 319.804 133.616 319.449 132.36 318.025C132.072 318.414 131.7 318.757 131.263 319.028C129.399 320.181 126.952 319.604 125.799 317.739C125.119 316.639 125.042 315.336 125.477 314.217C125.19 314.217 124.897 314.182 124.606 314.112C122.472 313.61 121.148 311.468 121.652 309.335C122.155 307.201 124.296 305.88 126.429 306.385C126.807 306.474 127.162 306.615 127.481 306.8C126.471 304.962 127.072 302.63 128.878 301.514C130.742 300.361 133.188 300.939 134.341 302.804C134.843 303.611 135.018 304.529 134.902 305.406C136.75 304.34 139.127 304.931 140.259 306.761C141.412 308.628 140.834 311.075 138.97 312.228C138.711 312.388 138.438 312.515 138.158 312.61C138.367 312.813 138.554 313.05 138.714 313.31Z" stroke="#2E1E00" stroke-width="2" stroke-miterlimit="10" stroke-linecap="round" stroke-linejoin="round"/>
<path d="M233.387 115.486C218.006 119.415 203.048 122.555 188.755 125.044C159.705 130.106 133.425 132.509 112.05 133.552C89.2815 134.666 72.0696 134.223 63.0135 133.799C62.7659 130.972 62.6357 128.112 62.6357 125.213C62.6357 80.2027 93.477 42.8473 133.959 35.6219C137.809 34.9378 141.75 34.5274 145.757 34.4036C146.584 34.3775 147.418 34.3645 148.259 34.3645C192.449 34.3652 228.813 69.8834 233.387 115.486Z" fill="#FFDC38"/>
<path d="M233.387 115.486C218.006 119.415 203.048 122.555 188.755 125.044C159.705 130.106 133.425 132.509 112.05 133.552C89.2815 134.666 72.0696 134.223 63.0135 133.799C62.7659 130.972 62.6357 128.112 62.6357 125.213C62.6357 80.2027 93.477 42.8473 133.959 35.6219C137.809 34.9378 141.75 34.5274 145.757 34.4036C146.584 34.3775 147.418 34.3645 148.259 34.3645C192.449 34.3652 228.813 69.8834 233.387 115.486Z" stroke="#2E1E00" stroke-width="2" stroke-miterlimit="10" stroke-linecap="round" stroke-linejoin="round"/>
<path d="M151.035 130.423L158.766 198.32" stroke="#2E1E00" stroke-width="2" stroke-miterlimit="10" stroke-linecap="round" stroke-linejoin="round"/>
<path d="M140.146 34.3652L139.036 24.0348" stroke="#2E1E00" stroke-width="2" stroke-miterlimit="10" stroke-linecap="round" stroke-linejoin="round"/>
<path d="M188.755 125.044C159.705 130.106 133.425 132.509 112.051 133.552L133.96 35.6225C137.81 34.9385 141.751 34.528 145.758 34.4043L188.755 125.044Z" fill="#73B7EA"/>
<path d="M188.755 125.044C159.705 130.106 133.425 132.509 112.051 133.552L133.96 35.6225C137.81 34.9385 141.751 34.528 145.758 34.4043L188.755 125.044Z" stroke="#2E1E00" stroke-width="2" stroke-miterlimit="10" stroke-linecap="round" stroke-linejoin="round"/>
<path d="M53.9933 175.023C53.9933 175.023 49.6636 178.615 50.5249 183.479C51.0122 186.235 53.2376 188.46 56.0044 188.884C56.5979 188.974 57.1712 188.951 57.6448 188.726C57.6448 188.726 64.9556 196.623 69.8208 190.864C75.4776 184.171 66.5204 181.644 66.5204 181.644C66.5204 181.644 74.5029 177.716 70.1941 173.044C65.8853 168.372 60.6325 174.811 60.6325 174.811C60.6325 174.811 59.134 168.215 55.7913 169.565C52.4493 170.915 53.9933 175.023 53.9933 175.023Z" fill="#FEFFFA"/>
<path d="M53.9933 175.023C53.9933 175.023 49.6636 178.615 50.5249 183.479C51.0122 186.235 53.2376 188.46 56.0044 188.884C56.5979 188.974 57.1712 188.951 57.6448 188.726C57.6448 188.726 64.9556 196.623 69.8208 190.864C75.4776 184.171 66.5204 181.644 66.5204 181.644C66.5204 181.644 74.5029 177.716 70.1941 173.044C65.8853 168.372 60.6325 174.811 60.6325 174.811C60.6325 174.811 59.134 168.215 55.7913 169.565C52.4493 170.915 53.9933 175.023 53.9933 175.023Z" stroke="#2E1E00" stroke-width="2" stroke-miterlimit="10" stroke-linecap="round" stroke-linejoin="round"/>
<path d="M155.536 492.349C155.536 492.349 150.822 491.873 150.012 495.967C149.203 500.062 153.678 498.681 153.678 498.681C153.678 498.681 153.203 502.109 155.869 502.49C158.534 502.871 159.106 499.348 159.106 499.348C159.106 499.348 163.868 501.264 164.343 497.426C164.819 493.587 160.439 494.254 160.439 494.254C160.439 494.254 160.725 489.969 158.488 490.016C156.249 490.063 155.536 492.349 155.536 492.349Z" fill="#FEFFFA"/>
<path d="M155.536 492.349C155.536 492.349 150.822 491.873 150.012 495.967C149.203 500.062 153.678 498.681 153.678 498.681C153.678 498.681 153.203 502.109 155.869 502.49C158.534 502.871 159.106 499.348 159.106 499.348C159.106 499.348 163.868 501.264 164.343 497.426C164.819 493.587 160.439 494.254 160.439 494.254C160.439 494.254 160.725 489.969 158.488 490.016C156.249 490.063 155.536 492.349 155.536 492.349Z" stroke="#2E1E00" stroke-width="2" stroke-miterlimit="10" stroke-linecap="round" stroke-linejoin="round"/>
<path d="M181.283 458.672C181.283 458.672 184.544 455.235 181.799 452.089C179.055 448.944 177.41 453.328 177.41 453.328C177.41 453.328 174.99 450.854 173.057 452.73C171.124 454.606 173.562 457.214 173.562 457.214C173.562 457.214 169.133 459.808 171.878 462.533C174.623 465.258 176.776 461.385 176.776 461.385C176.776 461.385 179.991 464.232 181.322 462.433C182.654 460.635 181.283 458.672 181.283 458.672Z" fill="#FEFFFA"/>
<path d="M181.283 458.672C181.283 458.672 184.544 455.235 181.799 452.089C179.055 448.944 177.41 453.328 177.41 453.328C177.41 453.328 174.99 450.854 173.057 452.73C171.124 454.606 173.562 457.214 173.562 457.214C173.562 457.214 169.133 459.808 171.878 462.533C174.623 465.258 176.776 461.385 176.776 461.385C176.776 461.385 179.991 464.232 181.322 462.433C182.654 460.635 181.283 458.672 181.283 458.672Z" stroke="#2E1E00" stroke-width="2" stroke-miterlimit="10" stroke-linecap="round" stroke-linejoin="round"/>
<path d="M226.388 246.01C226.388 246.01 229.681 249.415 232.942 246.81C236.204 244.205 231.894 242.372 231.894 242.372C231.894 242.372 234.47 240.061 232.679 238.049C230.889 236.037 228.178 238.359 228.178 238.359C228.178 238.359 225.779 233.823 222.937 236.447C220.096 239.072 223.872 241.391 223.872 241.391C223.872 241.391 220.888 244.479 222.629 245.886C224.368 247.294 226.388 246.01 226.388 246.01Z" fill="#FEFFFA"/>
<path d="M226.388 246.01C226.388 246.01 229.681 249.415 232.942 246.81C236.204 244.205 231.894 242.372 231.894 242.372C231.894 242.372 234.47 240.061 232.679 238.049C230.889 236.037 228.178 238.359 228.178 238.359C228.178 238.359 225.779 233.823 222.937 236.447C220.096 239.072 223.872 241.391 223.872 241.391C223.872 241.391 220.888 244.479 222.629 245.886C224.368 247.294 226.388 246.01 226.388 246.01Z" stroke="#2E1E00" stroke-width="2" stroke-miterlimit="10" stroke-linecap="round" stroke-linejoin="round"/>
<path d="M266.813 160.884C266.813 160.884 270.107 164.29 273.367 161.684C276.629 159.079 272.319 157.245 272.319 157.245C272.319 157.245 274.895 154.934 273.104 152.923C271.314 150.911 268.603 153.233 268.603 153.233C268.603 153.233 266.204 148.697 263.362 151.321C260.521 153.945 264.298 156.264 264.298 156.264C264.298 156.264 261.314 159.353 263.054 160.761C264.793 162.168 266.813 160.884 266.813 160.884Z" fill="#FEFFFA"/>
<path d="M266.813 160.884C266.813 160.884 270.107 164.29 273.367 161.684C276.629 159.079 272.319 157.245 272.319 157.245C272.319 157.245 274.895 154.934 273.104 152.923C271.314 150.911 268.603 153.233 268.603 153.233C268.603 153.233 266.204 148.697 263.362 151.321C260.521 153.945 264.298 156.264 264.298 156.264C264.298 156.264 261.314 159.353 263.054 160.761C264.793 162.168 266.813 160.884 266.813 160.884Z" stroke="#2E1E00" stroke-width="2" stroke-miterlimit="10" stroke-linecap="round" stroke-linejoin="round"/>
<path d="M24.8751 94.083C24.8751 94.083 20.1617 93.6068 19.3513 97.7013C18.5422 101.796 23.0177 100.415 23.0177 100.415C23.0177 100.415 22.5422 103.843 25.208 104.224C27.8738 104.605 28.4452 101.082 28.4452 101.082C28.4452 101.082 33.2075 102.998 33.683 99.1593C34.1586 95.3208 29.7787 95.9873 29.7787 95.9873C29.7787 95.9873 30.0641 91.7025 27.8263 91.7501C25.5892 91.7976 24.8751 94.083 24.8751 94.083Z" fill="#FEFFFA"/>
<path d="M24.8751 94.083C24.8751 94.083 20.1617 93.6068 19.3513 97.7013C18.5422 101.796 23.0177 100.415 23.0177 100.415C23.0177 100.415 22.5422 103.843 25.208 104.224C27.8739 104.605 28.4452 101.082 28.4452 101.082C28.4452 101.082 33.2075 102.998 33.683 99.1593C34.1586 95.3208 29.7787 95.9873 29.7787 95.9873C29.7787 95.9873 30.0641 91.7025 27.8263 91.7501C25.5892 91.7976 24.8751 94.083 24.8751 94.083Z" stroke="#2E1E00" stroke-width="2" stroke-miterlimit="10" stroke-linecap="round" stroke-linejoin="round"/>
<path d="M199.288 87.8309C199.288 87.8309 194.575 87.3546 193.765 91.4491C192.956 95.5443 197.431 94.1632 197.431 94.1632C197.431 94.1632 196.955 97.5912 199.621 97.9723C202.287 98.3528 202.859 94.8296 202.859 94.8296C202.859 94.8296 207.62 96.7462 208.096 92.9071C208.571 89.0686 204.191 89.7351 204.191 89.7351C204.191 89.7351 204.477 85.4504 202.24 85.4979C200.002 85.5455 199.288 87.8309 199.288 87.8309Z" fill="#FEFFFA"/>
<path d="M199.288 87.8309C199.288 87.8309 194.575 87.3546 193.765 91.4491C192.956 95.5443 197.431 94.1632 197.431 94.1632C197.431 94.1632 196.955 97.5912 199.621 97.9723C202.287 98.3528 202.859 94.8296 202.859 94.8296C202.859 94.8296 207.62 96.7462 208.096 92.9071C208.571 89.0686 204.191 89.7351 204.191 89.7351C204.191 89.7351 204.477 85.4504 202.24 85.4979C200.002 85.5455 199.288 87.8309 199.288 87.8309Z" stroke="#2E1E00" stroke-width="2" stroke-miterlimit="10" stroke-linecap="round" stroke-linejoin="round"/>
<path d="M243.811 401.869C243.811 401.869 248.524 402.345 249.335 398.25C250.143 394.156 245.667 395.536 245.667 395.536C245.667 395.536 246.144 392.108 243.478 391.727C240.812 391.346 240.241 394.87 240.241 394.87C240.241 394.87 235.478 392.953 235.003 396.792C234.527 400.631 238.906 399.963 238.906 399.963C238.906 399.963 238.621 404.248 240.859 404.201C243.097 404.154 243.811 401.869 243.811 401.869Z" fill="#FEFFFA"/>
<path d="M243.811 401.869C243.811 401.869 248.524 402.345 249.335 398.25C250.143 394.156 245.667 395.536 245.667 395.536C245.667 395.536 246.144 392.108 243.478 391.727C240.812 391.346 240.241 394.87 240.241 394.87C240.241 394.87 235.478 392.953 235.003 396.792C234.527 400.631 238.906 399.963 238.906 399.963C238.906 399.963 238.621 404.248 240.859 404.201C243.097 404.154 243.811 401.869 243.811 401.869Z" stroke="#2E1E00" stroke-width="2" stroke-miterlimit="10" stroke-linecap="round" stroke-linejoin="round"/>
<path d="M88.4282 27.3293C88.4282 27.3293 93.0953 26.5169 92.7709 22.3559C92.4465 18.1943 88.509 20.7305 88.509 20.7305C88.509 20.7305 88.0432 17.3012 85.3734 17.6536C82.7024 18.0054 83.1031 21.5527 83.1031 21.5527C83.1031 21.5527 78.0014 20.9911 78.5779 24.8159C79.1551 28.6407 83.1929 26.8179 83.1929 26.8179C83.1929 26.8179 84.0737 31.0212 86.2158 30.3717C88.3565 29.7228 88.4282 27.3293 88.4282 27.3293Z" fill="#FEFFFA"/>
<path d="M88.4282 27.3293C88.4282 27.3293 93.0953 26.5169 92.7709 22.3559C92.4465 18.1943 88.509 20.7305 88.509 20.7305C88.509 20.7305 88.0432 17.3012 85.3734 17.6536C82.7024 18.0054 83.1031 21.5527 83.1031 21.5527C83.1031 21.5527 78.0014 20.9911 78.5779 24.8159C79.1551 28.6407 83.1929 26.8179 83.1929 26.8179C83.1929 26.8179 84.0737 31.0212 86.2158 30.3717C88.3565 29.7228 88.4282 27.3293 88.4282 27.3293Z" stroke="#2E1E00" stroke-width="2" stroke-miterlimit="10" stroke-linecap="round" stroke-linejoin="round"/>
<path d="M47.8056 526.801C47.8056 526.801 49.8063 522.507 46.2076 520.395C42.6075 518.282 42.4375 522.962 42.4375 522.962C42.4375 522.962 39.3567 521.384 38.1202 523.776C36.8824 526.169 40.0212 527.868 40.0212 527.868C40.0212 527.868 36.6433 531.733 40.1124 533.446C43.5801 535.16 44.3926 530.804 44.3926 530.804C44.3926 530.804 48.3444 532.485 49.0369 530.356C49.7281 528.227 47.8056 526.801 47.8056 526.801Z" fill="#FEFFFA"/>
<path d="M47.8056 526.801C47.8056 526.801 49.8063 522.507 46.2076 520.395C42.6075 518.282 42.4375 522.962 42.4375 522.962C42.4375 522.962 39.3567 521.384 38.1202 523.776C36.8824 526.169 40.0212 527.868 40.0212 527.868C40.0212 527.868 36.6433 531.733 40.1124 533.446C43.5801 535.16 44.3926 530.804 44.3926 530.804C44.3926 530.804 48.3444 532.485 49.0369 530.356C49.7281 528.227 47.8056 526.801 47.8056 526.801Z" stroke="#2E1E00" stroke-width="2" stroke-miterlimit="10" stroke-linecap="round" stroke-linejoin="round"/>
<path d="M186.679 503.813C186.679 503.813 185.911 500.083 182.729 499.05C180.927 498.465 178.888 499.086 177.755 500.605C177.512 500.931 177.344 501.282 177.329 501.635C177.329 501.635 170.283 503.493 172.176 508.233C174.378 513.743 178.738 509.195 178.738 509.195C178.738 509.195 178.545 515.215 182.709 514.126C186.872 513.037 184.694 507.849 184.694 507.849C184.694 507.849 189.114 509.052 189.37 506.624C189.627 504.198 186.679 503.813 186.679 503.813Z" fill="#FEFFFA"/>
<path d="M186.679 503.813C186.679 503.813 185.911 500.083 182.729 499.05C180.927 498.465 178.888 499.086 177.755 500.605C177.512 500.931 177.344 501.282 177.329 501.635C177.329 501.635 170.283 503.493 172.176 508.233C174.378 513.743 178.738 509.195 178.738 509.195C178.738 509.195 178.545 515.215 182.709 514.126C186.872 513.037 184.694 507.849 184.694 507.849C184.694 507.849 189.114 509.052 189.37 506.624C189.627 504.198 186.679 503.813 186.679 503.813Z" stroke="#2E1E00" stroke-width="2" stroke-miterlimit="10" stroke-linecap="round" stroke-linejoin="round"/>
<path d="M61.5009 526.251C61.5009 526.251 59.5941 529.548 61.2827 532.435C62.2391 534.071 64.1739 534.962 66.0312 534.582C66.4286 534.5 66.7882 534.351 67.0358 534.096C67.0358 534.096 73.5323 537.395 75.2711 532.597C77.2919 527.018 71.0105 527.515 71.0105 527.515C71.0105 527.515 75.1583 523.147 71.3251 521.191C67.4912 519.236 65.6671 524.558 65.6671 524.558C65.6671 524.558 63.1667 520.72 61.3615 522.362C59.5556 524.004 61.5009 526.251 61.5009 526.251Z" fill="#FEFFFA"/>
<path d="M61.5009 526.251C61.5009 526.251 59.5941 529.548 61.2827 532.435C62.2391 534.071 64.1739 534.962 66.0312 534.582C66.4286 534.5 66.7882 534.351 67.0358 534.096C67.0358 534.096 73.5323 537.395 75.2711 532.597C77.2919 527.018 71.0105 527.515 71.0105 527.515C71.0105 527.515 75.1583 523.147 71.3251 521.191C67.4912 519.236 65.6671 524.558 65.6671 524.558C65.6671 524.558 63.1667 520.72 61.3615 522.362C59.5556 524.004 61.5009 526.251 61.5009 526.251Z" stroke="#2E1E00" stroke-width="2" stroke-miterlimit="10" stroke-linecap="round" stroke-linejoin="round"/>
<path d="M49.6903 500.985C49.6903 500.985 54.6376 503.662 58.8292 501.048C61.2045 499.568 62.439 496.673 61.7992 493.948C61.6618 493.364 61.4273 492.841 61.0416 492.486C61.0416 492.486 65.6396 482.756 58.4819 480.391C50.1613 477.64 51.1587 486.894 51.1587 486.894C51.1587 486.894 44.5358 480.953 41.8088 486.695C39.0817 492.435 47.0167 494.906 47.0167 494.906C47.0167 494.906 41.4557 498.758 43.9554 501.355C46.4551 503.95 49.6903 500.985 49.6903 500.985Z" fill="#FEFFFA"/>
<path d="M49.6903 500.985C49.6903 500.985 54.6376 503.662 58.8292 501.048C61.2045 499.568 62.439 496.673 61.7992 493.948C61.6618 493.364 61.4273 492.841 61.0416 492.486C61.0416 492.486 65.6396 482.756 58.4819 480.391C50.1613 477.64 51.1587 486.894 51.1587 486.894C51.1587 486.894 44.5358 480.953 41.8088 486.695C39.0817 492.435 47.0167 494.906 47.0167 494.906C47.0167 494.906 41.4557 498.758 43.9554 501.355C46.4551 503.95 49.6903 500.985 49.6903 500.985Z" stroke="#2E1E00" stroke-width="2" stroke-miterlimit="10" stroke-linecap="round" stroke-linejoin="round"/>
<path d="M89.0471 472.167C89.0471 472.167 84.3344 471.692 83.524 475.786C82.7149 479.88 87.1904 478.5 87.1904 478.5C87.1904 478.5 86.7149 481.928 89.3807 482.31C92.0465 482.69 92.6179 479.167 92.6179 479.167C92.6179 479.167 97.3795 481.083 97.855 477.244C98.3313 473.406 93.9514 474.072 93.9514 474.072C93.9514 474.072 94.2367 469.788 91.9989 469.835C89.7618 469.882 89.0471 472.167 89.0471 472.167Z" fill="#FEFFFA"/>
<path d="M89.0471 472.167C89.0471 472.167 84.3344 471.692 83.524 475.786C82.7149 479.88 87.1904 478.5 87.1904 478.5C87.1904 478.5 86.7149 481.928 89.3807 482.31C92.0465 482.69 92.6179 479.167 92.6179 479.167C92.6179 479.167 97.3795 481.083 97.855 477.244C98.3313 473.406 93.9514 474.072 93.9514 474.072C93.9514 474.072 94.2367 469.788 91.9989 469.835C89.7618 469.882 89.0471 472.167 89.0471 472.167Z" stroke="#2E1E00" stroke-width="2" stroke-miterlimit="10" stroke-linecap="round" stroke-linejoin="round"/>
<path d="M104.144 535.545C104.144 535.545 112 535.482 112.598 528.586C113.195 521.691 106.067 524.772 106.067 524.772C106.067 524.772 106.234 519.036 101.77 518.888C97.3063 518.74 96.9988 524.651 96.9988 524.651C96.9988 524.651 88.8052 522.348 88.7108 528.762C88.6163 535.176 95.7174 533.289 95.7174 533.289C95.7174 533.289 96.0177 540.404 99.6978 539.923C103.378 539.442 104.144 535.545 104.144 535.545Z" fill="#FEFFFA"/>
<path d="M104.144 535.545C104.144 535.545 112 535.482 112.598 528.586C113.195 521.691 106.067 524.772 106.067 524.772C106.067 524.772 106.234 519.036 101.77 518.888C97.3063 518.74 96.9988 524.651 96.9988 524.651C96.9988 524.651 88.8052 522.348 88.7108 528.762C88.6163 535.176 95.7174 533.289 95.7174 533.289C95.7174 533.289 96.0177 540.404 99.6978 539.923C103.378 539.442 104.144 535.545 104.144 535.545Z" stroke="#2E1E00" stroke-width="2" stroke-miterlimit="10" stroke-linecap="round" stroke-linejoin="round"/>
<path d="M141.799 526.492C141.799 526.492 145.188 519.405 139.255 515.842C133.32 512.28 132.962 520.039 132.962 520.039C132.962 520.039 127.88 517.371 125.789 521.318C123.698 525.264 128.874 528.133 128.874 528.133C128.874 528.133 123.21 534.487 128.933 537.385C134.654 540.283 136.074 533.074 136.074 533.074C136.074 533.074 142.6 535.926 143.782 532.408C144.964 528.89 141.799 526.492 141.799 526.492Z" fill="#FEFFFA"/>
<path d="M141.799 526.492C141.799 526.492 145.188 519.405 139.255 515.842C133.32 512.28 132.962 520.039 132.962 520.039C132.962 520.039 127.88 517.371 125.789 521.318C123.698 525.264 128.874 528.133 128.874 528.133C128.874 528.133 123.21 534.487 128.933 537.385C134.654 540.283 136.074 533.074 136.074 533.074C136.074 533.074 142.6 535.926 143.782 532.408C144.964 528.89 141.799 526.492 141.799 526.492Z" stroke="#2E1E00" stroke-width="2" stroke-miterlimit="10" stroke-linecap="round" stroke-linejoin="round"/>
<path d="M85.1461 516.645C84.7773 518.805 82.7258 520.258 80.5656 519.889C78.6294 519.556 77.2619 517.877 77.2619 515.978C76.7889 516.079 76.2828 516.092 75.7753 516.005C73.6156 515.637 72.1616 513.585 72.5309 511.424C72.7485 510.15 73.5511 509.123 74.6189 508.57C74.4026 508.381 74.2072 508.16 74.0339 507.915C72.7668 506.126 73.1896 503.645 74.9785 502.378C76.7674 501.11 79.2456 501.536 80.5128 503.325C80.7375 503.641 80.9095 503.983 81.0274 504.332C81.4854 502.285 83.4789 500.933 85.5708 501.29C87.7317 501.659 89.1845 503.71 88.8158 505.871C88.6588 506.808 88.1812 507.614 87.5154 508.194C89.606 508.616 90.9995 510.632 90.6373 512.754C90.266 514.916 88.2151 516.37 86.0542 516C85.7538 515.949 85.4646 515.864 85.193 515.75C85.2125 516.043 85.1975 516.344 85.1461 516.645Z" fill="#FEFFFA"/>
<path d="M85.1461 516.645C84.7773 518.805 82.7258 520.258 80.5656 519.889C78.6294 519.556 77.2619 517.877 77.2619 515.978C76.7889 516.079 76.2828 516.092 75.7753 516.005C73.6156 515.637 72.1616 513.585 72.5309 511.424C72.7485 510.15 73.5511 509.123 74.6189 508.57C74.4026 508.381 74.2072 508.16 74.0339 507.915C72.7668 506.126 73.1896 503.645 74.9785 502.378C76.7674 501.11 79.2456 501.536 80.5128 503.325C80.7375 503.641 80.9095 503.983 81.0274 504.332C81.4854 502.285 83.4789 500.933 85.5708 501.29C87.7317 501.659 89.1845 503.71 88.8158 505.871C88.6588 506.808 88.1812 507.614 87.5154 508.194C89.606 508.616 90.9995 510.632 90.6373 512.754C90.266 514.916 88.2151 516.37 86.0542 516C85.7538 515.949 85.4646 515.864 85.193 515.75C85.2125 516.043 85.1975 516.344 85.1461 516.645Z" stroke="#2E1E00" stroke-width="2" stroke-miterlimit="10" stroke-linecap="round" stroke-linejoin="round"/>
<path d="M124.131 537.8C124.131 537.8 122.152 541.221 123.903 544.217C124.896 545.913 126.904 546.838 128.83 546.444C129.243 546.358 129.615 546.204 129.872 545.941C129.872 545.941 136.613 549.364 138.417 544.385C140.514 538.597 133.996 539.113 133.996 539.113C133.996 539.113 138.3 534.581 134.323 532.552C130.346 530.522 128.453 536.044 128.453 536.044C128.453 536.044 125.859 532.062 123.986 533.766C122.113 535.469 124.131 537.8 124.131 537.8Z" fill="#FEFFFA"/>
<path d="M124.131 537.8C124.131 537.8 122.152 541.221 123.903 544.217C124.896 545.913 126.904 546.838 128.83 546.444C129.243 546.358 129.615 546.204 129.872 545.941C129.872 545.941 136.613 549.364 138.417 544.385C140.514 538.597 133.996 539.113 133.996 539.113C133.996 539.113 138.3 534.581 134.323 532.552C130.346 530.522 128.453 536.044 128.453 536.044C128.453 536.044 125.859 532.062 123.986 533.766C122.113 535.469 124.131 537.8 124.131 537.8Z" stroke="#2E1E00" stroke-width="2" stroke-miterlimit="10" stroke-linecap="round" stroke-linejoin="round"/>
<path d="M53.878 531.581C53.878 531.581 51.8995 535.002 53.6506 537.997C54.6435 539.694 56.6514 540.619 58.5778 540.224C58.9908 540.139 59.3628 539.984 59.6195 539.722C59.6195 539.722 66.3603 543.145 68.1642 538.165C70.2613 532.377 63.7433 532.893 63.7433 532.893C63.7433 532.893 68.0469 528.361 64.0703 526.332C60.0931 524.303 58.2005 529.825 58.2005 529.825C58.2005 529.825 55.6064 525.843 53.7334 527.546C51.8598 529.249 53.878 531.581 53.878 531.581Z" fill="#FEFFFA"/>
<path d="M53.878 531.581C53.878 531.581 51.8995 535.002 53.6506 537.997C54.6435 539.694 56.6514 540.619 58.5778 540.224C58.9908 540.139 59.3628 539.984 59.6195 539.722C59.6195 539.722 66.3603 543.145 68.1642 538.165C70.2613 532.377 63.7433 532.893 63.7433 532.893C63.7433 532.893 68.0469 528.361 64.0703 526.332C60.0931 524.303 58.2005 529.825 58.2005 529.825C58.2005 529.825 55.6064 525.843 53.7334 527.546C51.8598 529.249 53.878 531.581 53.878 531.581Z" stroke="#2E1E00" stroke-width="2" stroke-miterlimit="10" stroke-linecap="round" stroke-linejoin="round"/>
<path d="M182.517 521.712C182.517 521.712 180.539 525.133 182.29 528.129C183.283 529.825 185.29 530.75 187.217 530.356C187.63 530.271 188.002 530.116 188.258 529.853C188.258 529.853 194.999 533.275 196.803 528.297C198.9 522.509 192.382 523.025 192.382 523.025C192.382 523.025 196.686 518.493 192.709 516.464C188.732 514.434 186.839 519.956 186.839 519.956C186.839 519.956 184.245 515.974 182.372 517.678C180.499 519.381 182.517 521.712 182.517 521.712Z" fill="#FEFFFA"/>
<path d="M182.517 521.712C182.517 521.712 180.539 525.133 182.29 528.129C183.283 529.825 185.29 530.75 187.217 530.356C187.63 530.271 188.002 530.116 188.258 529.853C188.258 529.853 194.999 533.275 196.803 528.297C198.9 522.509 192.382 523.025 192.382 523.025C192.382 523.025 196.686 518.493 192.709 516.464C188.732 514.434 186.839 519.956 186.839 519.956C186.839 519.956 184.245 515.974 182.372 517.678C180.499 519.381 182.517 521.712 182.517 521.712Z" stroke="#2E1E00" stroke-width="2" stroke-miterlimit="10" stroke-linecap="round" stroke-linejoin="round"/>
<path d="M41.7104 518.127C41.7104 518.127 33.6009 517.308 32.2081 524.352C30.8159 531.397 38.5156 529.021 38.5156 529.021C38.5156 529.021 37.6967 534.92 42.2837 535.575C46.8707 536.231 47.8538 530.169 47.8538 530.169C47.8538 530.169 56.0455 533.466 56.8644 526.862C57.6839 520.257 50.1476 521.404 50.1476 521.404C50.1476 521.404 50.6388 514.032 46.7893 514.114C42.9391 514.195 41.7104 518.127 41.7104 518.127Z" fill="#FEFFFA"/>
<path d="M41.7104 518.127C41.7104 518.127 33.6009 517.308 32.2081 524.352C30.8159 531.397 38.5156 529.021 38.5156 529.021C38.5156 529.021 37.6967 534.92 42.2837 535.575C46.8707 536.231 47.8538 530.169 47.8538 530.169C47.8538 530.169 56.0455 533.466 56.8644 526.862C57.6839 520.257 50.1476 521.404 50.1476 521.404C50.1476 521.404 50.6388 514.032 46.7893 514.114C42.9391 514.195 41.7104 518.127 41.7104 518.127Z" stroke="#2E1E00" stroke-width="2" stroke-miterlimit="10" stroke-linecap="round" stroke-linejoin="round"/>
<path d="M23.7194 517.324C23.7194 517.324 22.5408 511.609 17.6665 510.025C14.9049 509.128 11.7818 510.081 10.045 512.409C9.67299 512.909 9.415 513.445 9.39025 513.987C9.39025 513.987 -1.40596 516.834 1.49505 524.097C4.86772 532.541 11.5492 525.569 11.5492 525.569C11.5492 525.569 11.2548 534.795 17.6346 533.126C24.0139 531.458 20.6777 523.508 20.6777 523.508C20.6777 523.508 27.4497 525.352 27.8419 521.632C28.2334 517.913 23.7194 517.324 23.7194 517.324Z" fill="#FEFFFA"/>
<path d="M23.7194 517.324C23.7194 517.324 22.5408 511.609 17.6665 510.025C14.9049 509.128 11.7818 510.081 10.045 512.409C9.67299 512.909 9.415 513.445 9.39025 513.987C9.39025 513.987 -1.40596 516.834 1.49505 524.097C4.86772 532.541 11.5492 525.569 11.5492 525.569C11.5492 525.569 11.2548 534.795 17.6346 533.126C24.0139 531.458 20.6777 523.508 20.6777 523.508C20.6777 523.508 27.4497 525.352 27.8419 521.632C28.2334 517.913 23.7194 517.324 23.7194 517.324Z" stroke="#2E1E00" stroke-width="2" stroke-miterlimit="10" stroke-linecap="round" stroke-linejoin="round"/>
<path d="M143.754 528.45C143.754 528.45 139.622 532.571 140.972 537.515C141.738 540.316 144.248 542.405 147.147 542.579C147.768 542.617 148.358 542.538 148.825 542.261C148.825 542.261 157.129 549.725 161.609 543.315C166.818 535.862 157.323 534.101 157.323 534.101C157.323 534.101 165.198 529.285 160.303 524.868C155.408 520.449 150.592 527.601 150.592 527.601C150.592 527.601 148.418 520.927 145.095 522.64C141.769 524.352 143.754 528.45 143.754 528.45Z" fill="#FEFFFA"/>
<path d="M143.754 528.45C143.754 528.45 139.622 532.571 140.972 537.515C141.738 540.316 144.248 542.405 147.147 542.579C147.768 542.617 148.358 542.538 148.825 542.261C148.825 542.261 157.129 549.725 161.609 543.315C166.818 535.862 157.323 534.101 157.323 534.101C157.323 534.101 165.198 529.285 160.303 524.868C155.408 520.449 150.592 527.601 150.592 527.601C150.592 527.601 148.418 520.927 145.095 522.64C141.769 524.352 143.754 528.45 143.754 528.45Z" stroke="#2E1E00" stroke-width="2" stroke-miterlimit="10" stroke-linecap="round" stroke-linejoin="round"/>
<path d="M123.586 520.283C123.586 520.283 121.243 525.628 124.305 529.737C126.04 532.066 129.14 533.094 131.902 532.199C132.494 532.006 133.016 531.718 133.349 531.289C133.349 531.289 143.804 535.208 145.635 527.604C147.764 518.765 138.283 520.591 138.283 520.591C138.283 520.591 143.856 513.233 137.686 510.907C131.515 508.58 129.643 516.996 129.643 516.996C129.643 516.996 125.182 511.577 122.713 514.385C120.243 517.192 123.586 520.283 123.586 520.283Z" fill="#FEFFFA"/>
<path d="M123.586 520.283C123.586 520.283 121.243 525.628 124.305 529.737C126.04 532.066 129.14 533.094 131.902 532.199C132.494 532.006 133.016 531.718 133.349 531.289C133.349 531.289 143.804 535.208 145.635 527.604C147.764 518.765 138.283 520.591 138.283 520.591C138.283 520.591 143.856 513.233 137.686 510.907C131.515 508.58 129.643 516.996 129.643 516.996C129.643 516.996 125.182 511.577 122.713 514.385C120.243 517.192 123.586 520.283 123.586 520.283Z" stroke="#2E1E00" stroke-width="2" stroke-miterlimit="10" stroke-linecap="round" stroke-linejoin="round"/>
<path d="M114.327 533.576C114.327 533.576 109.436 533.083 108.596 537.331C107.757 541.579 112.401 540.147 112.401 540.147C112.401 540.147 111.906 543.703 114.673 544.098C117.439 544.493 118.032 540.838 118.032 540.838C118.032 540.838 122.971 542.826 123.465 538.843C123.959 534.86 119.415 535.552 119.415 535.552C119.415 535.552 119.711 531.106 117.389 531.156C115.067 531.205 114.327 533.576 114.327 533.576Z" fill="#FEFFFA"/>
<path d="M114.327 533.576C114.327 533.576 109.436 533.083 108.596 537.331C107.757 541.579 112.401 540.147 112.401 540.147C112.401 540.147 111.906 543.703 114.673 544.098C117.439 544.493 118.032 540.838 118.032 540.838C118.032 540.838 122.971 542.826 123.465 538.843C123.959 534.86 119.415 535.552 119.415 535.552C119.415 535.552 119.711 531.106 117.389 531.156C115.067 531.205 114.327 533.576 114.327 533.576Z" stroke="#2E1E00" stroke-width="2" stroke-miterlimit="10" stroke-linecap="round" stroke-linejoin="round"/>
<path d="M148.244 520.634C148.244 520.634 143.353 520.14 142.513 524.388C141.674 528.636 146.318 527.204 146.318 527.204C146.318 527.204 145.823 530.76 148.59 531.156C151.356 531.55 151.949 527.895 151.949 527.895C151.949 527.895 156.888 529.883 157.382 525.9C157.876 521.917 153.332 522.609 153.332 522.609C153.332 522.609 153.628 518.163 151.306 518.213C148.985 518.262 148.244 520.634 148.244 520.634Z" fill="#FEFFFA"/>
<path d="M148.244 520.634C148.244 520.634 143.353 520.14 142.513 524.388C141.674 528.636 146.318 527.204 146.318 527.204C146.318 527.204 145.823 530.76 148.59 531.156C151.356 531.55 151.949 527.895 151.949 527.895C151.949 527.895 156.888 529.883 157.382 525.9C157.876 521.917 153.332 522.609 153.332 522.609C153.332 522.609 153.628 518.163 151.306 518.213C148.985 518.262 148.244 520.634 148.244 520.634Z" stroke="#2E1E00" stroke-width="2" stroke-miterlimit="10" stroke-linecap="round" stroke-linejoin="round"/>
<path d="M109.627 518.686C111.873 519.047 113.4 521.161 113.039 523.406C112.714 525.418 110.985 526.853 109.014 526.872C109.124 527.362 109.142 527.887 109.057 528.414C108.696 530.659 106.583 532.187 104.337 531.826C103.013 531.613 101.938 530.79 101.355 529.689C101.16 529.915 100.934 530.12 100.682 530.302C98.8385 531.635 96.2607 531.221 94.9278 529.377C93.5949 527.533 94.0118 524.959 95.8548 523.626C96.1812 523.39 96.5336 523.207 96.8946 523.082C94.7669 522.627 93.3454 520.572 93.6939 518.399C94.0555 516.155 96.1688 514.626 98.4138 514.987C99.3884 515.14 100.228 515.627 100.837 516.312C101.255 514.139 103.332 512.674 105.537 513.028C107.784 513.393 109.312 515.506 108.951 517.751C108.901 518.063 108.816 518.364 108.699 518.647C109.002 518.622 109.315 518.636 109.627 518.686Z" fill="#FEFFFA"/>
<path d="M109.627 518.686C111.873 519.047 113.4 521.161 113.039 523.406C112.714 525.418 110.985 526.853 109.014 526.872C109.124 527.362 109.142 527.887 109.057 528.414C108.696 530.659 106.583 532.187 104.337 531.826C103.013 531.613 101.938 530.79 101.355 529.689C101.16 529.915 100.934 530.12 100.682 530.302C98.8385 531.635 96.2607 531.221 94.9278 529.377C93.5949 527.533 94.0118 524.959 95.8548 523.626C96.1812 523.39 96.5336 523.207 96.8946 523.082C94.7669 522.627 93.3454 520.572 93.6939 518.399C94.0555 516.155 96.1688 514.626 98.4138 514.987C99.3884 515.14 100.228 515.627 100.837 516.312C101.255 514.139 103.332 512.674 105.537 513.028C107.784 513.393 109.312 515.506 108.951 517.751C108.901 518.063 108.816 518.364 108.699 518.647C109.002 518.622 109.315 518.636 109.627 518.686Z" stroke="#2E1E00" stroke-width="2" stroke-miterlimit="10" stroke-linecap="round" stroke-linejoin="round"/>
<path d="M87.7657 544.921C87.7657 544.921 97.412 544.843 98.1455 536.377C98.8791 527.909 90.1253 531.693 90.1253 531.693C90.1253 531.693 90.3312 524.649 84.8503 524.468C79.3695 524.287 78.9916 531.543 78.9916 531.543C78.9916 531.543 68.9316 528.717 68.8156 536.592C68.7003 544.467 77.4189 542.149 77.4189 542.149C77.4189 542.149 77.7871 550.885 82.3063 550.295C86.8256 549.704 87.7657 544.921 87.7657 544.921Z" fill="#FEFFFA"/>
<path d="M87.7657 544.921C87.7657 544.921 97.412 544.843 98.1455 536.377C98.8791 527.909 90.1253 531.693 90.1253 531.693C90.1253 531.693 90.3312 524.649 84.8503 524.468C79.3695 524.287 78.9916 531.543 78.9916 531.543C78.9916 531.543 68.9316 528.717 68.8156 536.592C68.7003 544.467 77.4189 542.149 77.4189 542.149C77.4189 542.149 77.7871 550.885 82.3063 550.295C86.8256 549.704 87.7657 544.921 87.7657 544.921Z" stroke="#2E1E00" stroke-width="2" stroke-miterlimit="10" stroke-linecap="round" stroke-linejoin="round"/>
<path d="M32.3254 532.161C32.3254 532.161 40.4759 532.095 41.0961 524.941C41.7156 517.787 34.3195 520.985 34.3195 520.985C34.3195 520.985 34.4941 515.032 29.8628 514.879C25.2315 514.725 24.9116 520.858 24.9116 520.858C24.9116 520.858 16.4105 518.469 16.3128 525.124C16.2157 531.778 23.5826 529.82 23.5826 529.82C23.5826 529.82 23.8946 537.202 27.7123 536.703C31.5305 536.202 32.3254 532.161 32.3254 532.161Z" fill="#FEFFFA"/>
<path d="M32.3254 532.161C32.3254 532.161 40.4759 532.095 41.0961 524.941C41.7156 517.787 34.3195 520.985 34.3195 520.985C34.3195 520.985 34.4941 515.032 29.8628 514.879C25.2315 514.725 24.9116 520.858 24.9116 520.858C24.9116 520.858 16.4105 518.469 16.3128 525.124C16.2157 531.778 23.5826 529.82 23.5826 529.82C23.5826 529.82 23.8946 537.202 27.7123 536.703C31.5305 536.202 32.3254 532.161 32.3254 532.161Z" stroke="#2E1E00" stroke-width="2" stroke-miterlimit="10" stroke-linecap="round" stroke-linejoin="round"/>
<path d="M63.5081 521.712C63.5081 521.712 61.5295 525.133 63.2807 528.129C64.2735 529.825 66.2814 530.75 68.2078 530.356C68.6208 530.271 68.9928 530.116 69.2495 529.853C69.2495 529.853 75.9902 533.275 77.7942 528.297C79.8912 522.509 73.3733 523.025 73.3733 523.025C73.3733 523.025 77.6769 518.493 73.7003 516.464C69.723 514.434 67.8306 519.956 67.8306 519.956C67.8306 519.956 65.2364 515.974 63.3634 517.678C61.4898 519.381 63.5081 521.712 63.5081 521.712Z" fill="#FEFFFA"/>
<path d="M63.5081 521.712C63.5081 521.712 61.5295 525.133 63.2807 528.129C64.2735 529.825 66.2814 530.75 68.2078 530.356C68.6208 530.271 68.9928 530.116 69.2495 529.853C69.2495 529.853 75.9902 533.275 77.7942 528.297C79.8912 522.509 73.3733 523.025 73.3733 523.025C73.3733 523.025 77.6769 518.493 73.7003 516.464C69.723 514.434 67.8306 519.956 67.8306 519.956C67.8306 519.956 65.2364 515.974 63.3634 517.678C61.4898 519.381 63.5081 521.712 63.5081 521.712Z" stroke="#2E1E00" stroke-width="2" stroke-miterlimit="10" stroke-linecap="round" stroke-linejoin="round"/>
<path d="M49.8754 543.971C49.8754 543.971 58.0259 543.904 58.6461 536.751C59.2657 529.597 51.8688 532.794 51.8688 532.794C51.8688 532.794 52.0441 526.842 47.4121 526.688C42.7815 526.535 42.4616 532.667 42.4616 532.667C42.4616 532.667 33.9606 530.278 33.8628 536.934C33.7658 543.588 41.1326 541.63 41.1326 541.63C41.1326 541.63 41.444 549.012 45.2622 548.512C49.0805 548.012 49.8754 543.971 49.8754 543.971Z" fill="#FEFFFA"/>
<path d="M49.8754 543.971C49.8754 543.971 58.0259 543.904 58.6461 536.751C59.2657 529.597 51.8688 532.794 51.8688 532.794C51.8688 532.794 52.0441 526.842 47.4121 526.688C42.7815 526.535 42.4616 532.667 42.4616 532.667C42.4616 532.667 33.9606 530.278 33.8628 536.934C33.7658 543.588 41.1326 541.63 41.1326 541.63C41.1326 541.63 41.444 549.012 45.2622 548.512C49.0805 548.012 49.8754 543.971 49.8754 543.971Z" stroke="#2E1E00" stroke-width="2" stroke-miterlimit="10" stroke-linecap="round" stroke-linejoin="round"/>
<path d="M169.8 527.87C169.8 527.87 177.95 527.804 178.57 520.65C179.19 513.496 171.794 516.693 171.794 516.693C171.794 516.693 171.968 510.74 167.337 510.587C162.706 510.434 162.386 516.567 162.386 516.567C162.386 516.567 153.885 514.178 153.787 520.832C153.69 527.487 161.057 525.529 161.057 525.529C161.057 525.529 161.369 532.911 165.187 532.411C169.005 531.911 169.8 527.87 169.8 527.87Z" fill="#FEFFFA"/>
<path d="M169.8 527.87C169.8 527.87 177.95 527.804 178.57 520.65C179.19 513.496 171.794 516.693 171.794 516.693C171.794 516.693 171.968 510.74 167.337 510.587C162.706 510.434 162.386 516.567 162.386 516.567C162.386 516.567 153.885 514.178 153.787 520.832C153.69 527.487 161.057 525.529 161.057 525.529C161.057 525.529 161.369 532.911 165.187 532.411C169.005 531.911 169.8 527.87 169.8 527.87Z" stroke="#2E1E00" stroke-width="2" stroke-miterlimit="10" stroke-linecap="round" stroke-linejoin="round"/>
<path d="M272.287 290.138C272.287 290.138 270.309 293.559 272.061 296.554C273.053 298.251 275.061 299.176 276.987 298.781C277.4 298.696 277.772 298.542 278.029 298.278C278.029 298.278 284.77 301.701 286.573 296.723C288.671 290.934 282.153 291.45 282.153 291.45C282.153 291.45 286.456 286.918 282.48 284.889C278.503 282.86 276.61 288.381 276.61 288.381C276.61 288.381 274.016 284.4 272.143 286.103C270.27 287.807 272.287 290.138 272.287 290.138Z" fill="#FEFFFA"/>
<path d="M272.287 290.138C272.287 290.138 270.309 293.559 272.061 296.554C273.053 298.251 275.061 299.176 276.987 298.781C277.4 298.696 277.772 298.542 278.029 298.278C278.029 298.278 284.77 301.701 286.573 296.723C288.671 290.934 282.153 291.45 282.153 291.45C282.153 291.45 286.456 286.918 282.48 284.889C278.503 282.86 276.61 288.381 276.61 288.381C276.61 288.381 274.016 284.4 272.143 286.103C270.27 287.807 272.287 290.138 272.287 290.138Z" stroke="#2E1E00" stroke-width="2" stroke-miterlimit="10" stroke-linecap="round" stroke-linejoin="round"/>
<path d="M346.805 503.63C346.83 501.666 348.443 500.093 350.408 500.118C352.169 500.143 353.614 501.438 353.879 503.12C354.285 502.964 354.731 502.883 355.192 502.889C357.156 502.914 358.73 504.527 358.705 506.492C358.69 507.651 358.122 508.673 357.254 509.311C357.472 509.448 357.676 509.617 357.863 509.809C359.236 511.216 359.207 513.472 357.8 514.844C356.392 516.216 354.139 516.185 352.767 514.778C352.524 514.529 352.324 514.251 352.171 513.958C352.051 515.834 350.474 517.309 348.572 517.285C346.608 517.26 345.035 515.646 345.06 513.682C345.068 512.829 345.378 512.05 345.887 511.443C343.977 511.361 342.462 509.77 342.486 507.841C342.513 505.875 344.126 504.302 346.091 504.326C346.364 504.33 346.632 504.365 346.889 504.428C346.83 504.172 346.802 503.904 346.805 503.63Z" fill="#FEFFFA"/>
<path d="M346.805 503.63C346.83 501.666 348.443 500.093 350.408 500.118C352.169 500.143 353.614 501.438 353.879 503.12C354.285 502.964 354.731 502.883 355.192 502.889C357.156 502.914 358.73 504.527 358.705 506.492C358.69 507.651 358.122 508.673 357.254 509.311C357.472 509.448 357.676 509.617 357.863 509.809C359.236 511.216 359.207 513.472 357.8 514.844C356.392 516.216 354.139 516.185 352.767 514.778C352.524 514.529 352.324 514.251 352.171 513.958C352.051 515.834 350.474 517.309 348.572 517.285C346.608 517.26 345.035 515.646 345.06 513.682C345.068 512.829 345.378 512.05 345.887 511.443C343.977 511.361 342.462 509.77 342.486 507.841C342.513 505.875 344.126 504.302 346.091 504.326C346.364 504.33 346.632 504.365 346.889 504.428C346.83 504.172 346.802 503.904 346.805 503.63Z" stroke="#2E1E00" stroke-width="2" stroke-miterlimit="10" stroke-linecap="round" stroke-linejoin="round"/>
<path d="M604.257 521.943C604.257 521.943 609.268 522.503 611.872 518.921C613.347 516.891 613.398 514.07 611.949 512.021C611.639 511.582 611.267 511.227 610.828 511.062C610.828 511.062 611.374 501.43 604.631 501.873C596.793 502.389 600.735 509.741 600.735 509.741C600.735 509.741 593.233 507.034 592.9 512.721C592.566 518.409 599.99 517.792 599.99 517.792C599.99 517.792 596.666 522.863 599.616 524.18C602.567 525.496 604.257 521.943 604.257 521.943Z" fill="#FEFFFA"/>
<path d="M604.257 521.943C604.257 521.943 609.268 522.503 611.872 518.921C613.347 516.891 613.398 514.07 611.949 512.021C611.639 511.582 611.267 511.227 610.828 511.062C610.828 511.062 611.374 501.43 604.631 501.873C596.793 502.389 600.735 509.741 600.735 509.741C600.735 509.741 593.233 507.034 592.9 512.721C592.566 518.409 599.99 517.792 599.99 517.792C599.99 517.792 596.666 522.863 599.616 524.18C602.567 525.496 604.257 521.943 604.257 521.943Z" stroke="#2E1E00" stroke-width="2" stroke-miterlimit="10" stroke-linecap="round" stroke-linejoin="round"/>
<path d="M504.227 521.017C504.227 521.017 500.201 522.369 501.053 526.013C501.904 529.656 505.05 526.875 505.05 526.875C505.05 526.875 505.927 529.851 508.245 529.177C510.564 528.503 509.729 525.415 509.729 525.415C509.729 525.415 514.326 525.221 513.297 521.91C512.267 518.599 508.936 520.761 508.936 520.761C508.936 520.761 507.587 517.156 505.776 518.021C503.966 518.887 504.227 521.017 504.227 521.017Z" fill="#FEFFFA"/>
<path d="M504.227 521.017C504.227 521.017 500.201 522.369 501.053 526.013C501.904 529.656 505.05 526.875 505.05 526.875C505.05 526.875 505.927 529.851 508.245 529.177C510.564 528.503 509.729 525.415 509.729 525.415C509.729 525.415 514.326 525.221 513.297 521.91C512.267 518.599 508.936 520.761 508.936 520.761C508.936 520.761 507.587 517.156 505.776 518.021C503.966 518.887 504.227 521.017 504.227 521.017Z" stroke="#2E1E00" stroke-width="2" stroke-miterlimit="10" stroke-linecap="round" stroke-linejoin="round"/>
<path d="M301.102 514.71C301.102 514.71 297.076 516.062 297.927 519.706C298.779 523.349 301.924 520.568 301.924 520.568C301.924 520.568 302.802 523.544 305.12 522.87C307.438 522.197 306.603 519.108 306.603 519.108C306.603 519.108 311.2 518.914 310.171 515.603C309.142 512.292 305.81 514.454 305.81 514.454C305.81 514.454 304.461 510.849 302.651 511.714C300.841 512.58 301.102 514.71 301.102 514.71Z" fill="#FEFFFA"/>
<path d="M301.102 514.71C301.102 514.71 297.076 516.062 297.927 519.706C298.779 523.349 301.924 520.568 301.924 520.568C301.924 520.568 302.802 523.544 305.12 522.87C307.438 522.197 306.603 519.108 306.603 519.108C306.603 519.108 311.2 518.914 310.171 515.603C309.142 512.292 305.81 514.454 305.81 514.454C305.81 514.454 304.461 510.849 302.651 511.714C300.841 512.58 301.102 514.71 301.102 514.71Z" stroke="#2E1E00" stroke-width="2" stroke-miterlimit="10" stroke-linecap="round" stroke-linejoin="round"/>
<path d="M420.513 481.296C420.513 481.296 417.317 482.497 416.846 485.458C416.579 487.136 417.414 488.854 418.918 489.645C419.24 489.815 419.574 489.916 419.889 489.88C419.889 489.88 422.517 495.86 426.45 493.522C431.022 490.804 426.385 487.578 426.385 487.578C426.385 487.578 431.744 486.908 430.198 483.374C428.653 479.839 424.363 482.491 424.363 482.491C424.363 482.491 424.812 478.41 422.627 478.522C420.442 478.633 420.513 481.296 420.513 481.296Z" fill="#FEFFFA"/>
<path d="M420.513 481.296C420.513 481.296 417.317 482.497 416.846 485.458C416.579 487.136 417.414 488.854 418.918 489.645C419.24 489.815 419.574 489.916 419.889 489.88C419.889 489.88 422.517 495.86 426.45 493.522C431.022 490.804 426.385 487.578 426.385 487.578C426.385 487.578 431.744 486.908 430.198 483.374C428.653 479.839 424.363 482.491 424.363 482.491C424.363 482.491 424.812 478.41 422.627 478.522C420.442 478.633 420.513 481.296 420.513 481.296Z" stroke="#2E1E00" stroke-width="2" stroke-miterlimit="10" stroke-linecap="round" stroke-linejoin="round"/>
<path d="M377.291 437.519C377.291 437.519 372.537 435.839 369.19 438.738C367.293 440.381 366.604 443.117 367.551 445.44C367.754 445.939 368.035 446.369 368.426 446.63C368.426 446.63 365.712 455.886 372.38 456.982C380.132 458.257 377.957 450.202 377.957 450.202C377.957 450.202 384.65 454.538 386.264 449.074C387.877 443.61 380.507 442.53 380.507 442.53C380.507 442.53 384.893 438.343 382.317 436.392C379.742 434.442 377.291 437.519 377.291 437.519Z" fill="#FEFFFA"/>
<path d="M377.291 437.519C377.291 437.519 372.537 435.839 369.19 438.738C367.293 440.381 366.604 443.117 367.551 445.44C367.754 445.939 368.035 446.369 368.426 446.63C368.426 446.63 365.712 455.886 372.38 456.982C380.132 458.257 377.957 450.202 377.957 450.202C377.957 450.202 384.65 454.538 386.264 449.074C387.877 443.61 380.507 442.53 380.507 442.53C380.507 442.53 384.893 438.343 382.317 436.392C379.742 434.442 377.291 437.519 377.291 437.519Z" stroke="#2E1E00" stroke-width="2" stroke-miterlimit="10" stroke-linecap="round" stroke-linejoin="round"/>
<path d="M470.096 492.64C470.096 492.64 466.152 494.215 467.206 497.805C468.26 501.395 471.245 498.443 471.245 498.443C471.245 498.443 472.287 501.365 474.564 500.562C476.841 499.76 475.835 496.723 475.835 496.723C475.835 496.723 480.414 496.273 479.202 493.024C477.989 489.776 474.784 492.121 474.784 492.121C474.784 492.121 473.235 488.597 471.476 489.562C469.717 490.528 470.096 492.64 470.096 492.64Z" fill="#FEFFFA"/>
<path d="M470.096 492.64C470.096 492.64 466.152 494.215 467.206 497.805C468.26 501.395 471.245 498.443 471.245 498.443C471.245 498.443 472.287 501.365 474.564 500.562C476.841 499.76 475.835 496.723 475.835 496.723C475.835 496.723 480.414 496.273 479.202 493.024C477.989 489.776 474.784 492.121 474.784 492.121C474.784 492.121 473.235 488.597 471.476 489.562C469.717 490.528 470.096 492.64 470.096 492.64Z" stroke="#2E1E00" stroke-width="2" stroke-miterlimit="10" stroke-linecap="round" stroke-linejoin="round"/>
<path d="M429.663 529.415C429.663 529.415 422.785 527.898 420.884 533.804C418.982 539.709 425.828 538.443 425.828 538.443C425.828 538.443 424.533 543.422 428.404 544.445C432.275 545.468 433.726 540.364 433.726 540.364C433.726 540.364 440.425 544.015 441.791 538.431C443.156 532.845 436.574 533.073 436.574 533.073C436.574 533.073 437.736 526.795 434.423 526.48C431.112 526.164 429.663 529.415 429.663 529.415Z" fill="#FEFFFA"/>
<path d="M429.663 529.415C429.663 529.415 422.785 527.898 420.884 533.804C418.982 539.709 425.828 538.443 425.828 538.443C425.828 538.443 424.533 543.422 428.404 544.445C432.275 545.468 433.726 540.364 433.726 540.364C433.726 540.364 440.425 544.015 441.791 538.431C443.156 532.845 436.574 533.073 436.574 533.073C436.574 533.073 437.736 526.795 434.423 526.48C431.112 526.164 429.663 529.415 429.663 529.415Z" stroke="#2E1E00" stroke-width="2" stroke-miterlimit="10" stroke-linecap="round" stroke-linejoin="round"/>
<path d="M509.967 446.687C509.967 446.687 508.387 439.824 502.237 440.639C496.086 441.454 500.166 447.096 500.166 447.096C500.166 447.096 495.113 448.062 495.85 451.997C496.586 455.932 501.819 455.054 501.819 455.054C501.819 455.054 501.394 462.672 507.025 461.51C512.656 460.348 509.627 454.5 509.627 454.5C509.627 454.5 515.796 452.856 514.66 449.728C513.524 446.602 509.967 446.687 509.967 446.687Z" fill="#FEFFFA"/>
<path d="M509.967 446.687C509.967 446.687 508.387 439.824 502.237 440.639C496.086 441.454 500.166 447.096 500.166 447.096C500.166 447.096 495.113 448.062 495.85 451.997C496.586 455.932 501.819 455.054 501.819 455.054C501.819 455.054 501.394 462.672 507.025 461.51C512.656 460.348 509.627 454.5 509.627 454.5C509.627 454.5 515.796 452.856 514.66 449.728C513.524 446.602 509.967 446.687 509.967 446.687Z" stroke="#2E1E00" stroke-width="2" stroke-miterlimit="10" stroke-linecap="round" stroke-linejoin="round"/>
</svg>
