<svg width="196" height="395" viewBox="0 0 196 395" fill="none" xmlns="http://www.w3.org/2000/svg">
<path d="M161.539 245.756C162.954 245.485 164.486 245.46 165.89 245.798C169.906 246.763 170.638 250.957 168.376 253.94C166.387 256.564 163.687 258.617 161.211 260.756C153.281 267.605 145.197 274.194 136.865 280.55C135.019 281.958 133.169 283.359 131.306 284.743L134.211 338.796C134.211 338.796 137.13 375.699 127.668 379.038C114.338 383.74 116 310.353 116 310.353L109.912 311.999C109.912 311.999 111.819 335.338 97.9756 343.608C84.3915 351.722 46.7667 364.24 46.0078 353.166C45.2909 342.699 88.7275 330.13 88.7275 330.13L90.6171 257.322C91.0129 242.016 91.3708 226.755 92.5651 211.484L101.152 221.992C110.882 217.931 120.199 222.291 120.199 222.291L125.565 212.575C128.973 237.459 128.312 254.844 128.312 254.844L153.766 240.025C153.766 240.025 157.946 237.369 161.178 240.311C162.01 241.067 162.432 242.177 162.366 243.3C162.327 243.975 162.114 244.628 161.735 245.188C154.573 255.783 105.063 289.614 105.063 289.614" fill="#ADF0E7"/>
<path d="M161.539 245.756C162.954 245.485 164.486 245.46 165.89 245.798C169.906 246.763 170.638 250.957 168.376 253.94C166.387 256.564 163.687 258.617 161.211 260.756C153.281 267.605 145.197 274.194 136.865 280.55C135.019 281.958 133.169 283.359 131.306 284.743L134.211 338.796C134.211 338.796 137.13 375.699 127.668 379.038C114.338 383.74 116 310.353 116 310.353L109.912 311.999C109.912 311.999 111.819 335.338 97.9756 343.608C84.3915 351.722 46.7667 364.24 46.0078 353.166C45.2909 342.699 88.7275 330.13 88.7275 330.13L90.6171 257.322C91.0129 242.016 91.3708 226.755 92.5651 211.484L101.152 221.992C110.882 217.931 120.199 222.291 120.199 222.291L125.565 212.575C128.973 237.459 128.312 254.844 128.312 254.844L153.766 240.025C153.766 240.025 157.946 237.369 161.178 240.311C162.01 241.067 162.432 242.177 162.366 243.3C162.327 243.975 162.114 244.628 161.735 245.188C154.573 255.783 105.063 289.614 105.063 289.614" stroke="#2E1E00" stroke-width="0.5" stroke-miterlimit="10" stroke-linecap="round" stroke-linejoin="round"/>
<path d="M20.3442 368.052C20.3442 368.052 18.3614 364.378 14.9743 365.812C11.5872 367.246 14.807 369.828 14.807 369.828C14.807 369.828 12.0708 371.175 13.1109 373.308C14.151 375.442 17.0039 374.117 17.0039 374.117C17.0039 374.117 17.9594 378.537 20.9951 376.987C24.0307 375.437 21.3792 372.571 21.3792 372.571C21.3792 372.571 24.6461 370.661 23.5052 369.052C22.3645 367.444 20.3442 368.052 20.3442 368.052Z" fill="#FEFFFA"/>
<path d="M20.3442 368.052C20.3442 368.052 18.3614 364.378 14.9743 365.812C11.5872 367.246 14.807 369.828 14.807 369.828C14.807 369.828 12.0708 371.175 13.1109 373.308C14.151 375.442 17.0039 374.117 17.0039 374.117C17.0039 374.117 17.9594 378.537 20.9951 376.987C24.0307 375.437 21.3792 372.571 21.3792 372.571C21.3792 372.571 24.6461 370.661 23.5052 369.052C22.3645 367.444 20.3442 368.052 20.3442 368.052Z" stroke="#2E1E00" stroke-width="0.5" stroke-miterlimit="10" stroke-linecap="round" stroke-linejoin="round"/>
<path d="M52.789 381.72C52.789 381.72 50.2988 381.469 49.871 383.632C49.4436 385.795 51.8081 385.066 51.8081 385.066C51.8081 385.066 51.5565 386.877 52.9652 387.078C54.3736 387.279 54.6754 385.418 54.6754 385.418C54.6754 385.418 57.1911 386.43 57.4423 384.402C57.6939 382.374 55.38 382.727 55.38 382.727C55.38 382.727 55.5307 380.463 54.3485 380.488C53.1662 380.513 52.789 381.72 52.789 381.72Z" fill="#FEFFFA"/>
<path d="M52.789 381.72C52.789 381.72 50.2988 381.469 49.871 383.632C49.4436 385.795 51.8081 385.066 51.8081 385.066C51.8081 385.066 51.5565 386.877 52.9652 387.078C54.3736 387.279 54.6754 385.418 54.6754 385.418C54.6754 385.418 57.1911 386.43 57.4423 384.402C57.6939 382.374 55.38 382.727 55.38 382.727C55.38 382.727 55.5307 380.463 54.3485 380.488C53.1662 380.513 52.789 381.72 52.789 381.72Z" stroke="#2E1E00" stroke-width="0.5" stroke-miterlimit="10" stroke-linecap="round" stroke-linejoin="round"/>
<path d="M22.3345 345.184C22.3345 345.184 18.205 344.767 17.496 348.354C16.7866 351.941 20.7079 350.732 20.7079 350.732C20.7079 350.732 20.2907 353.735 22.6263 354.068C24.9623 354.402 25.4627 351.315 25.4627 351.315C25.4627 351.315 29.6342 352.994 30.0513 349.631C30.4681 346.268 26.6309 346.852 26.6309 346.852C26.6309 346.852 26.8811 343.098 24.9206 343.14C22.9602 343.182 22.3345 345.184 22.3345 345.184Z" fill="#FEFFFA"/>
<path d="M22.3345 345.184C22.3345 345.184 18.205 344.767 17.496 348.354C16.7866 351.941 20.7079 350.732 20.7079 350.732C20.7079 350.732 20.2907 353.735 22.6263 354.068C24.9623 354.402 25.4627 351.315 25.4627 351.315C25.4627 351.315 29.6342 352.994 30.0513 349.631C30.4681 346.268 26.6309 346.852 26.6309 346.852C26.6309 346.852 26.8811 343.098 24.9206 343.14C22.9602 343.182 22.3345 345.184 22.3345 345.184Z" stroke="#2E1E00" stroke-width="0.5" stroke-miterlimit="10" stroke-linecap="round" stroke-linejoin="round"/>
<path d="M167.398 361.608C167.398 361.608 171.549 361.575 171.864 357.932C172.18 354.289 168.414 355.917 168.414 355.917C168.414 355.917 168.502 352.886 166.144 352.808C163.786 352.729 163.623 355.852 163.623 355.852C163.623 355.852 159.294 354.636 159.245 358.024C159.195 361.413 162.946 360.416 162.946 360.416C162.946 360.416 163.105 364.175 165.049 363.921C166.994 363.667 167.398 361.608 167.398 361.608Z" fill="#FEFFFA"/>
<path d="M167.398 361.608C167.398 361.608 171.549 361.575 171.864 357.932C172.18 354.289 168.414 355.917 168.414 355.917C168.414 355.917 168.502 352.886 166.144 352.808C163.786 352.729 163.623 355.852 163.623 355.852C163.623 355.852 159.294 354.636 159.245 358.024C159.195 361.413 162.946 360.416 162.946 360.416C162.946 360.416 163.105 364.175 165.049 363.921C166.994 363.667 167.398 361.608 167.398 361.608Z" stroke="#2E1E00" stroke-width="0.5" stroke-miterlimit="10" stroke-linecap="round" stroke-linejoin="round"/>
<path d="M157.628 193.037C157.628 193.037 161.778 193.004 162.094 189.361C162.409 185.718 158.643 187.346 158.643 187.346C158.643 187.346 158.732 184.315 156.374 184.237C154.015 184.158 153.852 187.281 153.852 187.281C153.852 187.281 149.524 186.065 149.474 189.453C149.424 192.842 153.176 191.845 153.176 191.845C153.176 191.845 153.334 195.604 155.279 195.35C157.223 195.096 157.628 193.037 157.628 193.037Z" fill="#FEFFFA"/>
<path d="M157.628 193.037C157.628 193.037 161.778 193.004 162.094 189.361C162.409 185.718 158.643 187.346 158.643 187.346C158.643 187.346 158.732 184.315 156.374 184.237C154.015 184.158 153.852 187.281 153.852 187.281C153.852 187.281 149.524 186.065 149.474 189.453C149.424 192.842 153.176 191.845 153.176 191.845C153.176 191.845 153.334 195.604 155.279 195.35C157.223 195.096 157.628 193.037 157.628 193.037Z" stroke="#2E1E00" stroke-width="0.5" stroke-miterlimit="10" stroke-linecap="round" stroke-linejoin="round"/>
<path d="M39.5736 381.417C39.5736 381.417 42.6489 381.094 42.4713 383.563C42.2937 386.032 39.4352 384.92 39.4352 384.92C39.4352 384.92 39.9519 388.644 37.2948 388.233C34.6374 387.822 35.4703 383.702 35.4703 383.702C35.4703 383.702 33.4169 381.854 34.6036 380.182C35.7904 378.509 39.1957 379.441 39.5736 381.417Z" fill="#FEFFFA"/>
<path d="M39.5736 381.417C39.5736 381.417 42.6489 381.094 42.4713 383.563C42.2937 386.032 39.4352 384.92 39.4352 384.92C39.4352 384.92 39.9519 388.644 37.2948 388.233C34.6374 387.822 35.4703 383.702 35.4703 383.702C35.4703 383.702 33.4169 381.854 34.6036 380.182C35.7904 378.509 39.1957 379.441 39.5736 381.417Z" stroke="#2E1E00" stroke-width="0.5" stroke-miterlimit="10" stroke-linecap="round" stroke-linejoin="round"/>
<path d="M70.7414 382.899C71.5024 383.772 71.4112 385.098 70.5383 385.859C69.755 386.539 68.6109 386.538 67.8338 385.903C67.7171 386.131 67.5529 386.341 67.3481 386.52C66.4749 387.281 65.1502 387.19 64.3892 386.317C63.9404 385.802 63.7883 385.13 63.9191 384.508C63.7693 384.534 63.6138 384.54 63.4558 384.529C62.3 384.45 61.4265 383.448 61.506 382.292C61.5852 381.136 62.5874 380.265 63.7428 380.344C63.9476 380.358 64.1448 380.401 64.3269 380.47C63.6427 379.599 63.7559 378.331 64.6012 377.595C65.4741 376.834 66.7992 376.925 67.5598 377.798C67.8909 378.176 68.0609 378.64 68.0757 379.107C68.9475 378.393 70.2379 378.496 70.9847 379.353C71.7457 380.228 71.6545 381.553 70.7817 382.314C70.6602 382.42 70.529 382.51 70.391 382.582C70.5177 382.671 70.6357 382.778 70.7414 382.899Z" fill="#FEFFFA"/>
<path d="M70.7414 382.899C71.5024 383.772 71.4112 385.098 70.5383 385.859C69.755 386.539 68.6109 386.538 67.8338 385.903C67.7171 386.131 67.5529 386.341 67.3481 386.52C66.4749 387.281 65.1502 387.19 64.3892 386.317C63.9404 385.802 63.7883 385.13 63.9191 384.508C63.7693 384.534 63.6138 384.54 63.4558 384.529C62.3 384.45 61.4265 383.448 61.506 382.292C61.5852 381.136 62.5874 380.265 63.7428 380.344C63.9476 380.358 64.1448 380.401 64.3269 380.47C63.6427 379.599 63.7559 378.331 64.6012 377.595C65.4741 376.834 66.7992 376.925 67.5598 377.798C67.8909 378.176 68.0609 378.64 68.0757 379.107C68.9475 378.393 70.2379 378.496 70.9847 379.353C71.7457 380.228 71.6545 381.553 70.7817 382.314C70.6602 382.42 70.529 382.51 70.391 382.582C70.5177 382.671 70.6357 382.778 70.7414 382.899Z" stroke="#2E1E00" stroke-width="0.5" stroke-miterlimit="10" stroke-linecap="round" stroke-linejoin="round"/>
<path d="M39.4918 299.902C40.6352 300.086 41.4134 301.163 41.2296 302.306C41.0633 303.331 40.1833 304.061 39.1796 304.071C39.2357 304.32 39.245 304.588 39.202 304.856C39.0182 305.999 37.942 306.777 36.7986 306.594C36.124 306.485 35.5767 306.066 35.2797 305.505C35.1809 305.62 35.0653 305.725 34.9369 305.818C33.998 306.496 32.6856 306.285 32.0069 305.347C31.3282 304.407 31.5402 303.097 32.4788 302.418C32.645 302.298 32.8243 302.205 33.0085 302.141C31.9246 301.909 31.2005 300.863 31.3784 299.756C31.5622 298.613 32.6385 297.835 33.7818 298.018C34.2782 298.097 34.706 298.345 35.0157 298.694C35.2284 297.587 36.2861 296.841 37.4088 297.021C38.5532 297.206 39.3314 298.283 39.1476 299.426C39.1222 299.585 39.0788 299.738 39.0196 299.882C39.1734 299.87 39.3324 299.877 39.4918 299.902Z" fill="#FEFFFA"/>
<path d="M39.4918 299.902C40.6352 300.086 41.4134 301.163 41.2296 302.306C41.0633 303.331 40.1833 304.061 39.1796 304.071C39.2357 304.32 39.245 304.588 39.202 304.856C39.0182 305.999 37.942 306.777 36.7986 306.594C36.124 306.485 35.5767 306.066 35.2797 305.505C35.1809 305.62 35.0653 305.725 34.9369 305.818C33.998 306.496 32.6856 306.285 32.0069 305.347C31.3282 304.407 31.5402 303.097 32.4788 302.418C32.645 302.298 32.8243 302.205 33.0085 302.141C31.9246 301.909 31.2005 300.863 31.3784 299.756C31.5622 298.613 32.6385 297.835 33.7818 298.018C34.2782 298.097 34.706 298.345 35.0157 298.694C35.2284 297.587 36.2861 296.841 37.4088 297.021C38.5532 297.206 39.3314 298.283 39.1476 299.426C39.1222 299.585 39.0788 299.738 39.0196 299.882C39.1734 299.87 39.3324 299.877 39.4918 299.902Z" stroke="#2E1E00" stroke-width="0.5" stroke-miterlimit="10" stroke-linecap="round" stroke-linejoin="round"/>
<path d="M171.62 335.366C172.763 335.549 173.541 336.626 173.358 337.769C173.191 338.794 172.311 339.524 171.308 339.534C171.364 339.783 171.373 340.051 171.33 340.319C171.146 341.462 170.07 342.24 168.927 342.057C168.252 341.948 167.705 341.529 167.408 340.968C167.309 341.083 167.193 341.188 167.065 341.28C166.126 341.959 164.814 341.748 164.135 340.81C163.456 339.871 163.668 338.56 164.607 337.881C164.773 337.761 164.952 337.668 165.136 337.604C164.053 337.372 163.328 336.326 163.506 335.219C163.69 334.076 164.766 333.298 165.91 333.482C166.406 333.56 166.834 333.807 167.144 334.157C167.356 333.05 168.414 332.303 169.537 332.484C170.681 332.67 171.459 333.746 171.276 334.889C171.25 335.048 171.207 335.201 171.148 335.345C171.302 335.334 171.461 335.34 171.62 335.366Z" fill="#FEFFFA"/>
<path d="M171.62 335.366C172.763 335.549 173.541 336.626 173.358 337.769C173.191 338.794 172.311 339.524 171.308 339.534C171.364 339.783 171.373 340.051 171.33 340.319C171.146 341.462 170.07 342.24 168.927 342.057C168.252 341.948 167.705 341.529 167.408 340.968C167.309 341.083 167.193 341.188 167.065 341.28C166.126 341.959 164.814 341.748 164.135 340.81C163.456 339.871 163.668 338.56 164.607 337.881C164.773 337.761 164.952 337.668 165.136 337.604C164.053 337.372 163.328 336.326 163.506 335.219C163.69 334.076 164.766 333.298 165.91 333.482C166.406 333.56 166.834 333.807 167.144 334.157C167.356 333.05 168.414 332.303 169.537 332.484C170.681 332.67 171.459 333.746 171.276 334.889C171.25 335.048 171.207 335.201 171.148 335.345C171.302 335.334 171.461 335.34 171.62 335.366Z" stroke="#2E1E00" stroke-width="0.5" stroke-miterlimit="10" stroke-linecap="round" stroke-linejoin="round"/>
<path d="M31.5175 386.989C31.3227 388.13 30.2392 388.898 29.0976 388.703C28.0747 388.527 27.3523 387.64 27.3523 386.636C27.102 386.69 26.835 386.697 26.5668 386.651C25.4255 386.456 24.6577 385.373 24.8525 384.231C24.9674 383.558 25.3918 383.015 25.9556 382.723C25.8413 382.623 25.738 382.506 25.6465 382.377C24.9767 381.432 25.2004 380.121 26.1456 379.452C27.0907 378.782 28.3999 379.007 29.0694 379.952C29.1881 380.119 29.279 380.299 29.3413 380.484C29.5832 379.402 30.6364 378.688 31.7416 378.877C32.8829 379.072 33.6508 380.156 33.456 381.297C33.3727 381.792 33.1211 382.218 32.769 382.525C33.8734 382.747 34.6096 383.812 34.4183 384.933C34.2221 386.075 33.1386 386.844 31.997 386.649C31.8383 386.621 31.6855 386.577 31.542 386.516C31.553 386.671 31.5447 386.83 31.5175 386.989Z" fill="#FEFFFA"/>
<path d="M31.5175 386.989C31.3227 388.13 30.2392 388.898 29.0976 388.703C28.0747 388.527 27.3523 387.64 27.3523 386.636C27.102 386.69 26.835 386.697 26.5668 386.651C25.4255 386.456 24.6577 385.373 24.8525 384.231C24.9674 383.558 25.3918 383.015 25.9556 382.723C25.8413 382.623 25.738 382.506 25.6465 382.377C24.9767 381.432 25.2004 380.121 26.1456 379.452C27.0907 378.782 28.3999 379.007 29.0694 379.952C29.1881 380.119 29.279 380.299 29.3413 380.484C29.5832 379.402 30.6364 378.688 31.7416 378.877C32.8829 379.072 33.6508 380.156 33.456 381.297C33.3727 381.792 33.1211 382.218 32.769 382.525C33.8734 382.747 34.6096 383.812 34.4183 384.933C34.2221 386.075 33.1386 386.844 31.997 386.649C31.8383 386.621 31.6855 386.577 31.542 386.516C31.553 386.671 31.5447 386.83 31.5175 386.989Z" stroke="#2E1E00" stroke-width="0.5" stroke-miterlimit="10" stroke-linecap="round" stroke-linejoin="round"/>
<path d="M47.8808 386.989C47.686 388.13 46.6025 388.898 45.4609 388.703C44.438 388.527 43.7155 387.64 43.7155 386.636C43.4653 386.69 43.1982 386.697 42.9301 386.651C41.7888 386.456 41.0209 385.373 41.2158 384.231C41.3307 383.558 41.7551 383.015 42.3189 382.723C42.2046 382.623 42.1013 382.506 42.0098 382.377C41.34 381.432 41.5637 380.121 42.5088 379.452C43.454 378.782 44.7632 379.007 45.4327 379.952C45.5514 380.119 45.6423 380.299 45.7046 380.484C45.9465 379.402 46.9997 378.688 48.1049 378.877C49.2462 379.072 50.014 380.156 49.8192 381.297C49.7359 381.792 49.4843 382.218 49.1323 382.525C50.2367 382.747 50.9729 383.812 50.7816 384.933C50.5854 386.075 49.5019 386.844 48.3603 386.649C48.2016 386.621 48.0488 386.577 47.9052 386.516C47.9163 386.671 47.908 386.83 47.8808 386.989Z" fill="#FEFFFA"/>
<path d="M47.8808 386.989C47.686 388.13 46.6025 388.898 45.4609 388.703C44.438 388.527 43.7155 387.64 43.7155 386.636C43.4653 386.69 43.1982 386.697 42.9301 386.651C41.7888 386.456 41.0209 385.373 41.2158 384.231C41.3307 383.558 41.7551 383.015 42.3189 382.723C42.2046 382.623 42.1013 382.506 42.0098 382.377C41.34 381.432 41.5637 380.121 42.5088 379.452C43.454 378.782 44.7632 379.007 45.4327 379.952C45.5514 380.119 45.6423 380.299 45.7046 380.484C45.9465 379.402 46.9997 378.688 48.1049 378.877C49.2462 379.072 50.014 380.156 49.8192 381.297C49.7359 381.792 49.4843 382.218 49.1323 382.525C50.2367 382.747 50.9729 383.812 50.7816 384.933C50.5854 386.075 49.5019 386.844 48.3603 386.649C48.2016 386.621 48.0488 386.577 47.9052 386.516C47.9163 386.671 47.908 386.83 47.8808 386.989Z" stroke="#2E1E00" stroke-width="0.5" stroke-miterlimit="10" stroke-linecap="round" stroke-linejoin="round"/>
<path d="M36.4296 367.033C36.4296 367.033 32.276 366.613 31.5629 370.222C30.8494 373.83 34.7934 372.614 34.7934 372.614C34.7934 372.614 34.3738 375.634 36.7232 375.97C39.0729 376.306 39.5761 373.201 39.5761 373.201C39.5761 373.201 43.7717 374.889 44.1912 371.506C44.6108 368.124 40.7511 368.712 40.7511 368.712C40.7511 368.712 41.0027 364.935 39.0309 364.977C37.0591 365.019 36.4296 367.033 36.4296 367.033Z" fill="#FEFFFA"/>
<path d="M36.4296 367.033C36.4296 367.033 32.276 366.613 31.5629 370.222C30.8494 373.83 34.7934 372.614 34.7934 372.614C34.7934 372.614 34.3738 375.634 36.7232 375.97C39.0729 376.306 39.5761 373.201 39.5761 373.201C39.5761 373.201 43.7717 374.889 44.1912 371.506C44.6108 368.124 40.7511 368.712 40.7511 368.712C40.7511 368.712 41.0027 364.935 39.0309 364.977C37.0591 365.019 36.4296 367.033 36.4296 367.033Z" stroke="#2E1E00" stroke-width="0.5" stroke-miterlimit="10" stroke-linecap="round" stroke-linejoin="round"/>
<path d="M163.935 373.624C165.071 373.851 165.807 374.956 165.58 376.092C165.375 377.11 164.468 377.806 163.465 377.778C163.511 378.029 163.51 378.297 163.457 378.563C163.23 379.698 162.124 380.435 160.989 380.208C160.319 380.074 159.788 379.634 159.513 379.062C159.41 379.173 159.29 379.273 159.158 379.361C158.195 380.003 156.891 379.743 156.248 378.779C155.606 377.815 155.868 376.513 156.832 375.871C157.002 375.757 157.185 375.671 157.371 375.614C156.297 375.342 155.613 374.269 155.833 373.169C156.06 372.034 157.165 371.297 158.301 371.524C158.794 371.622 159.212 371.886 159.508 372.246C159.763 371.149 160.849 370.443 161.963 370.666C163.1 370.895 163.836 372 163.609 373.135C163.578 373.293 163.529 373.444 163.464 373.587C163.618 373.58 163.777 373.592 163.935 373.624Z" fill="#FEFFFA"/>
<path d="M163.935 373.624C165.071 373.851 165.807 374.956 165.58 376.092C165.375 377.11 164.468 377.806 163.465 377.778C163.511 378.029 163.51 378.297 163.457 378.563C163.23 379.698 162.124 380.435 160.989 380.208C160.319 380.074 159.788 379.634 159.513 379.062C159.41 379.173 159.29 379.273 159.158 379.361C158.195 380.003 156.891 379.743 156.248 378.779C155.606 377.815 155.868 376.513 156.832 375.871C157.002 375.757 157.185 375.671 157.371 375.614C156.297 375.342 155.613 374.269 155.833 373.169C156.06 372.034 157.165 371.297 158.301 371.524C158.794 371.622 159.212 371.886 159.508 372.246C159.763 371.149 160.849 370.443 161.963 370.666C163.1 370.895 163.836 372 163.609 373.135C163.578 373.293 163.529 373.444 163.464 373.587C163.618 373.58 163.777 373.592 163.935 373.624Z" stroke="#2E1E00" stroke-width="0.5" stroke-miterlimit="10" stroke-linecap="round" stroke-linejoin="round"/>
<path d="M12.5691 332.399C12.5691 332.399 11.9692 329.489 9.48695 328.683C8.08063 328.226 6.49017 328.711 5.60597 329.897C5.41632 330.15 5.28484 330.424 5.27245 330.7C5.27245 330.7 -0.225143 332.15 1.25208 335.848C2.96989 340.147 6.37177 336.597 6.37177 336.597C6.37177 336.597 6.22205 341.295 9.47043 340.446C12.7191 339.596 11.0199 335.548 11.0199 335.548C11.0199 335.548 14.4683 336.487 14.6682 334.593C14.8682 332.7 12.5691 332.399 12.5691 332.399Z" fill="#FEFFFA"/>
<path d="M12.5691 332.399C12.5691 332.399 11.9692 329.489 9.48695 328.683C8.08063 328.226 6.49017 328.711 5.60597 329.897C5.41632 330.15 5.28485 330.424 5.27245 330.7C5.27245 330.7 -0.225143 332.15 1.25208 335.848C2.96989 340.147 6.37177 336.597 6.37177 336.597C6.37177 336.597 6.22205 341.295 9.47043 340.446C12.7191 339.596 11.0199 335.548 11.0199 335.548C11.0199 335.548 14.4683 336.487 14.6682 334.593C14.8682 332.7 12.5691 332.399 12.5691 332.399Z" stroke="#2E1E00" stroke-width="0.5" stroke-miterlimit="10" stroke-linecap="round" stroke-linejoin="round"/>
<path d="M181.272 362.574C181.272 362.574 180.866 360.603 179.185 360.057C178.233 359.749 177.156 360.077 176.557 360.88C176.429 361.052 176.34 361.237 176.331 361.424C176.331 361.424 172.609 362.405 173.609 364.909C174.772 367.82 177.076 365.417 177.076 365.417C177.076 365.417 176.974 368.598 179.174 368.022C181.373 367.447 180.223 364.706 180.223 364.706C180.223 364.706 182.558 365.342 182.693 364.059C182.828 362.777 181.272 362.574 181.272 362.574Z" fill="#FEFFFA"/>
<path d="M181.272 362.574C181.272 362.574 180.866 360.603 179.185 360.057C178.233 359.749 177.156 360.077 176.557 360.88C176.429 361.052 176.34 361.237 176.331 361.424C176.331 361.424 172.609 362.405 173.609 364.909C174.772 367.82 177.076 365.417 177.076 365.417C177.076 365.417 176.974 368.598 179.174 368.022C181.373 367.447 180.223 364.706 180.223 364.706C180.223 364.706 182.558 365.342 182.693 364.059C182.828 362.777 181.272 362.574 181.272 362.574Z" stroke="#2E1E00" stroke-width="0.5" stroke-miterlimit="10" stroke-linecap="round" stroke-linejoin="round"/>
<path d="M131.306 284.744L130.02 271.869" stroke="#2E1E00" stroke-width="0.5" stroke-miterlimit="10" stroke-linecap="round" stroke-linejoin="round"/>
<path d="M104.801 311.53C104.801 311.53 112.943 313.123 118.004 308.679" stroke="#2E1E00" stroke-width="0.5" stroke-miterlimit="10" stroke-linecap="round" stroke-linejoin="round"/>
<path d="M91.2805 234.647L99.6551 238.297L91.0361 241.872L91.2805 234.647Z" fill="#2E1E00"/>
<path d="M91.2805 234.647L99.6551 238.297L91.0361 241.872L91.2805 234.647Z" stroke="#2E1E00" stroke-width="0.5" stroke-miterlimit="10" stroke-linecap="round" stroke-linejoin="round"/>
<path d="M91.1684 245.756L97.9522 248.194L90.8428 250.171L91.1684 245.756Z" fill="#2E1E00"/>
<path d="M91.1684 245.756L97.9522 248.194L90.8428 250.171L91.1684 245.756Z" stroke="#2E1E00" stroke-width="0.5" stroke-miterlimit="10" stroke-linecap="round" stroke-linejoin="round"/>
<path d="M113.399 238.802C113.399 238.802 114.184 243.491 118.695 243.088" stroke="#2E1E00" stroke-width="0.5" stroke-miterlimit="10" stroke-linecap="round" stroke-linejoin="round"/>
<path d="M121.717 236.53C122.528 237.3 122.563 238.581 121.793 239.393C121.024 240.204 119.742 240.239 118.931 239.469C118.119 238.7 118.085 237.418 118.854 236.607C119.624 235.796 120.905 235.761 121.717 236.53Z" fill="#2E1E00"/>
<path d="M114.588 233.738C115.057 234.183 115.077 234.925 114.632 235.394C114.187 235.864 113.445 235.884 112.976 235.439C112.506 234.994 112.487 234.253 112.932 233.783C113.377 233.313 114.118 233.293 114.588 233.738Z" fill="#2E1E00"/>
<path d="M113.62 227.626C114.24 228.502 113.428 230.143 111.805 231.292C110.182 232.442 108.364 232.664 107.744 231.789C107.124 230.914 107.937 229.273 109.56 228.123C111.182 226.974 113 226.751 113.62 227.626Z" fill="#2E1E00"/>
<path d="M123.613 233.738C123.143 234.183 123.123 234.925 123.568 235.394C124.014 235.864 124.755 235.884 125.224 235.439C125.694 234.994 125.714 234.253 125.268 233.783C124.823 233.313 124.082 233.293 123.613 233.738Z" fill="#2E1E00"/>
<path d="M124.579 227.626C123.959 228.502 124.772 230.143 126.395 231.292C128.017 232.442 129.835 232.664 130.455 231.789C131.075 230.914 130.263 229.273 128.64 228.123C127.017 226.974 125.199 226.751 124.579 227.626Z" fill="#2E1E00"/>
<path d="M131.305 284.743L130.02 271.869" stroke="#2E1E00" stroke-width="0.5" stroke-miterlimit="10" stroke-linecap="round" stroke-linejoin="round"/>
<path d="M90.6807 254.843C90.6807 254.843 114.246 262.331 128.311 252.995" stroke="#FEFFFA" stroke-width="0.5" stroke-miterlimit="10" stroke-linecap="round" stroke-linejoin="round"/>
<path d="M118.508 261.381L118.415 257.322" stroke="#FEFFFA" stroke-width="0.5" stroke-miterlimit="10" stroke-linecap="round" stroke-linejoin="round"/>
<path d="M128.313 254.843L97.9521 275.462" stroke="#2E1E00" stroke-width="0.5" stroke-miterlimit="10" stroke-linecap="round" stroke-linejoin="round"/>
<path d="M140.442 339.881L113.16 339.07L115.92 379.254H148.001C148.001 379.254 155.038 366.49 138.105 364.38L140.442 339.881Z" fill="#FA6456"/>
<path d="M140.442 339.881L113.16 339.07L115.92 379.254H148.001C148.001 379.254 155.038 366.49 138.105 364.38L140.442 339.881Z" stroke="#2E1E00" stroke-width="0.5" stroke-miterlimit="10" stroke-linecap="round" stroke-linejoin="round"/>
<path d="M85.5058 356.712L77.4981 330.619L40.3369 346.157L50.6561 376.533C50.6561 376.533 65.0064 379.091 61.5567 362.379L85.5058 356.712Z" fill="#FA6456"/>
<path d="M85.5058 356.712L77.4981 330.619L40.3369 346.157L50.6561 376.533C50.6561 376.533 65.0064 379.091 61.5567 362.379L85.5058 356.712Z" stroke="#2E1E00" stroke-width="0.5" stroke-miterlimit="10" stroke-linecap="round" stroke-linejoin="round"/>
<path d="M83.4197 357.031C83.4197 357.031 82.8198 354.12 80.3375 353.314C78.9312 352.857 77.3408 353.343 76.4566 354.528C76.2669 354.782 76.1354 355.055 76.123 355.332C76.123 355.332 70.6254 356.781 72.1027 360.479C73.8205 364.779 77.2224 361.229 77.2224 361.229C77.2224 361.229 77.0726 365.927 80.321 365.077C83.5697 364.228 81.8705 360.18 81.8705 360.18C81.8705 360.18 85.3189 361.118 85.5188 359.225C85.7188 357.331 83.4197 357.031 83.4197 357.031Z" fill="#FEFFFA"/>
<path d="M83.4197 357.031C83.4197 357.031 82.8198 354.12 80.3375 353.314C78.9312 352.857 77.3408 353.343 76.4566 354.528C76.2669 354.782 76.1354 355.055 76.123 355.332C76.123 355.332 70.6254 356.781 72.1027 360.479C73.8205 364.779 77.2224 361.229 77.2224 361.229C77.2224 361.229 77.0726 365.927 80.321 365.077C83.5697 364.228 81.8705 360.18 81.8705 360.18C81.8705 360.18 85.3189 361.118 85.5188 359.225C85.7188 357.331 83.4197 357.031 83.4197 357.031Z" stroke="#2E1E00" stroke-width="0.5" stroke-miterlimit="10" stroke-linecap="round" stroke-linejoin="round"/>
<path d="M41.3261 352.024C41.3261 352.024 38.8359 351.772 38.4081 353.936C37.9807 356.098 40.3452 355.369 40.3452 355.369C40.3452 355.369 40.0936 357.18 41.5023 357.382C42.9107 357.583 43.2125 355.721 43.2125 355.721C43.2125 355.721 45.7282 356.734 45.9794 354.706C46.231 352.678 43.9171 353.03 43.9171 353.03C43.9171 353.03 44.0678 350.767 42.8856 350.791C41.7033 350.816 41.3261 352.024 41.3261 352.024Z" fill="#FEFFFA"/>
<path d="M41.3261 352.024C41.3261 352.024 38.8359 351.772 38.4081 353.936C37.9807 356.098 40.3452 355.369 40.3452 355.369C40.3452 355.369 40.0936 357.18 41.5023 357.382C42.9107 357.583 43.2125 355.721 43.2125 355.721C43.2125 355.721 45.7282 356.734 45.9794 354.706C46.231 352.678 43.9171 353.03 43.9171 353.03C43.9171 353.03 44.0678 350.767 42.8856 350.791C41.7033 350.816 41.3261 352.024 41.3261 352.024Z" stroke="#2E1E00" stroke-width="0.5" stroke-miterlimit="10" stroke-linecap="round" stroke-linejoin="round"/>
<path d="M113.573 375.821C113.573 375.821 109.443 375.404 108.734 378.991C108.025 382.579 111.946 381.369 111.946 381.369C111.946 381.369 111.529 384.372 113.865 384.706C116.201 385.039 116.701 381.953 116.701 381.953C116.701 381.953 120.872 383.632 121.29 380.268C121.706 376.905 117.869 377.49 117.869 377.49C117.869 377.49 118.119 373.736 116.159 373.778C114.199 373.82 113.573 375.821 113.573 375.821Z" fill="#FEFFFA"/>
<path d="M113.573 375.821C113.573 375.821 109.443 375.404 108.734 378.991C108.025 382.579 111.946 381.369 111.946 381.369C111.946 381.369 111.529 384.372 113.865 384.706C116.201 385.039 116.701 381.953 116.701 381.953C116.701 381.953 120.872 383.632 121.29 380.268C121.706 376.905 117.869 377.49 117.869 377.49C117.869 377.49 118.119 373.736 116.159 373.778C114.199 373.82 113.573 375.821 113.573 375.821Z" stroke="#2E1E00" stroke-width="0.5" stroke-miterlimit="10" stroke-linecap="round" stroke-linejoin="round"/>
<path d="M152.593 364.601C152.593 364.601 151.993 361.69 149.51 360.884C148.104 360.427 146.514 360.912 145.629 362.098C145.44 362.352 145.308 362.625 145.296 362.901C145.296 362.901 139.798 364.351 141.276 368.049C142.993 372.349 146.395 368.799 146.395 368.799C146.395 368.799 146.245 373.497 149.494 372.647C152.743 371.798 151.043 367.75 151.043 367.75C151.043 367.75 154.492 368.688 154.692 366.795C154.892 364.9 152.593 364.601 152.593 364.601Z" fill="#FEFFFA"/>
<path d="M152.593 364.601C152.593 364.601 151.993 361.69 149.51 360.884C148.104 360.427 146.514 360.912 145.629 362.098C145.44 362.352 145.308 362.625 145.296 362.901C145.296 362.901 139.798 364.351 141.276 368.049C142.993 372.349 146.395 368.799 146.395 368.799C146.395 368.799 146.245 373.497 149.494 372.647C152.743 371.798 151.043 367.75 151.043 367.75C151.043 367.75 154.492 368.688 154.692 366.795C154.892 364.9 152.593 364.601 152.593 364.601Z" stroke="#2E1E00" stroke-width="0.5" stroke-miterlimit="10" stroke-linecap="round" stroke-linejoin="round"/>
<path d="M43.4919 384.035C43.4919 384.035 42.892 381.124 40.4098 380.318C39.0035 379.862 37.413 380.347 36.5288 381.532C36.3392 381.786 36.2077 382.06 36.1953 382.336C36.1953 382.336 30.6977 383.785 32.1749 387.483C33.8927 391.783 37.2946 388.233 37.2946 388.233C37.2946 388.233 37.1449 392.931 40.3933 392.081C43.642 391.232 41.9428 387.184 41.9428 387.184C41.9428 387.184 45.3911 388.123 45.5911 386.229C45.7911 384.335 43.4919 384.035 43.4919 384.035Z" fill="#FEFFFA"/>
<path d="M43.4919 384.035C43.4919 384.035 42.892 381.124 40.4098 380.318C39.0035 379.862 37.413 380.347 36.5288 381.532C36.3392 381.786 36.2077 382.06 36.1953 382.336C36.1953 382.336 30.6977 383.785 32.1749 387.483C33.8927 391.783 37.2946 388.233 37.2946 388.233C37.2946 388.233 37.1449 392.931 40.3933 392.081C43.642 391.232 41.9428 387.184 41.9428 387.184C41.9428 387.184 45.3911 388.123 45.5911 386.229C45.7911 384.335 43.4919 384.035 43.4919 384.035Z" stroke="#2E1E00" stroke-width="0.5" stroke-miterlimit="10" stroke-linecap="round" stroke-linejoin="round"/>
<path d="M106.816 363.259C106.816 363.259 104.326 363.007 103.898 365.171C103.471 367.334 105.835 366.604 105.835 366.604C105.835 366.604 105.584 368.416 106.993 368.617C108.401 368.818 108.703 366.957 108.703 366.957C108.703 366.957 111.218 367.969 111.47 365.941C111.721 363.913 109.407 364.265 109.407 364.265C109.407 364.265 109.558 362.002 108.376 362.027C107.194 362.052 106.816 363.259 106.816 363.259Z" fill="#FEFFFA"/>
<path d="M106.816 363.259C106.816 363.259 104.326 363.007 103.898 365.171C103.471 367.334 105.835 366.604 105.835 366.604C105.835 366.604 105.584 368.416 106.993 368.617C108.401 368.818 108.703 366.957 108.703 366.957C108.703 366.957 111.218 367.969 111.47 365.941C111.721 363.913 109.407 364.265 109.407 364.265C109.407 364.265 109.558 362.002 108.376 362.027C107.194 362.052 106.816 363.259 106.816 363.259Z" stroke="#2E1E00" stroke-width="0.5" stroke-miterlimit="10" stroke-linecap="round" stroke-linejoin="round"/>
<path d="M135.354 141.707C135.354 141.707 137.821 141.289 137.66 139.089C137.499 136.89 135.412 138.221 135.412 138.221C135.412 138.221 135.174 136.408 133.763 136.587C132.351 136.767 132.554 138.642 132.554 138.642C132.554 138.642 129.86 138.333 130.155 140.355C130.451 142.377 132.589 141.424 132.589 141.424C132.589 141.424 133.043 143.646 134.177 143.309C135.31 142.971 135.354 141.707 135.354 141.707Z" fill="#FEFFFA"/>
<path d="M135.354 141.707C135.354 141.707 137.821 141.289 137.66 139.089C137.499 136.89 135.412 138.221 135.412 138.221C135.412 138.221 135.174 136.408 133.763 136.587C132.351 136.767 132.554 138.642 132.554 138.642C132.554 138.642 129.86 138.333 130.155 140.355C130.451 142.377 132.589 141.424 132.589 141.424C132.589 141.424 133.043 143.646 134.177 143.309C135.31 142.971 135.354 141.707 135.354 141.707Z" stroke="#2E1E00" stroke-width="0.5" stroke-miterlimit="10" stroke-linecap="round" stroke-linejoin="round"/>
<path d="M95.7116 357.878C95.7116 357.878 96.1012 360.109 98.0905 359.953C100.08 359.797 98.8667 357.915 98.8667 357.915C98.8667 357.915 100.506 357.691 100.337 356.415C100.168 355.138 98.4726 355.33 98.4726 355.33C98.4726 355.33 98.74 352.891 96.911 353.167C95.0824 353.444 95.9549 355.374 95.9549 355.374C95.9549 355.374 93.9452 355.796 94.2564 356.82C94.5672 357.844 95.7116 357.878 95.7116 357.878Z" fill="#FEFFFA"/>
<path d="M95.7116 357.878C95.7116 357.878 96.1012 360.109 98.0905 359.953C100.08 359.797 98.8667 357.915 98.8667 357.915C98.8667 357.915 100.506 357.691 100.337 356.415C100.168 355.138 98.4726 355.33 98.4726 355.33C98.4726 355.33 98.74 352.891 96.911 353.167C95.0824 353.444 95.9549 355.374 95.9549 355.374C95.9549 355.374 93.9452 355.796 94.2564 356.82C94.5672 357.844 95.7116 357.878 95.7116 357.878Z" stroke="#2E1E00" stroke-width="0.5" stroke-miterlimit="10" stroke-linecap="round" stroke-linejoin="round"/>
<path d="M183.327 343.578C183.327 343.578 180.837 343.327 180.409 345.49C179.982 347.653 182.346 346.924 182.346 346.924C182.346 346.924 182.095 348.735 183.503 348.936C184.912 349.137 185.214 347.276 185.214 347.276C185.214 347.276 187.729 348.289 187.98 346.261C188.232 344.232 185.918 344.585 185.918 344.585C185.918 344.585 186.069 342.321 184.887 342.346C183.704 342.371 183.327 343.578 183.327 343.578Z" fill="#FEFFFA"/>
<path d="M183.327 343.578C183.327 343.578 180.837 343.327 180.409 345.49C179.982 347.653 182.346 346.924 182.346 346.924C182.346 346.924 182.095 348.735 183.503 348.936C184.912 349.137 185.214 347.276 185.214 347.276C185.214 347.276 187.729 348.289 187.98 346.261C188.232 344.232 185.918 344.585 185.918 344.585C185.918 344.585 186.069 342.321 184.887 342.346C183.704 342.371 183.327 343.578 183.327 343.578Z" stroke="#2E1E00" stroke-width="0.5" stroke-miterlimit="10" stroke-linecap="round" stroke-linejoin="round"/>
<path d="M64.9082 226.634C64.9082 226.634 69.4014 226.598 69.7432 222.654C70.085 218.71 66.0071 220.472 66.0071 220.472C66.0071 220.472 66.1035 217.191 63.55 217.106C60.9969 217.022 60.821 220.402 60.821 220.402C60.821 220.402 56.1343 219.086 56.0806 222.754C56.0266 226.422 60.0883 225.343 60.0883 225.343C60.0883 225.343 60.26 229.413 62.365 229.137C64.47 228.862 64.9082 226.634 64.9082 226.634Z" fill="#FEFFFA"/>
<path d="M64.9082 226.634C64.9082 226.634 69.4014 226.598 69.7432 222.654C70.085 218.71 66.0071 220.472 66.0071 220.472C66.0071 220.472 66.1035 217.191 63.55 217.106C60.9969 217.022 60.821 220.402 60.821 220.402C60.821 220.402 56.1343 219.086 56.0806 222.754C56.0266 226.422 60.0883 225.343 60.0883 225.343C60.0883 225.343 60.26 229.413 62.365 229.137C64.47 228.862 64.9082 226.634 64.9082 226.634Z" stroke="#2E1E00" stroke-width="0.5" stroke-miterlimit="10" stroke-linecap="round" stroke-linejoin="round"/>
<path d="M67.1402 264.908C68.2836 265.092 69.0618 266.168 68.878 267.311C68.7118 268.336 67.8317 269.067 66.8281 269.076C66.8842 269.326 66.8935 269.593 66.8504 269.861C66.6666 271.005 65.5904 271.783 64.447 271.599C63.7724 271.491 63.2252 271.072 62.9282 270.511C62.8294 270.626 62.7137 270.73 62.5854 270.823C61.6464 271.502 60.3341 271.291 59.6553 270.352C58.9766 269.413 59.1886 268.102 60.1272 267.424C60.2935 267.303 60.4728 267.211 60.6569 267.147C59.5731 266.915 58.8489 265.869 59.0269 264.762C59.2107 263.619 60.2869 262.841 61.4303 263.024C61.9266 263.103 62.3544 263.351 62.6642 263.7C62.8769 262.593 63.9345 261.847 65.0573 262.027C66.2017 262.212 66.9799 263.289 66.7961 264.432C66.7706 264.591 66.7272 264.744 66.668 264.888C66.8222 264.876 66.9812 264.883 67.1402 264.908Z" fill="#FEFFFA"/>
<path d="M67.1402 264.908C68.2836 265.092 69.0618 266.168 68.878 267.311C68.7118 268.336 67.8317 269.067 66.8281 269.076C66.8842 269.326 66.8935 269.593 66.8504 269.861C66.6666 271.005 65.5904 271.783 64.447 271.599C63.7724 271.491 63.2252 271.072 62.9282 270.511C62.8294 270.626 62.7137 270.73 62.5854 270.823C61.6464 271.502 60.3341 271.291 59.6553 270.352C58.9766 269.413 59.1886 268.102 60.1272 267.424C60.2935 267.303 60.4728 267.211 60.6569 267.147C59.5731 266.915 58.8489 265.869 59.0269 264.762C59.2107 263.619 60.2869 262.841 61.4303 263.024C61.9266 263.103 62.3544 263.351 62.6642 263.7C62.8769 262.593 63.9345 261.847 65.0573 262.027C66.2017 262.212 66.9799 263.289 66.7961 264.432C66.7706 264.591 66.7272 264.744 66.668 264.888C66.8222 264.876 66.9812 264.883 67.1402 264.908Z" stroke="#2E1E00" stroke-width="0.5" stroke-miterlimit="10" stroke-linecap="round" stroke-linejoin="round"/>
<path d="M62.7686 150.205C62.7686 150.205 64.7394 149.799 65.2853 148.118C65.5944 147.166 65.266 146.089 64.4634 145.49C64.2913 145.362 64.1061 145.273 63.9192 145.264C63.9192 145.264 62.938 141.542 60.4337 142.542C57.5226 143.705 59.926 146.009 59.926 146.009C59.926 146.009 56.7451 145.907 57.3206 148.107C57.8957 150.306 60.6368 149.156 60.6368 149.156C60.6368 149.156 60.0011 151.491 61.2835 151.626C62.5656 151.761 62.7686 150.205 62.7686 150.205Z" fill="#FEFFFA"/>
<path d="M62.7686 150.205C62.7686 150.205 64.7394 149.799 65.2853 148.118C65.5944 147.166 65.266 146.089 64.4634 145.49C64.2913 145.362 64.1061 145.273 63.9192 145.264C63.9192 145.264 62.938 141.542 60.4337 142.542C57.5226 143.705 59.926 146.009 59.926 146.009C59.926 146.009 56.7451 145.907 57.3206 148.107C57.8957 150.306 60.6368 149.156 60.6368 149.156C60.6368 149.156 60.0011 151.491 61.2835 151.626C62.5656 151.761 62.7686 150.205 62.7686 150.205Z" stroke="#2E1E00" stroke-width="0.5" stroke-miterlimit="10" stroke-linecap="round" stroke-linejoin="round"/>
<path d="M83.9164 189.656C83.9164 189.656 86.5301 191.07 88.7445 189.69C89.9994 188.907 90.6516 187.378 90.3137 185.938C90.241 185.629 90.1168 185.353 89.9134 185.165C89.9134 185.165 92.3423 180.025 88.5611 178.776C84.1649 177.323 84.6922 182.211 84.6922 182.211C84.6922 182.211 81.1932 179.073 79.7525 182.106C78.3121 185.139 82.5039 186.444 82.5039 186.444C82.5039 186.444 79.5659 188.479 80.8866 189.851C82.2072 191.223 83.9164 189.656 83.9164 189.656Z" fill="#FEFFFA"/>
<path d="M83.9164 189.656C83.9164 189.656 86.5301 191.07 88.7445 189.69C89.9994 188.907 90.6516 187.378 90.3137 185.938C90.241 185.629 90.1168 185.353 89.9134 185.165C89.9134 185.165 92.3423 180.025 88.5611 178.776C84.1649 177.323 84.6922 182.211 84.6922 182.211C84.6922 182.211 81.1932 179.073 79.7525 182.106C78.3121 185.139 82.5039 186.444 82.5039 186.444C82.5039 186.444 79.5659 188.479 80.8866 189.851C82.2072 191.223 83.9164 189.656 83.9164 189.656Z" stroke="#2E1E00" stroke-width="0.5" stroke-miterlimit="10" stroke-linecap="round" stroke-linejoin="round"/>
<path d="M27.7867 213.62C27.7867 213.62 30.6851 215.64 32.6978 213.266C34.7106 210.891 31.2936 210.168 31.2936 210.168C31.2936 210.168 32.8472 208.107 31.2481 206.891C29.6491 205.676 27.9987 207.765 27.9987 207.765C27.9987 207.765 25.5919 204.789 23.8892 207.118C22.1865 209.446 25.2821 210.6 25.2821 210.6C25.2821 210.6 23.5419 213.289 25.0171 214.069C26.4922 214.85 27.7867 213.62 27.7867 213.62Z" fill="#FEFFFA"/>
<path d="M27.7867 213.62C27.7867 213.62 30.6851 215.64 32.6978 213.266C34.7106 210.891 31.2936 210.168 31.2936 210.168C31.2936 210.168 32.8472 208.107 31.2481 206.891C29.6491 205.676 27.9987 207.765 27.9987 207.765C27.9987 207.765 25.5919 204.789 23.8892 207.118C22.1865 209.446 25.2821 210.6 25.2821 210.6C25.2821 210.6 23.5419 213.289 25.0171 214.069C26.4922 214.85 27.7867 213.62 27.7867 213.62Z" stroke="#2E1E00" stroke-width="0.5" stroke-miterlimit="10" stroke-linecap="round" stroke-linejoin="round"/>
<path d="M80.2557 383.724C80.2557 383.724 82.6963 383.169 82.4124 380.982C82.1281 378.795 80.1194 380.24 80.1194 380.24C80.1194 380.24 79.7807 378.443 78.3813 378.701C76.9822 378.96 77.2892 380.82 77.2892 380.82C77.2892 380.82 74.5822 380.662 74.9901 382.665C75.398 384.667 77.4792 383.595 77.4792 383.595C77.4792 383.595 78.0578 385.789 79.1702 385.388C80.2829 384.988 80.2557 383.724 80.2557 383.724Z" fill="#FEFFFA"/>
<path d="M80.2557 383.724C80.2557 383.724 82.6963 383.169 82.4124 380.982C82.1281 378.795 80.1194 380.24 80.1194 380.24C80.1194 380.24 79.7807 378.443 78.3813 378.701C76.9822 378.96 77.2892 380.82 77.2892 380.82C77.2892 380.82 74.5822 380.662 74.9901 382.665C75.398 384.667 77.4792 383.595 77.4792 383.595C77.4792 383.595 78.0578 385.789 79.1702 385.388C80.2829 384.988 80.2557 383.724 80.2557 383.724Z" stroke="#2E1E00" stroke-width="0.5" stroke-miterlimit="10" stroke-linecap="round" stroke-linejoin="round"/>
<path d="M111.075 186.163C111.075 186.163 113.541 185.733 113.369 183.535C113.198 181.337 111.118 182.676 111.118 182.676C111.118 182.676 110.872 180.865 109.461 181.051C108.05 181.237 108.261 183.111 108.261 183.111C108.261 183.111 105.566 182.814 105.871 184.835C106.175 186.855 108.309 185.892 108.309 185.892C108.309 185.892 108.774 188.113 109.906 187.77C111.037 187.427 111.075 186.163 111.075 186.163Z" fill="#FEFFFA"/>
<path d="M111.075 186.163C111.075 186.163 113.541 185.733 113.369 183.535C113.198 181.337 111.118 182.676 111.118 182.676C111.118 182.676 110.872 180.865 109.461 181.051C108.05 181.237 108.261 183.111 108.261 183.111C108.261 183.111 105.566 182.814 105.871 184.835C106.175 186.855 108.309 185.892 108.309 185.892C108.309 185.892 108.774 188.113 109.906 187.77C111.037 187.427 111.075 186.163 111.075 186.163Z" stroke="#2E1E00" stroke-width="0.5" stroke-miterlimit="10" stroke-linecap="round" stroke-linejoin="round"/>
<path d="M7.51477 162.147C7.51477 162.147 7.80491 166.287 11.4605 166.377C15.116 166.467 13.2581 162.808 13.2581 162.808C13.2581 162.808 16.2886 162.709 16.2208 160.35C16.153 157.992 13.0261 158.023 13.0261 158.023C13.0261 158.023 13.9723 153.627 10.5876 153.787C7.2026 153.947 8.4296 157.629 8.4296 157.629C8.4296 157.629 4.68732 158.02 5.06145 159.945C5.43592 161.87 7.51477 162.147 7.51477 162.147Z" fill="#FEFFFA"/>
<path d="M7.51477 162.147C7.51477 162.147 7.80491 166.287 11.4605 166.377C15.116 166.467 13.2581 162.808 13.2581 162.808C13.2581 162.808 16.2886 162.709 16.2208 160.35C16.153 157.992 13.0261 158.023 13.0261 158.023C13.0261 158.023 13.9723 153.627 10.5876 153.787C7.2026 153.947 8.4296 157.629 8.4296 157.629C8.4296 157.629 4.68732 158.02 5.06145 159.945C5.43592 161.87 7.51477 162.147 7.51477 162.147Z" stroke="#2E1E00" stroke-width="0.5" stroke-miterlimit="10" stroke-linecap="round" stroke-linejoin="round"/>
<path d="M133.851 379.99C134.995 380.173 135.773 381.25 135.589 382.393C135.423 383.418 134.543 384.149 133.539 384.158C133.595 384.408 133.604 384.675 133.561 384.943C133.378 386.086 132.301 386.865 131.158 386.681C130.483 386.573 129.936 386.153 129.639 385.593C129.54 385.707 129.425 385.812 129.296 385.905C128.357 386.583 127.045 386.372 126.366 385.434C125.688 384.495 125.9 383.184 126.838 382.505C127.004 382.385 127.184 382.292 127.368 382.229C126.284 381.997 125.56 380.951 125.738 379.843C125.922 378.7 126.998 377.922 128.141 378.106C128.638 378.184 129.065 378.432 129.375 378.781C129.588 377.674 130.645 376.928 131.768 377.109C132.913 377.294 133.691 378.37 133.507 379.513C133.482 379.672 133.438 379.825 133.379 379.969C133.533 379.957 133.692 379.964 133.851 379.99Z" fill="#FEFFFA"/>
<path d="M133.851 379.99C134.995 380.173 135.773 381.25 135.589 382.393C135.423 383.418 134.543 384.149 133.539 384.158C133.595 384.408 133.604 384.675 133.561 384.943C133.378 386.086 132.301 386.865 131.158 386.681C130.483 386.573 129.936 386.153 129.639 385.593C129.54 385.707 129.425 385.812 129.296 385.905C128.357 386.583 127.045 386.372 126.366 385.434C125.688 384.495 125.9 383.184 126.838 382.505C127.004 382.385 127.184 382.292 127.368 382.229C126.284 381.997 125.56 380.951 125.738 379.843C125.922 378.7 126.998 377.922 128.141 378.106C128.638 378.184 129.065 378.432 129.375 378.781C129.588 377.674 130.645 376.928 131.768 377.109C132.913 377.294 133.691 378.37 133.507 379.513C133.482 379.672 133.438 379.825 133.379 379.969C133.533 379.957 133.692 379.964 133.851 379.99Z" stroke="#2E1E00" stroke-width="0.5" stroke-miterlimit="10" stroke-linecap="round" stroke-linejoin="round"/>
<path d="M146.434 380.452C146.434 380.452 146.028 378.481 144.347 377.935C143.395 377.626 142.318 377.954 141.719 378.757C141.591 378.929 141.502 379.114 141.493 379.301C141.493 379.301 137.771 380.282 138.771 382.787C139.934 385.698 142.238 383.294 142.238 383.294C142.238 383.294 142.136 386.475 144.336 385.9C146.535 385.325 145.385 382.584 145.385 382.584C145.385 382.584 147.72 383.219 147.855 381.937C147.99 380.655 146.434 380.452 146.434 380.452Z" fill="#FEFFFA"/>
<path d="M146.434 380.452C146.434 380.452 146.028 378.481 144.347 377.935C143.395 377.626 142.318 377.954 141.719 378.757C141.591 378.929 141.502 379.114 141.493 379.301C141.493 379.301 137.771 380.282 138.771 382.787C139.934 385.698 142.238 383.294 142.238 383.294C142.238 383.294 142.136 386.475 144.336 385.9C146.535 385.325 145.385 382.584 145.385 382.584C145.385 382.584 147.72 383.219 147.855 381.937C147.99 380.655 146.434 380.452 146.434 380.452Z" stroke="#2E1E00" stroke-width="0.5" stroke-miterlimit="10" stroke-linecap="round" stroke-linejoin="round"/>
<path d="M148.835 387.313C148.835 387.313 147.79 389.12 148.715 390.703C149.24 391.599 150.301 392.088 151.318 391.879C151.537 391.834 151.733 391.753 151.869 391.614C151.869 391.614 155.43 393.422 156.383 390.792C157.491 387.733 154.047 388.006 154.047 388.006C154.047 388.006 156.321 385.612 154.22 384.54C152.119 383.468 151.119 386.385 151.119 386.385C151.119 386.385 149.749 384.282 148.759 385.182C147.769 386.081 148.835 387.313 148.835 387.313Z" fill="#FEFFFA"/>
<path d="M148.835 387.313C148.835 387.313 147.79 389.12 148.715 390.703C149.24 391.599 150.301 392.088 151.318 391.879C151.537 391.834 151.733 391.753 151.869 391.614C151.869 391.614 155.43 393.422 156.383 390.792C157.491 387.733 154.047 388.006 154.047 388.006C154.047 388.006 156.321 385.612 154.22 384.54C152.119 383.468 151.119 386.385 151.119 386.385C151.119 386.385 149.749 384.282 148.759 385.182C147.769 386.081 148.835 387.313 148.835 387.313Z" stroke="#2E1E00" stroke-width="0.5" stroke-miterlimit="10" stroke-linecap="round" stroke-linejoin="round"/>
<path d="M111.719 384.027C111.719 384.027 110.674 385.834 111.599 387.417C112.124 388.313 113.185 388.802 114.202 388.593C114.42 388.548 114.617 388.467 114.753 388.328C114.753 388.328 118.314 390.136 119.267 387.506C120.375 384.448 116.931 384.72 116.931 384.72C116.931 384.72 119.205 382.326 117.104 381.254C115.003 380.182 114.003 383.099 114.003 383.099C114.003 383.099 112.632 380.995 111.643 381.895C110.653 382.795 111.719 384.027 111.719 384.027Z" fill="#FEFFFA"/>
<path d="M111.719 384.027C111.719 384.027 110.674 385.834 111.599 387.417C112.124 388.313 113.185 388.802 114.202 388.593C114.42 388.548 114.617 388.467 114.753 388.328C114.753 388.328 118.314 390.136 119.267 387.506C120.375 384.448 116.931 384.72 116.931 384.72C116.931 384.72 119.205 382.326 117.104 381.254C115.003 380.182 114.003 383.099 114.003 383.099C114.003 383.099 112.632 380.995 111.643 381.895C110.653 382.795 111.719 384.027 111.719 384.027Z" stroke="#2E1E00" stroke-width="0.5" stroke-miterlimit="10" stroke-linecap="round" stroke-linejoin="round"/>
<path d="M179.681 378.813C179.681 378.813 178.636 380.621 179.561 382.203C180.086 383.1 181.146 383.588 182.164 383.38C182.382 383.335 182.579 383.253 182.715 383.114C182.715 383.114 186.276 384.922 187.229 382.292C188.337 379.234 184.893 379.507 184.893 379.507C184.893 379.507 187.167 377.113 185.066 376.04C182.965 374.968 181.965 377.886 181.965 377.886C181.965 377.886 180.594 375.782 179.605 376.682C178.615 377.582 179.681 378.813 179.681 378.813Z" fill="#FEFFFA"/>
<path d="M179.681 378.813C179.681 378.813 178.636 380.621 179.561 382.203C180.086 383.1 181.146 383.588 182.164 383.38C182.382 383.335 182.579 383.253 182.715 383.114C182.715 383.114 186.276 384.922 187.229 382.292C188.337 379.234 184.893 379.507 184.893 379.507C184.893 379.507 187.167 377.113 185.066 376.04C182.965 374.968 181.965 377.886 181.965 377.886C181.965 377.886 180.594 375.782 179.605 376.682C178.615 377.582 179.681 378.813 179.681 378.813Z" stroke="#2E1E00" stroke-width="0.5" stroke-miterlimit="10" stroke-linecap="round" stroke-linejoin="round"/>
<path d="M105.291 376.919C105.291 376.919 101.006 376.487 100.271 380.209C99.5351 383.93 103.603 382.675 103.603 382.675C103.603 382.675 103.17 385.791 105.594 386.137C108.017 386.484 108.536 383.281 108.536 383.281C108.536 383.281 112.864 385.023 113.297 381.534C113.73 378.045 109.748 378.65 109.748 378.65C109.748 378.65 110.008 374.756 107.974 374.799C105.94 374.842 105.291 376.919 105.291 376.919Z" fill="#FEFFFA"/>
<path d="M105.291 376.919C105.291 376.919 101.006 376.487 100.271 380.209C99.5351 383.93 103.603 382.675 103.603 382.675C103.603 382.675 103.17 385.791 105.594 386.137C108.017 386.484 108.536 383.281 108.536 383.281C108.536 383.281 112.864 385.023 113.297 381.534C113.73 378.045 109.748 378.65 109.748 378.65C109.748 378.65 110.008 374.756 107.974 374.799C105.94 374.842 105.291 376.919 105.291 376.919Z" stroke="#2E1E00" stroke-width="0.5" stroke-miterlimit="10" stroke-linecap="round" stroke-linejoin="round"/>
<path d="M95.7861 376.495C95.7861 376.495 95.1635 373.475 92.5883 372.639C91.1294 372.165 89.4794 372.668 88.5618 373.898C88.3652 374.162 88.2289 374.445 88.2159 374.732C88.2159 374.732 82.5121 376.236 84.0447 380.073C85.8266 384.534 89.3565 380.851 89.3565 380.851C89.3565 380.851 89.2009 385.725 92.5715 384.843C95.9417 383.962 94.1788 379.762 94.1788 379.762C94.1788 379.762 97.7566 380.736 97.9638 378.771C98.1713 376.806 95.7861 376.495 95.7861 376.495Z" fill="#FEFFFA"/>
<path d="M95.7861 376.495C95.7861 376.495 95.1635 373.475 92.5883 372.639C91.1294 372.165 89.4794 372.668 88.5618 373.898C88.3652 374.162 88.2289 374.445 88.2159 374.732C88.2159 374.732 82.5121 376.236 84.0447 380.073C85.8266 384.534 89.3565 380.851 89.3565 380.851C89.3565 380.851 89.2009 385.725 92.5715 384.843C95.9417 383.962 94.1788 379.762 94.1788 379.762C94.1788 379.762 97.7566 380.736 97.9638 378.771C98.1713 376.806 95.7861 376.495 95.7861 376.495Z" stroke="#2E1E00" stroke-width="0.5" stroke-miterlimit="10" stroke-linecap="round" stroke-linejoin="round"/>
<path d="M159.203 382.373C159.203 382.373 157.02 384.55 157.733 387.162C158.138 388.642 159.464 389.745 160.995 389.837C161.324 389.858 161.635 389.816 161.882 389.67C161.882 389.67 166.269 393.613 168.636 390.226C171.388 386.289 166.372 385.359 166.372 385.359C166.372 385.359 170.532 382.814 167.946 380.48C165.36 378.146 162.816 381.924 162.816 381.924C162.816 381.924 161.667 378.399 159.911 379.303C158.154 380.208 159.203 382.373 159.203 382.373Z" fill="#FEFFFA"/>
<path d="M159.203 382.373C159.203 382.373 157.02 384.55 157.733 387.162C158.138 388.642 159.464 389.745 160.995 389.837C161.324 389.858 161.635 389.816 161.882 389.67C161.882 389.67 166.269 393.613 168.636 390.226C171.388 386.289 166.372 385.359 166.372 385.359C166.372 385.359 170.532 382.814 167.946 380.48C165.36 378.146 162.816 381.924 162.816 381.924C162.816 381.924 161.667 378.399 159.911 379.303C158.154 380.208 159.203 382.373 159.203 382.373Z" stroke="#2E1E00" stroke-width="0.5" stroke-miterlimit="10" stroke-linecap="round" stroke-linejoin="round"/>
<path d="M54.7633 377.106C54.7633 377.106 52.5802 379.283 53.2937 381.895C53.6981 383.375 55.0246 384.478 56.5558 384.57C56.8842 384.59 57.196 384.549 57.4428 384.402C57.4428 384.402 61.8294 388.346 64.1963 384.959C66.9483 381.022 61.9323 380.091 61.9323 380.091C61.9323 380.091 66.0927 377.547 63.5065 375.213C60.9204 372.879 58.3762 376.657 58.3762 376.657C58.3762 376.657 57.2277 373.132 55.4713 374.036C53.715 374.941 54.7633 377.106 54.7633 377.106Z" fill="#FEFFFA"/>
<path d="M54.7633 377.106C54.7633 377.106 52.5802 379.283 53.2937 381.895C53.6981 383.375 55.0246 384.478 56.5558 384.57C56.8842 384.59 57.196 384.549 57.4428 384.402C57.4428 384.402 61.8294 388.346 64.1963 384.959C66.9484 381.022 61.9323 380.091 61.9323 380.091C61.9323 380.091 66.0927 377.547 63.5065 375.213C60.9204 372.879 58.3762 376.657 58.3762 376.657C58.3762 376.657 57.2277 373.132 55.4713 374.036C53.715 374.941 54.7633 377.106 54.7633 377.106Z" stroke="#2E1E00" stroke-width="0.5" stroke-miterlimit="10" stroke-linecap="round" stroke-linejoin="round"/>
<path d="M148.547 378.058C148.547 378.058 147.309 380.882 148.927 383.053C149.844 384.283 151.481 384.826 152.941 384.354C153.254 384.252 153.529 384.1 153.705 383.873C153.705 383.873 159.229 385.943 160.196 381.926C161.321 377.257 156.312 378.221 156.312 378.221C156.312 378.221 159.256 374.334 155.996 373.105C152.737 371.876 151.748 376.322 151.748 376.322C151.748 376.322 149.391 373.459 148.086 374.942C146.781 376.425 148.547 378.058 148.547 378.058Z" fill="#FEFFFA"/>
<path d="M148.547 378.058C148.547 378.058 147.309 380.882 148.927 383.053C149.844 384.283 151.481 384.826 152.941 384.354C153.254 384.252 153.529 384.1 153.705 383.873C153.705 383.873 159.229 385.943 160.196 381.926C161.321 377.257 156.312 378.221 156.312 378.221C156.312 378.221 159.256 374.334 155.996 373.105C152.737 371.876 151.748 376.322 151.748 376.322C151.748 376.322 149.391 373.459 148.086 374.942C146.781 376.425 148.547 378.058 148.547 378.058Z" stroke="#2E1E00" stroke-width="0.5" stroke-miterlimit="10" stroke-linecap="round" stroke-linejoin="round"/>
<path d="M143.655 385.082C143.655 385.082 141.072 384.821 140.628 387.065C140.184 389.31 142.638 388.553 142.638 388.553C142.638 388.553 142.377 390.431 143.838 390.64C145.299 390.849 145.613 388.918 145.613 388.918C145.613 388.918 148.222 389.968 148.483 387.864C148.744 385.76 146.343 386.125 146.343 386.125C146.343 386.125 146.5 383.776 145.273 383.803C144.047 383.829 143.655 385.082 143.655 385.082Z" fill="#FEFFFA"/>
<path d="M143.655 385.082C143.655 385.082 141.072 384.821 140.628 387.065C140.184 389.31 142.638 388.553 142.638 388.553C142.638 388.553 142.377 390.431 143.838 390.64C145.299 390.849 145.613 388.918 145.613 388.918C145.613 388.918 148.222 389.968 148.483 387.864C148.744 385.76 146.343 386.125 146.343 386.125C146.343 386.125 146.5 383.776 145.273 383.803C144.047 383.829 143.655 385.082 143.655 385.082Z" stroke="#2E1E00" stroke-width="0.5" stroke-miterlimit="10" stroke-linecap="round" stroke-linejoin="round"/>
<path d="M161.575 378.244C161.575 378.244 158.991 377.983 158.548 380.227C158.104 382.472 160.557 381.715 160.557 381.715C160.557 381.715 160.297 383.594 161.758 383.802C163.219 384.011 163.533 382.08 163.533 382.08C163.533 382.08 166.142 383.13 166.403 381.026C166.664 378.922 164.263 379.287 164.263 379.287C164.263 379.287 164.42 376.938 163.193 376.965C161.967 376.991 161.575 378.244 161.575 378.244Z" fill="#FEFFFA"/>
<path d="M161.575 378.244C161.575 378.244 158.991 377.983 158.548 380.227C158.104 382.472 160.557 381.715 160.557 381.715C160.557 381.715 160.297 383.594 161.758 383.802C163.219 384.011 163.533 382.08 163.533 382.08C163.533 382.08 166.142 383.13 166.403 381.026C166.664 378.922 164.263 379.287 164.263 379.287C164.263 379.287 164.42 376.938 163.193 376.965C161.967 376.991 161.575 378.244 161.575 378.244Z" stroke="#2E1E00" stroke-width="0.5" stroke-miterlimit="10" stroke-linecap="round" stroke-linejoin="round"/>
<path d="M141.172 377.214C142.358 377.405 143.166 378.522 142.975 379.708C142.803 380.771 141.889 381.529 140.848 381.539C140.906 381.798 140.916 382.075 140.871 382.353C140.681 383.54 139.564 384.347 138.378 384.156C137.678 384.044 137.11 383.609 136.802 383.027C136.699 383.147 136.58 383.255 136.446 383.351C135.472 384.055 134.11 383.836 133.406 382.862C132.702 381.888 132.922 380.528 133.896 379.824C134.068 379.699 134.255 379.603 134.445 379.537C133.321 379.296 132.57 378.211 132.754 377.063C132.945 375.877 134.062 375.069 135.248 375.26C135.763 375.341 136.207 375.598 136.528 375.96C136.749 374.812 137.846 374.038 139.011 374.225C140.198 374.418 141.005 375.534 140.815 376.72C140.788 376.885 140.744 377.044 140.682 377.193C140.842 377.181 141.007 377.188 141.172 377.214Z" fill="#FEFFFA"/>
<path d="M141.172 377.214C142.358 377.405 143.166 378.522 142.975 379.708C142.803 380.771 141.889 381.529 140.848 381.539C140.906 381.798 140.916 382.075 140.871 382.353C140.681 383.54 139.564 384.347 138.378 384.156C137.678 384.044 137.11 383.609 136.802 383.027C136.699 383.147 136.58 383.255 136.446 383.351C135.472 384.055 134.11 383.836 133.406 382.862C132.702 381.888 132.922 380.528 133.896 379.824C134.068 379.699 134.255 379.603 134.445 379.537C133.321 379.296 132.57 378.211 132.754 377.063C132.945 375.877 134.062 375.069 135.248 375.26C135.763 375.341 136.207 375.598 136.528 375.96C136.749 374.812 137.846 374.038 139.011 374.225C140.198 374.418 141.005 375.534 140.815 376.72C140.788 376.885 140.744 377.044 140.682 377.193C140.842 377.181 141.007 377.188 141.172 377.214Z" stroke="#2E1E00" stroke-width="0.5" stroke-miterlimit="10" stroke-linecap="round" stroke-linejoin="round"/>
<path d="M129.622 391.075C129.622 391.075 134.718 391.034 135.106 386.561C135.494 382.088 130.869 384.086 130.869 384.086C130.869 384.086 130.978 380.365 128.082 380.269C125.187 380.173 124.987 384.007 124.987 384.007C124.987 384.007 119.672 382.514 119.611 386.674C119.55 390.835 124.156 389.611 124.156 389.611C124.156 389.611 124.351 394.226 126.738 393.914C129.125 393.602 129.622 391.075 129.622 391.075Z" fill="#FEFFFA"/>
<path d="M129.622 391.075C129.622 391.075 134.718 391.034 135.106 386.561C135.494 382.088 130.869 384.086 130.869 384.086C130.869 384.086 130.978 380.365 128.082 380.269C125.187 380.173 124.987 384.007 124.987 384.007C124.987 384.007 119.672 382.514 119.611 386.674C119.55 390.835 124.156 389.611 124.156 389.611C124.156 389.611 124.351 394.226 126.738 393.914C129.125 393.602 129.622 391.075 129.622 391.075Z" stroke="#2E1E00" stroke-width="0.5" stroke-miterlimit="10" stroke-linecap="round" stroke-linejoin="round"/>
<path d="M100.333 384.334C100.333 384.334 104.639 384.299 104.967 380.519C105.294 376.74 101.386 378.429 101.386 378.429C101.386 378.429 101.479 375.284 99.0318 375.203C96.585 375.122 96.4164 378.362 96.4164 378.362C96.4164 378.362 91.9252 377.1 91.8736 380.616C91.8219 384.131 95.7143 383.097 95.7143 383.097C95.7143 383.097 95.8788 386.997 97.896 386.733C99.9133 386.469 100.333 384.334 100.333 384.334Z" fill="#FEFFFA"/>
<path d="M100.333 384.334C100.333 384.334 104.639 384.299 104.967 380.519C105.294 376.74 101.386 378.429 101.386 378.429C101.386 378.429 101.479 375.284 99.0318 375.203C96.585 375.122 96.4164 378.362 96.4164 378.362C96.4164 378.362 91.9252 377.1 91.8736 380.616C91.8219 384.131 95.7143 383.097 95.7143 383.097C95.7143 383.097 95.8788 386.997 97.896 386.733C99.9133 386.469 100.333 384.334 100.333 384.334Z" stroke="#2E1E00" stroke-width="0.5" stroke-miterlimit="10" stroke-linecap="round" stroke-linejoin="round"/>
<path d="M116.807 378.813C116.807 378.813 115.762 380.621 116.687 382.203C117.212 383.1 118.272 383.588 119.29 383.38C119.508 383.335 119.705 383.253 119.84 383.114C119.84 383.114 123.402 384.922 124.355 382.292C125.463 379.234 122.019 379.507 122.019 379.507C122.019 379.507 124.293 377.113 122.192 376.04C120.091 374.968 119.091 377.886 119.091 377.886C119.091 377.886 117.72 375.782 116.731 376.682C115.741 377.582 116.807 378.813 116.807 378.813Z" fill="#FEFFFA"/>
<path d="M116.807 378.813C116.807 378.813 115.762 380.621 116.687 382.203C117.212 383.1 118.272 383.588 119.29 383.38C119.508 383.335 119.705 383.253 119.84 383.114C119.84 383.114 123.402 384.922 124.355 382.292C125.463 379.234 122.019 379.507 122.019 379.507C122.019 379.507 124.293 377.113 122.192 376.04C120.091 374.968 119.091 377.886 119.091 377.886C119.091 377.886 117.72 375.782 116.731 376.682C115.741 377.582 116.807 378.813 116.807 378.813Z" stroke="#2E1E00" stroke-width="0.5" stroke-miterlimit="10" stroke-linecap="round" stroke-linejoin="round"/>
<path d="M109.606 390.573C109.606 390.573 113.912 390.538 114.239 386.759C114.567 382.979 110.659 384.668 110.659 384.668C110.659 384.668 110.751 381.523 108.304 381.442C105.858 381.362 105.689 384.601 105.689 384.601C105.689 384.601 101.198 383.339 101.146 386.855C101.094 390.371 104.987 389.336 104.987 389.336C104.987 389.336 105.151 393.236 107.168 392.972C109.186 392.708 109.606 390.573 109.606 390.573Z" fill="#FEFFFA"/>
<path d="M109.606 390.573C109.606 390.573 113.912 390.538 114.239 386.759C114.567 382.979 110.659 384.668 110.659 384.668C110.659 384.668 110.751 381.523 108.304 381.442C105.858 381.362 105.689 384.601 105.689 384.601C105.689 384.601 101.198 383.339 101.146 386.855C101.094 390.371 104.987 389.336 104.987 389.336C104.987 389.336 105.151 393.236 107.168 392.972C109.186 392.708 109.606 390.573 109.606 390.573Z" stroke="#2E1E00" stroke-width="0.5" stroke-miterlimit="10" stroke-linecap="round" stroke-linejoin="round"/>
<path d="M172.963 382.066C172.963 382.066 177.269 382.032 177.596 378.252C177.924 374.472 174.016 376.162 174.016 376.162C174.016 376.162 174.108 373.017 171.662 372.936C169.215 372.855 169.046 376.095 169.046 376.095C169.046 376.095 164.555 374.833 164.503 378.349C164.452 381.864 168.344 380.83 168.344 380.83C168.344 380.83 168.509 384.73 170.526 384.466C172.543 384.202 172.963 382.066 172.963 382.066Z" fill="#FEFFFA"/>
<path d="M172.963 382.066C172.963 382.066 177.269 382.032 177.596 378.252C177.924 374.472 174.016 376.162 174.016 376.162C174.016 376.162 174.108 373.017 171.662 372.936C169.215 372.855 169.046 376.095 169.046 376.095C169.046 376.095 164.555 374.833 164.503 378.349C164.452 381.864 168.344 380.83 168.344 380.83C168.344 380.83 168.509 384.73 170.526 384.466C172.543 384.202 172.963 382.066 172.963 382.066Z" stroke="#2E1E00" stroke-width="0.5" stroke-miterlimit="10" stroke-linecap="round" stroke-linejoin="round"/>
<path d="M140.744 86.9601C140.744 86.9601 147.457 89.088 149.881 83.3768C152.306 77.6658 145.374 78.3121 145.374 78.3121C145.374 78.3121 147.11 73.4694 143.347 72.1033C139.584 70.7373 137.68 75.6897 137.68 75.6897C137.68 75.6897 131.335 71.4519 129.474 76.8916C127.613 82.3318 134.188 82.6957 134.188 82.6957C134.188 82.6957 132.468 88.8438 135.739 89.4557C139.009 90.0669 140.744 86.9601 140.744 86.9601Z" fill="#FEFFFA"/>
<path d="M140.744 86.9601C140.744 86.9601 147.457 89.088 149.881 83.3768C152.306 77.6658 145.374 78.3121 145.374 78.3121C145.374 78.3121 147.11 73.4694 143.347 72.1033C139.584 70.7373 137.68 75.6897 137.68 75.6897C137.68 75.6897 131.335 71.4519 129.474 76.8916C127.613 82.3318 134.188 82.6957 134.188 82.6957C134.188 82.6957 132.468 88.8438 135.739 89.4557C139.009 90.0669 140.744 86.9601 140.744 86.9601Z" stroke="#2E1E00" stroke-width="0.5" stroke-miterlimit="10" stroke-linecap="round" stroke-linejoin="round"/>
<path d="M192.005 9.56454C192.005 9.56454 196.146 8.62257 195.665 4.91252C195.182 1.20189 191.774 3.65346 191.774 3.65346C191.774 3.65346 191.199 0.605062 188.825 1.04305C186.451 1.48104 186.972 4.63805 186.972 4.63805C186.972 4.63805 182.379 4.37001 183.071 7.76763C183.763 11.1652 187.294 9.3473 187.294 9.3473C187.294 9.3473 188.276 13.0696 190.164 12.3899C192.052 11.7095 192.005 9.56454 192.005 9.56454Z" fill="#FEFFFA"/>
<path d="M192.005 9.56454C192.005 9.56454 196.146 8.62257 195.665 4.91252C195.182 1.20189 191.774 3.65346 191.774 3.65346C191.774 3.65346 191.199 0.605062 188.825 1.04305C186.451 1.48104 186.972 4.63805 186.972 4.63805C186.972 4.63805 182.379 4.37001 183.071 7.76763C183.763 11.1652 187.294 9.3473 187.294 9.3473C187.294 9.3473 188.276 13.0696 190.164 12.3899C192.052 11.7095 192.005 9.56454 192.005 9.56454Z" stroke="#2E1E00" stroke-width="0.5" stroke-miterlimit="10" stroke-linecap="round" stroke-linejoin="round"/>
<path d="M171.278 97.5909C171.278 97.5909 171.926 93.3939 168.299 92.4763C164.671 91.5591 165.697 95.6303 165.697 95.6303C165.697 95.6303 162.651 95.0426 162.184 97.4116C161.717 99.7801 164.845 100.458 164.845 100.458C164.845 100.458 162.905 104.63 166.319 105.237C169.733 105.844 169.342 101.891 169.342 101.891C169.342 101.891 173.164 102.349 173.227 100.343C173.289 98.3375 171.278 97.5909 171.278 97.5909Z" fill="white" stroke="#2E1E00" stroke-width="0.5" stroke-miterlimit="10" stroke-linecap="round" stroke-linejoin="round"/>
</svg>
