<svg width="1920" height="608" viewBox="0 0 1920 608" fill="none" xmlns="http://www.w3.org/2000/svg">
<path d="M1920 5.94525V608H0V49.0288C50.8694 51.5962 137.394 67.3652 277.488 124.124C284.86 126.99 294.572 131.061 305.202 135.515C325.607 144.067 349.393 154.035 366.488 159.624C568.812 225.768 1007.65 223.751 1210.99 203.418C1273.57 200.616 1466.7 153.012 1565.99 122.624C1587.94 114.284 1603.36 107.938 1613.54 103.747C1614.96 103.164 1616.27 102.623 1617.49 102.124C1693.99 70.7589 1842.49 17.1239 1904.49 6.12393C1909.85 5.86959 1915.02 5.81753 1920 5.94525Z" fill="#FDEAA7"/>
<path fill-rule="evenodd" clip-rule="evenodd" d="M1947.25 0.602905C1947.26 0.947867 1946.99 1.23741 1946.65 1.24962C1910.55 2.52704 1857.04 16.1202 1793.46 37.1723C1729.91 58.2181 1656.37 86.6962 1580.22 117.703L1579.99 117.124L1580.22 117.703C1377.13 200.362 1201.52 217.968 987.492 219.249C934.596 219.58 865.885 219.459 800.976 219.345C761.218 219.276 722.886 219.208 690.489 219.249C588.226 219.356 483.06 202.339 385.492 167.195C354.413 156.01 323.511 143.649 292.569 131.271C275.669 124.511 258.757 117.745 241.798 111.164C193.771 92.528 145.332 75.3556 95.5782 63.891L95.578 63.891C53.4927 54.1805 8.77863 46.4091 -34.312 50.7747C-34.6554 50.8095 -34.962 50.5593 -34.9968 50.2158C-35.0316 49.8724 -34.7814 49.5658 -34.4379 49.531C8.86711 45.1438 53.7485 52.9566 95.859 62.673C145.7 74.1578 194.206 91.3559 242.25 109.999C259.236 116.59 276.159 123.36 293.064 130.123C323.991 142.494 354.854 154.84 385.915 166.019L385.704 166.607L385.916 166.019C483.338 201.111 588.361 218.106 690.488 217.999C722.893 217.958 761.229 218.026 800.988 218.095C865.892 218.209 934.592 218.33 987.485 217.999C1201.43 216.718 1376.87 199.121 1579.75 116.545C1655.9 85.5352 1729.48 57.0447 1793.07 35.9856C1856.65 14.9328 1910.31 1.28476 1946.6 0.000398465C1946.95 -0.0118082 1947.24 0.257943 1947.25 0.602905Z" fill="#2E1E00"/>
</svg>
