<svg width="1742" height="281" viewBox="0 0 1742 281" fill="none" xmlns="http://www.w3.org/2000/svg">
<path d="M341.708 176.359C390.738 176.359 430.484 170.505 430.484 163.285C430.484 156.064 390.738 150.211 341.708 150.211C292.678 150.211 252.932 156.064 252.932 163.285C252.932 170.505 292.678 176.359 341.708 176.359Z" stroke="#2E1E00" stroke-width="2" stroke-miterlimit="10" stroke-linecap="round" stroke-linejoin="round"/>
<path d="M152.65 108.501C155.001 108.501 156.906 106.595 156.906 104.245C156.906 101.894 155.001 99.989 152.65 99.989C150.3 99.989 148.394 101.894 148.394 104.245C148.394 106.595 150.3 108.501 152.65 108.501Z" stroke="#2E1E00" stroke-width="2" stroke-miterlimit="10" stroke-linecap="round" stroke-linejoin="round"/>
<path d="M1736.69 60.4579C1739.04 60.4579 1740.95 58.5525 1740.95 56.202C1740.95 53.8514 1739.04 51.9459 1736.69 51.9459C1734.34 51.9459 1732.44 53.8514 1732.44 56.202C1732.44 58.5525 1734.34 60.4579 1736.69 60.4579Z" stroke="#2E1E00" stroke-width="2" stroke-miterlimit="10" stroke-linecap="round" stroke-linejoin="round"/>
<path d="M100.111 24.8779C154.449 24.8779 198.498 19.6406 198.498 13.1799C198.498 6.7193 154.449 1.48193 100.111 1.48193C45.7735 1.48193 1.72412 6.7193 1.72412 13.1799C1.72412 19.6406 45.7735 24.8779 100.111 24.8779Z" stroke="#2E1E00" stroke-width="2" stroke-miterlimit="10" stroke-linecap="round" stroke-linejoin="round"/>
<path d="M1604.92 222.373C1679.83 222.373 1740.56 215.406 1740.56 206.812C1740.56 198.218 1679.83 191.251 1604.92 191.251C1530.01 191.251 1469.28 198.218 1469.28 206.812C1469.28 215.406 1530.01 222.373 1604.92 222.373Z" stroke="#2E1E00" stroke-width="2" stroke-miterlimit="10" stroke-linecap="round" stroke-linejoin="round"/>
<path d="M1477.92 49.714L1530.02 11.826C1548.39 -1.54004 1573.49 -0.761062 1591.01 13.7199L1634.54 49.714" stroke="#2E1E00" stroke-width="2" stroke-miterlimit="10" stroke-linecap="round" stroke-linejoin="round"/>
<path d="M41.8779 241.257L93.9719 203.37C112.35 190.004 137.447 190.783 154.961 205.263L198.498 241.257" stroke="#2E1E00" stroke-width="2" stroke-miterlimit="10" stroke-linecap="round" stroke-linejoin="round"/>
<path d="M325.051 20.4609C327.401 20.4609 329.307 18.5555 329.307 16.205C329.307 13.8544 327.401 11.9489 325.051 11.9489C322.7 11.9489 320.795 13.8544 320.795 16.205C320.795 18.5555 322.7 20.4609 325.051 20.4609Z" stroke="#2E1E00" stroke-width="2" stroke-miterlimit="10" stroke-linecap="round" stroke-linejoin="round"/>
<path d="M1103.49 259.7H1181.88" stroke="#2E1E00" stroke-width="2" stroke-miterlimit="10" stroke-linecap="round" stroke-linejoin="round"/>
<path d="M591.118 279.32H664.708" stroke="#2E1E00" stroke-width="2" stroke-miterlimit="10" stroke-linecap="round" stroke-linejoin="round"/>
</svg>
