<svg width="1458" height="693" viewBox="0 0 1458 693" fill="none" xmlns="http://www.w3.org/2000/svg">
<path d="M1241.84 494.934C1241.84 494.934 1248.88 494.878 1249.41 488.696C1249.95 482.515 1243.56 485.278 1243.56 485.278C1243.56 485.278 1243.71 480.135 1239.71 480.002C1235.71 479.869 1235.43 485.168 1235.43 485.168C1235.43 485.168 1228.08 483.104 1228 488.853C1227.92 494.603 1234.28 492.911 1234.28 492.911C1234.28 492.911 1234.55 499.289 1237.85 498.858C1241.15 498.427 1241.84 494.934 1241.84 494.934Z" fill="#FEFFFA"/>
<path d="M1241.84 494.934C1241.84 494.934 1248.88 494.878 1249.41 488.696C1249.95 482.515 1243.56 485.278 1243.56 485.278C1243.56 485.278 1243.71 480.135 1239.71 480.002C1235.71 479.869 1235.43 485.168 1235.43 485.168C1235.43 485.168 1228.08 483.104 1228 488.853C1227.92 494.603 1234.28 492.911 1234.28 492.911C1234.28 492.911 1234.55 499.289 1237.85 498.858C1241.15 498.427 1241.84 494.934 1241.84 494.934Z" stroke="#2E1E00" stroke-width="2" stroke-miterlimit="10" stroke-linecap="round" stroke-linejoin="round"/>
<path d="M1062.36 259.815C1062.03 261.752 1060.19 263.054 1058.25 262.723C1056.52 262.425 1055.29 260.92 1055.29 259.217C1054.87 259.308 1054.42 259.319 1053.96 259.242C1052.02 258.911 1050.72 257.073 1051.05 255.136C1051.25 253.993 1051.97 253.072 1052.92 252.577C1052.73 252.407 1052.55 252.209 1052.4 251.99C1051.26 250.386 1051.64 248.162 1053.25 247.026C1054.85 245.89 1057.07 246.271 1058.21 247.875C1058.41 248.159 1058.56 248.465 1058.67 248.778C1059.08 246.943 1060.87 245.731 1062.74 246.051C1064.68 246.382 1065.98 248.221 1065.65 250.157C1065.51 250.998 1065.08 251.72 1064.48 252.24C1066.36 252.619 1067.61 254.426 1067.28 256.328C1066.95 258.266 1065.11 259.569 1063.17 259.238C1062.9 259.193 1062.65 259.116 1062.4 259.013C1062.42 259.276 1062.41 259.545 1062.36 259.815Z" fill="#FEFFFA"/>
<path d="M1062.36 259.815C1062.03 261.752 1060.19 263.054 1058.25 262.723C1056.52 262.425 1055.29 260.92 1055.29 259.217C1054.87 259.308 1054.42 259.319 1053.96 259.242C1052.02 258.911 1050.72 257.073 1051.05 255.136C1051.25 253.993 1051.97 253.072 1052.92 252.577C1052.73 252.407 1052.55 252.209 1052.4 251.99C1051.26 250.386 1051.64 248.162 1053.25 247.026C1054.85 245.89 1057.07 246.271 1058.21 247.875C1058.41 248.159 1058.56 248.465 1058.67 248.778C1059.08 246.943 1060.87 245.731 1062.74 246.051C1064.68 246.382 1065.98 248.221 1065.65 250.157C1065.51 250.998 1065.08 251.72 1064.48 252.24C1066.36 252.619 1067.61 254.426 1067.28 256.328C1066.95 258.266 1065.11 259.569 1063.17 259.238C1062.9 259.193 1062.65 259.116 1062.4 259.013C1062.42 259.276 1062.41 259.545 1062.36 259.815Z" stroke="#2E1E00" stroke-width="2" stroke-miterlimit="10" stroke-linecap="round" stroke-linejoin="round"/>
<path d="M203.78 580.184C203.78 580.184 198.917 578.851 195.787 581.984C194.015 583.76 193.525 586.538 194.637 588.787C194.875 589.27 195.187 589.679 195.595 589.91C195.595 589.91 193.557 599.339 200.286 599.951C208.109 600.662 205.359 592.786 205.359 592.786C205.359 592.786 212.348 596.627 213.563 591.061C214.778 585.495 207.349 584.949 207.349 584.949C207.349 584.949 211.422 580.457 208.712 578.697C206.002 576.938 203.78 580.184 203.78 580.184Z" fill="#FEFFFA"/>
<path d="M203.78 580.184C203.78 580.184 198.917 578.851 195.787 581.984C194.015 583.76 193.525 586.538 194.637 588.787C194.875 589.27 195.187 589.679 195.595 589.91C195.595 589.91 193.557 599.339 200.286 599.951C208.109 600.662 205.359 592.786 205.359 592.786C205.359 592.786 212.348 596.627 213.563 591.061C214.778 585.495 207.349 584.949 207.349 584.949C207.349 584.949 211.422 580.457 208.712 578.697C206.002 576.938 203.78 580.184 203.78 580.184Z" stroke="#2E1E00" stroke-width="2" stroke-miterlimit="10" stroke-linecap="round" stroke-linejoin="round"/>
<path d="M1024.86 210.707C1024.86 210.707 1029.05 209.998 1028.77 206.267C1028.5 202.536 1024.96 204.793 1024.96 204.793C1024.96 204.793 1024.55 201.717 1022.16 202.021C1019.76 202.326 1020.11 205.507 1020.11 205.507C1020.11 205.507 1015.54 204.983 1016.04 208.413C1016.54 211.845 1020.17 210.227 1020.17 210.227C1020.17 210.227 1020.94 213.999 1022.86 213.426C1024.78 212.852 1024.86 210.707 1024.86 210.707Z" fill="#FEFFFA"/>
<path d="M1024.86 210.707C1024.86 210.707 1029.05 209.998 1028.77 206.267C1028.5 202.536 1024.96 204.793 1024.96 204.793C1024.96 204.793 1024.55 201.717 1022.16 202.021C1019.76 202.326 1020.11 205.507 1020.11 205.507C1020.11 205.507 1015.54 204.983 1016.04 208.413C1016.54 211.845 1020.17 210.227 1020.17 210.227C1020.17 210.227 1020.94 213.999 1022.86 213.426C1024.78 212.852 1024.86 210.707 1024.86 210.707Z" stroke="#2E1E00" stroke-width="2" stroke-miterlimit="10" stroke-linecap="round" stroke-linejoin="round"/>
<path d="M1452.86 429.707C1452.86 429.707 1457.05 428.998 1456.77 425.267C1456.5 421.536 1452.96 423.793 1452.96 423.793C1452.96 423.793 1452.55 420.717 1450.16 421.021C1447.76 421.326 1448.11 424.507 1448.11 424.507C1448.11 424.507 1443.54 423.983 1444.04 427.413C1444.54 430.845 1448.17 429.227 1448.17 429.227C1448.17 429.227 1448.94 432.999 1450.86 432.426C1452.78 431.852 1452.86 429.707 1452.86 429.707Z" fill="#FEFFFA"/>
<path d="M1452.86 429.707C1452.86 429.707 1457.05 428.998 1456.77 425.267C1456.5 421.536 1452.96 423.793 1452.96 423.793C1452.96 423.793 1452.55 420.717 1450.16 421.021C1447.76 421.326 1448.11 424.507 1448.11 424.507C1448.11 424.507 1443.54 423.983 1444.04 427.413C1444.54 430.845 1448.17 429.227 1448.17 429.227C1448.17 429.227 1448.94 432.999 1450.86 432.426C1452.78 431.852 1452.86 429.707 1452.86 429.707Z" stroke="#2E1E00" stroke-width="2" stroke-miterlimit="10" stroke-linecap="round" stroke-linejoin="round"/>
<path d="M1008.98 130.169C1008.98 130.169 1016.6 130.108 1017.18 123.415C1017.76 116.723 1010.84 119.714 1010.84 119.714C1010.84 119.714 1011.01 114.146 1006.67 114.003C1002.34 113.859 1002.04 119.595 1002.04 119.595C1002.04 119.595 994.092 117.361 994.001 123.586C993.909 129.81 1000.8 127.979 1000.8 127.979C1000.8 127.979 1001.09 134.884 1004.66 134.416C1008.24 133.95 1008.98 130.169 1008.98 130.169Z" fill="#FEFFFA"/>
<path d="M1008.98 130.169C1008.98 130.169 1016.6 130.108 1017.18 123.415C1017.76 116.723 1010.84 119.714 1010.84 119.714C1010.84 119.714 1011.01 114.146 1006.67 114.003C1002.34 113.859 1002.04 119.595 1002.04 119.595C1002.04 119.595 994.092 117.361 994.001 123.586C993.909 129.81 1000.8 127.979 1000.8 127.979C1000.8 127.979 1001.09 134.884 1004.66 134.416C1008.24 133.95 1008.98 130.169 1008.98 130.169Z" stroke="#2E1E00" stroke-width="2" stroke-miterlimit="10" stroke-linecap="round" stroke-linejoin="round"/>
<path d="M125.812 184.934C127.752 185.246 129.072 187.072 128.76 189.012C128.478 190.751 126.985 191.99 125.282 192.007C125.377 192.43 125.393 192.884 125.32 193.339C125.008 195.279 123.182 196.599 121.242 196.287C120.098 196.103 119.169 195.392 118.665 194.441C118.497 194.636 118.301 194.813 118.083 194.97C116.49 196.122 114.264 195.764 113.112 194.172C111.96 192.578 112.32 190.354 113.913 189.202C114.195 188.999 114.499 188.841 114.811 188.733C112.972 188.34 111.744 186.565 112.046 184.687C112.357 182.747 114.184 181.426 116.124 181.738C116.966 181.871 117.692 182.292 118.217 182.884C118.578 181.006 120.373 179.74 122.278 180.046C124.219 180.36 125.54 182.186 125.228 184.126C125.185 184.396 125.111 184.656 125.011 184.9C125.272 184.88 125.542 184.891 125.812 184.934Z" fill="#FEFFFA"/>
<path d="M125.812 184.934C127.752 185.246 129.072 187.072 128.76 189.012C128.478 190.751 126.985 191.99 125.282 192.007C125.377 192.43 125.393 192.884 125.32 193.339C125.008 195.279 123.182 196.599 121.242 196.287C120.098 196.103 119.169 195.392 118.665 194.441C118.497 194.636 118.301 194.813 118.083 194.97C116.49 196.122 114.264 195.764 113.112 194.172C111.96 192.578 112.32 190.354 113.913 189.202C114.195 188.999 114.499 188.841 114.811 188.733C112.972 188.34 111.744 186.565 112.046 184.687C112.357 182.747 114.184 181.426 116.124 181.738C116.966 181.871 117.692 182.292 118.217 182.884C118.578 181.006 120.373 179.74 122.278 180.046C124.219 180.36 125.54 182.186 125.228 184.126C125.185 184.396 125.111 184.656 125.011 184.9C125.272 184.88 125.542 184.891 125.812 184.934Z" stroke="#2E1E00" stroke-width="2" stroke-miterlimit="10" stroke-linecap="round" stroke-linejoin="round"/>
<path d="M166.362 333.291C166.362 333.291 169.706 332.602 170.632 329.75C171.157 328.134 170.599 326.307 169.238 325.291C168.946 325.074 168.631 324.922 168.314 324.908C168.314 324.908 166.649 318.593 162.4 320.29C157.461 322.263 161.539 326.171 161.539 326.171C161.539 326.171 156.142 325.999 157.118 329.731C158.094 333.463 162.745 331.511 162.745 331.511C162.745 331.511 161.666 335.473 163.842 335.702C166.017 335.932 166.362 333.291 166.362 333.291Z" fill="#FEFFFA"/>
<path d="M166.362 333.291C166.362 333.291 169.706 332.602 170.632 329.75C171.157 328.134 170.599 326.307 169.238 325.291C168.946 325.074 168.631 324.922 168.314 324.908C168.314 324.908 166.649 318.593 162.4 320.29C157.461 322.263 161.539 326.171 161.539 326.171C161.539 326.171 156.142 325.999 157.118 329.731C158.094 333.463 162.745 331.511 162.745 331.511C162.745 331.511 161.666 335.473 163.842 335.702C166.017 335.932 166.362 333.291 166.362 333.291Z" stroke="#2E1E00" stroke-width="2" stroke-miterlimit="10" stroke-linecap="round" stroke-linejoin="round"/>
<path d="M1071.69 361.364C1071.69 361.364 1076.12 363.764 1079.88 361.421C1082.01 360.094 1083.11 357.498 1082.54 355.056C1082.42 354.532 1082.21 354.063 1081.86 353.745C1081.86 353.745 1085.98 345.023 1079.57 342.903C1072.11 340.437 1073 348.732 1073 348.732C1073 348.732 1067.07 343.407 1064.62 348.554C1062.18 353.7 1069.29 355.914 1069.29 355.914C1069.29 355.914 1064.3 359.367 1066.54 361.695C1068.79 364.022 1071.69 361.364 1071.69 361.364Z" fill="#FEFFFA"/>
<path d="M1071.69 361.364C1071.69 361.364 1076.12 363.764 1079.88 361.421C1082.01 360.094 1083.11 357.498 1082.54 355.056C1082.42 354.532 1082.21 354.063 1081.86 353.745C1081.86 353.745 1085.98 345.023 1079.57 342.903C1072.11 340.437 1073 348.732 1073 348.732C1073 348.732 1067.07 343.407 1064.62 348.554C1062.18 353.7 1069.29 355.914 1069.29 355.914C1069.29 355.914 1064.3 359.367 1066.54 361.695C1068.79 364.022 1071.69 361.364 1071.69 361.364Z" stroke="#2E1E00" stroke-width="2" stroke-miterlimit="10" stroke-linecap="round" stroke-linejoin="round"/>
<path d="M993.419 368.09C993.419 368.09 998.337 371.518 1001.75 367.489C1005.17 363.46 999.369 362.232 999.369 362.232C999.369 362.232 1002.01 358.736 999.292 356.673C996.579 354.611 993.779 358.155 993.779 358.155C993.779 358.155 989.695 353.106 986.806 357.057C983.917 361.008 989.169 362.966 989.169 362.966C989.169 362.966 986.217 367.528 988.72 368.852C991.223 370.177 993.419 368.09 993.419 368.09Z" fill="#FEFFFA"/>
<path d="M993.419 368.09C993.419 368.09 998.337 371.518 1001.75 367.489C1005.17 363.46 999.369 362.232 999.369 362.232C999.369 362.232 1002.01 358.736 999.292 356.673C996.579 354.611 993.779 358.155 993.779 358.155C993.779 358.155 989.695 353.106 986.806 357.057C983.917 361.008 989.169 362.966 989.169 362.966C989.169 362.966 986.217 367.528 988.72 368.852C991.223 370.177 993.419 368.09 993.419 368.09Z" stroke="#2E1E00" stroke-width="2" stroke-miterlimit="10" stroke-linecap="round" stroke-linejoin="round"/>
<path d="M449.005 336.565C449.005 336.565 453.146 335.623 452.665 331.913C452.182 328.202 448.774 330.653 448.774 330.653C448.774 330.653 448.199 327.605 445.825 328.043C443.451 328.481 443.972 331.638 443.972 331.638C443.972 331.638 439.379 331.37 440.071 334.768C440.763 338.165 444.294 336.347 444.294 336.347C444.294 336.347 445.276 340.07 447.164 339.39C449.052 338.71 449.005 336.565 449.005 336.565Z" fill="#FEFFFA"/>
<path d="M449.005 336.565C449.005 336.565 453.146 335.623 452.665 331.913C452.182 328.202 448.774 330.653 448.774 330.653C448.774 330.653 448.199 327.605 445.825 328.043C443.451 328.481 443.972 331.638 443.972 331.638C443.972 331.638 439.379 331.37 440.071 334.768C440.763 338.165 444.294 336.347 444.294 336.347C444.294 336.347 445.276 340.07 447.164 339.39C449.052 338.71 449.005 336.565 449.005 336.565Z" stroke="#2E1E00" stroke-width="2" stroke-miterlimit="10" stroke-linecap="round" stroke-linejoin="round"/>
<path d="M1170.87 420.696C1170.87 420.696 1175.05 419.968 1174.76 416.238C1174.47 412.507 1170.94 414.781 1170.94 414.781C1170.94 414.781 1170.53 411.707 1168.13 412.023C1165.74 412.338 1166.1 415.518 1166.1 415.518C1166.1 415.518 1161.52 415.015 1162.04 418.443C1162.56 421.872 1166.18 420.238 1166.18 420.238C1166.18 420.238 1166.97 424.006 1168.89 423.423C1170.81 422.841 1170.87 420.696 1170.87 420.696Z" fill="#FEFFFA"/>
<path d="M1170.87 420.696C1170.87 420.696 1175.05 419.968 1174.76 416.238C1174.47 412.507 1170.94 414.781 1170.94 414.781C1170.94 414.781 1170.53 411.707 1168.13 412.023C1165.74 412.338 1166.1 415.518 1166.1 415.518C1166.1 415.518 1161.52 415.015 1162.04 418.443C1162.56 421.872 1166.18 420.238 1166.18 420.238C1166.18 420.238 1166.97 424.006 1168.89 423.423C1170.81 422.841 1170.87 420.696 1170.87 420.696Z" stroke="#2E1E00" stroke-width="2" stroke-miterlimit="10" stroke-linecap="round" stroke-linejoin="round"/>
<path d="M896.562 207.958C896.562 207.958 902.114 212.292 906.376 207.783C910.638 203.275 903.915 201.465 903.915 201.465C903.915 201.465 907.23 197.531 904.179 194.939C901.127 192.348 897.617 196.326 897.617 196.326C897.617 196.326 893.147 190.144 889.507 194.594C885.867 199.045 891.903 201.677 891.903 201.677C891.903 201.677 888.149 206.84 891.001 208.554C893.853 210.266 896.562 207.958 896.562 207.958Z" fill="#FEFFFA"/>
<path d="M896.562 207.958C896.562 207.958 902.114 212.292 906.376 207.783C910.638 203.275 903.915 201.465 903.915 201.465C903.915 201.465 907.23 197.531 904.179 194.939C901.127 192.348 897.617 196.326 897.617 196.326C897.617 196.326 893.147 190.144 889.507 194.594C885.867 199.045 891.903 201.677 891.903 201.677C891.903 201.677 888.149 206.84 891.001 208.554C893.853 210.266 896.562 207.958 896.562 207.958Z" stroke="#2E1E00" stroke-width="2" stroke-miterlimit="10" stroke-linecap="round" stroke-linejoin="round"/>
<path d="M1179.21 684.192C1179.21 684.192 1179.7 691.217 1185.9 691.369C1192.1 691.521 1188.95 685.313 1188.95 685.313C1188.95 685.313 1194.09 685.146 1193.98 681.144C1193.86 677.142 1188.56 677.194 1188.56 677.194C1188.56 677.194 1190.16 669.736 1184.42 670.007C1178.68 670.279 1180.76 676.527 1180.76 676.527C1180.76 676.527 1174.41 677.19 1175.04 680.456C1175.68 683.722 1179.21 684.192 1179.21 684.192Z" fill="#FEFFFA"/>
<path d="M1179.21 684.192C1179.21 684.192 1179.7 691.217 1185.9 691.369C1192.1 691.521 1188.95 685.313 1188.95 685.313C1188.95 685.313 1194.09 685.146 1193.98 681.144C1193.86 677.142 1188.56 677.194 1188.56 677.194C1188.56 677.194 1190.16 669.736 1184.42 670.007C1178.68 670.279 1180.76 676.527 1180.76 676.527C1180.76 676.527 1174.41 677.19 1175.04 680.456C1175.68 683.722 1179.21 684.192 1179.21 684.192Z" stroke="#2E1E00" stroke-width="2" stroke-miterlimit="10" stroke-linecap="round" stroke-linejoin="round"/>
<path d="M1223.36 224.815C1223.03 226.752 1221.19 228.054 1219.25 227.723C1217.52 227.425 1216.29 225.92 1216.29 224.217C1215.87 224.308 1215.42 224.319 1214.96 224.242C1213.02 223.911 1211.72 222.073 1212.05 220.136C1212.25 218.993 1212.97 218.072 1213.92 217.577C1213.73 217.407 1213.55 217.209 1213.4 216.99C1212.26 215.386 1212.64 213.162 1214.25 212.026C1215.85 210.89 1218.07 211.271 1219.21 212.875C1219.41 213.159 1219.56 213.465 1219.67 213.778C1220.08 211.943 1221.87 210.731 1223.74 211.051C1225.68 211.382 1226.98 213.221 1226.65 215.157C1226.51 215.998 1226.08 216.72 1225.48 217.24C1227.36 217.619 1228.61 219.426 1228.28 221.328C1227.95 223.266 1226.11 224.569 1224.17 224.238C1223.9 224.193 1223.65 224.116 1223.4 224.013C1223.42 224.276 1223.41 224.546 1223.36 224.815Z" fill="#FEFFFA"/>
<path d="M1223.36 224.815C1223.03 226.752 1221.19 228.054 1219.25 227.723C1217.52 227.425 1216.29 225.92 1216.29 224.217C1215.87 224.308 1215.42 224.319 1214.96 224.242C1213.02 223.911 1211.72 222.073 1212.05 220.136C1212.25 218.993 1212.97 218.072 1213.92 217.577C1213.73 217.407 1213.55 217.209 1213.4 216.99C1212.26 215.386 1212.64 213.162 1214.25 212.026C1215.85 210.89 1218.07 211.271 1219.21 212.875C1219.41 213.159 1219.56 213.465 1219.67 213.778C1220.08 211.943 1221.87 210.731 1223.74 211.051C1225.68 211.382 1226.98 213.221 1226.65 215.157C1226.51 215.998 1226.08 216.72 1225.48 217.24C1227.36 217.619 1228.61 219.426 1228.28 221.328C1227.95 223.266 1226.11 224.569 1224.17 224.238C1223.9 224.193 1223.65 224.116 1223.4 224.013C1223.42 224.276 1223.41 224.546 1223.36 224.815Z" stroke="#2E1E00" stroke-width="2" stroke-miterlimit="10" stroke-linecap="round" stroke-linejoin="round"/>
<path d="M356.356 399.758C356.356 399.758 351.39 398.887 348.568 402.3C346.969 404.233 346.741 407.045 348.059 409.18C348.342 409.638 348.691 410.016 349.119 410.208C349.119 410.208 347.972 419.787 354.729 419.766C362.585 419.741 359.109 412.157 359.109 412.157C359.109 412.157 366.427 415.327 367.115 409.672C367.804 404.016 360.356 404.169 360.356 404.169C360.356 404.169 363.99 399.314 361.128 397.816C358.265 396.318 356.356 399.758 356.356 399.758Z" fill="#FEFFFA"/>
<path d="M356.356 399.758C356.356 399.758 351.39 398.887 348.568 402.3C346.969 404.233 346.741 407.045 348.059 409.18C348.342 409.638 348.691 410.016 349.119 410.208C349.119 410.208 347.972 419.787 354.729 419.766C362.585 419.741 359.109 412.157 359.109 412.157C359.109 412.157 366.427 415.327 367.115 409.672C367.804 404.016 360.356 404.169 360.356 404.169C360.356 404.169 363.99 399.314 361.128 397.816C358.265 396.318 356.356 399.758 356.356 399.758Z" stroke="#2E1E00" stroke-width="2" stroke-miterlimit="10" stroke-linecap="round" stroke-linejoin="round"/>
<path d="M7.31473 494.836C7.31473 494.836 4.28563 498.867 6.04736 502.93C7.04542 505.232 9.44856 506.71 11.9492 506.504C12.4853 506.46 12.9805 506.32 13.346 506.026C13.346 506.026 21.3625 511.392 24.4083 505.36C27.9488 498.347 19.6134 498.006 19.6134 498.006C19.6134 498.006 25.7578 492.921 21.0294 489.743C16.3011 486.564 13.0594 493.271 13.0594 493.271C13.0594 493.271 10.3814 487.831 7.748 489.703C5.11456 491.575 7.31473 494.836 7.31473 494.836Z" fill="#FEFFFA"/>
<path d="M7.31473 494.836C7.31473 494.836 4.28563 498.867 6.04736 502.93C7.04542 505.232 9.44855 506.71 11.9492 506.504C12.4853 506.46 12.9805 506.32 13.346 506.026C13.346 506.026 21.3625 511.392 24.4083 505.36C27.9488 498.347 19.6134 498.006 19.6134 498.006C19.6134 498.006 25.7578 492.921 21.0294 489.743C16.3011 486.564 13.0594 493.271 13.0594 493.271C13.0594 493.271 10.3814 487.831 7.748 489.703C5.11456 491.575 7.31473 494.836 7.31473 494.836Z" stroke="#2E1E00" stroke-width="2" stroke-miterlimit="10" stroke-linecap="round" stroke-linejoin="round"/>
<path d="M485.653 187.055C485.653 187.055 488.957 184.387 486.892 181.267C484.826 178.148 482.844 181.849 482.844 181.849C482.844 181.849 480.987 179.364 479.047 180.802C477.108 182.24 478.965 184.845 478.965 184.845C478.965 184.845 474.722 186.625 476.839 189.372C478.955 192.119 481.327 188.933 481.327 188.933C481.327 188.933 483.845 191.844 485.242 190.403C486.638 188.962 485.653 187.055 485.653 187.055Z" fill="#FEFFFA"/>
<path d="M485.653 187.055C485.653 187.055 488.957 184.387 486.892 181.267C484.826 178.148 482.844 181.849 482.844 181.849C482.844 181.849 480.987 179.364 479.047 180.802C477.108 182.24 478.965 184.845 478.965 184.845C478.965 184.845 474.722 186.625 476.839 189.372C478.955 192.119 481.327 188.933 481.327 188.933C481.327 188.933 483.845 191.844 485.242 190.403C486.638 188.962 485.653 187.055 485.653 187.055Z" stroke="#2E1E00" stroke-width="2" stroke-miterlimit="10" stroke-linecap="round" stroke-linejoin="round"/>
<path d="M714.278 86.5909C714.278 86.5909 714.926 82.3938 711.299 81.4763C707.671 80.5591 708.697 84.6303 708.697 84.6303C708.697 84.6303 705.651 84.0426 705.184 86.4116C704.717 88.7801 707.845 89.4577 707.845 89.4577C707.845 89.4577 705.905 93.6297 709.319 94.2367C712.733 94.8438 712.342 90.8912 712.342 90.8912C712.342 90.8912 716.164 91.3485 716.227 89.3434C716.289 87.3375 714.278 86.5909 714.278 86.5909Z" fill="#FEFFFA"/>
<path d="M714.278 86.5909C714.278 86.5909 714.926 82.3938 711.299 81.4763C707.671 80.5591 708.697 84.6303 708.697 84.6303C708.697 84.6303 705.651 84.0426 705.184 86.4116C704.717 88.7801 707.845 89.4577 707.845 89.4577C707.845 89.4577 705.905 93.6297 709.319 94.2367C712.733 94.8438 712.342 90.8912 712.342 90.8912C712.342 90.8912 716.164 91.3485 716.227 89.3434C716.289 87.3375 714.278 86.5909 714.278 86.5909Z" stroke="#2E1E00" stroke-width="2" stroke-miterlimit="10" stroke-linecap="round" stroke-linejoin="round"/>
<path d="M340.576 233.013C340.576 233.013 344.443 238.898 349.927 235.994C355.41 233.091 349.622 229.221 349.622 229.221C349.622 229.221 354.024 226.558 351.965 223.124C349.906 219.691 345.305 222.334 345.305 222.334C345.305 222.334 343.054 215.044 338.179 218.091C333.304 221.139 338.178 225.569 338.178 225.569C338.178 225.569 332.965 229.255 335.117 231.793C337.269 234.33 340.576 233.013 340.576 233.013Z" fill="#FEFFFA"/>
<path d="M340.576 233.013C340.576 233.013 344.443 238.898 349.927 235.994C355.41 233.091 349.622 229.221 349.622 229.221C349.622 229.221 354.024 226.558 351.965 223.124C349.906 219.691 345.305 222.334 345.305 222.334C345.305 222.334 343.054 215.044 338.179 218.091C333.304 221.139 338.178 225.569 338.178 225.569C338.178 225.569 332.965 229.255 335.117 231.793C337.269 234.33 340.576 233.013 340.576 233.013Z" stroke="#2E1E00" stroke-width="2" stroke-miterlimit="10" stroke-linecap="round" stroke-linejoin="round"/>
<path d="M822.576 24.0125C822.576 24.0125 826.443 29.8978 831.927 26.9943C837.41 24.0913 831.622 20.221 831.622 20.221C831.622 20.221 836.024 17.558 833.965 14.1245C831.906 10.6909 827.305 13.3336 827.305 13.3336C827.305 13.3336 825.054 6.04369 820.179 9.09143C815.304 12.1395 820.178 16.5689 820.178 16.5689C820.178 16.5689 814.965 20.2553 817.117 22.7928C819.27 25.3295 822.576 24.0125 822.576 24.0125Z" fill="#FEFFFA"/>
<path d="M822.576 24.0125C822.576 24.0125 826.443 29.8978 831.927 26.9943C837.41 24.0913 831.622 20.221 831.622 20.221C831.622 20.221 836.024 17.558 833.965 14.1245C831.906 10.6909 827.305 13.3336 827.305 13.3336C827.305 13.3336 825.054 6.04369 820.179 9.09143C815.304 12.1395 820.178 16.5689 820.178 16.5689C820.178 16.5689 814.965 20.2553 817.117 22.7928C819.27 25.3295 822.576 24.0125 822.576 24.0125Z" stroke="#2E1E00" stroke-width="2" stroke-miterlimit="10" stroke-linecap="round" stroke-linejoin="round"/>
</svg>
