<svg width="783" height="313" viewBox="0 0 783 313" fill="none" xmlns="http://www.w3.org/2000/svg">
<path d="M227.797 187.475C227.797 187.475 225.301 191.936 227.622 195.779C228.938 197.957 231.553 199.116 234.038 198.57C234.571 198.453 235.049 198.246 235.376 197.899C235.376 197.899 244.16 202.203 246.402 195.729C249.008 188.202 240.586 188.99 240.586 188.99C240.586 188.99 246.07 183.048 240.887 180.495C235.705 177.944 233.358 185.122 233.358 185.122C233.358 185.122 229.928 180.019 227.536 182.257C225.144 184.496 227.797 187.475 227.797 187.475Z" fill="#FEFFFA"/>
<path d="M241.105 199.963C238.722 199.963 236.396 199.07 235.483 198.675C235.133 198.922 234.697 199.102 234.179 199.215C231.447 199.815 228.519 198.544 227.056 196.121C224.959 192.65 226.431 188.805 227.015 187.559C226.015 186.223 225.02 183.706 227.085 181.774C227.69 181.208 228.428 180.955 229.217 181.047C230.812 181.228 232.323 182.754 233.186 183.799C233.793 182.51 235.019 180.465 236.97 179.644C238.288 179.089 239.704 179.177 241.179 179.902C242.614 180.609 243.465 181.626 243.707 182.924C244.077 184.915 242.86 187.062 241.957 188.327C243.367 188.417 245.474 188.824 246.672 190.351C247.727 191.694 247.846 193.578 247.026 195.946C246.433 197.66 245.366 198.844 243.856 199.466C242.985 199.825 242.04 199.963 241.105 199.963ZM235.376 197.238C235.475 197.238 235.574 197.26 235.667 197.306C235.712 197.329 240.264 199.517 243.355 198.243C244.515 197.764 245.307 196.871 245.777 195.513C246.44 193.598 246.392 192.137 245.634 191.169C244.208 189.347 240.683 189.643 240.646 189.649C240.376 189.673 240.114 189.527 239.993 189.282C239.872 189.038 239.914 188.743 240.099 188.542C240.127 188.512 242.847 185.521 242.407 183.163C242.243 182.287 241.65 181.608 240.595 181.088C239.464 180.532 238.447 180.457 237.486 180.861C235.158 181.838 233.997 185.293 233.986 185.328C233.906 185.568 233.697 185.741 233.448 185.777C233.199 185.809 232.951 185.7 232.809 185.492C232.26 184.676 230.516 182.524 229.066 182.36C228.659 182.315 228.314 182.435 227.988 182.739C226.1 184.505 228.201 186.933 228.292 187.035C228.477 187.245 228.51 187.551 228.374 187.795C228.351 187.836 226.099 191.978 228.188 195.437C229.362 197.382 231.71 198.404 233.896 197.924C234.354 197.824 234.69 197.663 234.896 197.444C235.025 197.31 235.199 197.238 235.376 197.238Z" fill="#2E1E00"/>
<path d="M199.319 137.862C199.319 137.862 209.193 133.575 205.356 127.304C201.52 121.032 196.118 126.199 196.118 126.199C196.118 126.199 192.179 120.083 188.459 122.824C184.739 125.565 186.577 142.366 199.319 137.862Z" fill="#FEFFFA"/>
<path d="M195.317 139.271C192.005 139.271 189.315 137.635 187.654 134.499C185.406 130.259 185.615 124.099 188.067 122.291C189.04 121.574 190.111 121.316 191.249 121.526C193.512 121.942 195.422 124.144 196.244 125.234C197.189 124.516 199.167 123.29 201.387 123.58C203.165 123.811 204.69 124.948 205.92 126.959C206.914 128.583 207.156 130.235 206.64 131.869C205.36 135.92 199.817 138.366 199.582 138.468C199.568 138.475 199.554 138.481 199.539 138.484C198.05 139.011 196.634 139.271 195.317 139.271ZM190.497 122.779C189.918 122.779 189.376 122.97 188.851 123.356C187.127 124.626 186.798 130.062 188.822 133.881C189.985 136.077 192.864 139.431 199.074 137.248C199.423 137.092 204.318 134.838 205.38 131.468C205.781 130.199 205.589 128.95 204.793 127.65C203.782 125.997 202.579 125.07 201.217 124.892C198.802 124.577 196.597 126.656 196.575 126.677C196.432 126.813 196.239 126.882 196.041 126.856C195.845 126.833 195.67 126.723 195.562 126.558C195.541 126.525 193.411 123.267 191.008 122.827C190.834 122.794 190.664 122.779 190.497 122.779ZM199.319 137.862H199.326H199.319Z" fill="#2E1E00"/>
<path d="M531.94 311.773H469.462L462.337 272.311L439.314 311.773H130.191L95.6603 298.619L127.639 274.631C125.134 257.564 132.161 245.019 132.161 245.019L113.084 228.453L223.008 225.948C236.652 221.685 247.135 220.541 255.034 220.898C270.396 221.585 275.981 227.911 275.981 227.911C293.088 224.891 308.793 223.159 323.084 222.359C329.152 222.022 334.969 221.856 340.521 221.83C357.462 221.744 372.031 222.993 384.213 224.818C391.478 225.908 397.889 227.204 403.448 228.552C421.474 232.908 430.543 237.78 430.543 237.78C430.543 237.78 454.808 208.2 475.636 196.924C481.559 193.711 487.197 191.985 491.93 192.832C513.306 196.673 505.084 292.041 505.084 292.041C533.038 290.944 531.94 311.773 531.94 311.773Z" fill="#FFDC38"/>
<path d="M531.941 312.433H469.463C469.143 312.433 468.869 312.204 468.812 311.891L462.005 274.192L439.885 312.106C439.767 312.31 439.549 312.433 439.315 312.433H130.192C130.111 312.433 130.031 312.419 129.956 312.391L95.4256 299.237C95.2002 299.151 95.0396 298.95 95.0065 298.712C94.9728 298.474 95.0713 298.236 95.2643 298.092L126.93 274.338C124.841 259.293 130.106 247.64 131.335 245.177L112.651 228.953C112.445 228.775 112.37 228.487 112.463 228.23C112.555 227.973 112.797 227.8 113.07 227.793L222.901 225.29C234.99 221.521 245.811 219.823 255.064 220.238C268.886 220.857 274.919 225.938 276.212 227.2C292.164 224.397 307.919 222.547 323.047 221.7C328.883 221.375 334.762 221.197 340.518 221.17C355.778 221.095 370.52 222.1 384.312 224.164C391.017 225.171 397.508 226.433 403.604 227.911C419.216 231.683 428.255 235.903 430.372 236.953C433.399 233.335 455.953 206.829 475.321 196.343C481.901 192.775 487.529 191.374 492.047 192.182C512.997 195.945 506.589 281.76 505.805 291.357C515.297 291.111 522.471 293.373 527.125 298.091C532.942 303.986 532.617 311.49 532.6 311.808C532.582 312.158 532.292 312.433 531.941 312.433ZM470.015 311.111H531.278C531.216 309.237 530.647 303.531 526.169 299.004C521.666 294.451 514.582 292.332 505.11 292.702C504.932 292.716 504.737 292.636 504.606 292.499C504.475 292.361 504.409 292.175 504.425 291.985C504.507 291.038 512.357 197.174 491.813 193.484C487.6 192.731 482.262 194.082 475.951 197.505C455.477 208.59 431.296 237.905 431.054 238.199C430.854 238.443 430.51 238.512 430.231 238.362C430.14 238.314 421.009 233.476 403.293 229.195C397.235 227.725 390.782 226.473 384.115 225.472C370.392 223.417 355.731 222.421 340.525 222.492C334.79 222.518 328.934 222.695 323.121 223.019C307.936 223.869 292.115 225.733 276.096 228.562C275.869 228.603 275.638 228.521 275.486 228.349C275.432 228.289 269.85 222.223 255.005 221.56C245.888 221.148 235.185 222.836 223.206 226.579C223.147 226.599 223.086 226.608 223.024 226.61L114.809 229.076L132.594 244.52C132.831 244.724 132.89 245.068 132.738 245.34C132.669 245.465 125.853 257.907 128.294 274.535C128.329 274.775 128.23 275.015 128.037 275.16L97.0166 298.428L130.313 311.111H438.935L461.766 271.978C461.906 271.739 462.183 271.61 462.452 271.66C462.725 271.708 462.938 271.921 462.988 272.194L470.015 311.111Z" fill="#2E1E00"/>
<path d="M293.657 278.577C293.647 278.577 293.636 278.577 293.626 278.576C293.262 278.56 292.979 278.25 292.996 277.885C293.891 258.73 289.117 246.312 284.955 239.267C280.45 231.645 275.672 228.499 275.624 228.468C275.318 228.271 275.229 227.861 275.427 227.555C275.625 227.249 276.033 227.16 276.34 227.357C276.538 227.484 296.067 240.499 294.317 277.947C294.301 278.301 294.008 278.577 293.657 278.577Z" fill="#2E1E00"/>
<path d="M362.956 199.687C362.956 206.628 372.197 212.246 383.599 212.246C384.253 212.246 384.901 212.226 385.542 212.187L384.214 224.818C372.031 222.993 357.463 221.745 340.522 221.83C334.969 221.857 329.152 222.022 323.084 222.359L320.394 189.038L317.241 149.967H392.099L388.153 187.445C386.686 187.24 385.166 187.134 383.599 187.134C372.197 187.134 362.956 192.753 362.956 199.687Z" fill="#FDEAA7"/>
<path d="M384.214 225.479C384.181 225.479 384.148 225.476 384.116 225.472C370.392 223.417 355.731 222.421 340.524 222.492C334.79 222.518 328.934 222.695 323.121 223.019C322.765 223.039 322.455 222.771 322.425 222.412L316.582 150.019C316.567 149.836 316.63 149.654 316.755 149.518C316.88 149.383 317.056 149.305 317.241 149.305H392.099C392.286 149.305 392.465 149.385 392.591 149.524C392.715 149.664 392.776 149.849 392.756 150.036L388.81 187.514C388.792 187.692 388.701 187.855 388.56 187.966C388.419 188.075 388.238 188.126 388.061 188.1C386.614 187.898 385.113 187.796 383.599 187.796C372.581 187.796 363.616 193.13 363.616 199.687C363.616 206.248 372.581 211.585 383.599 211.585C384.236 211.585 384.877 211.565 385.501 211.526C385.699 211.518 385.885 211.589 386.02 211.729C386.154 211.869 386.22 212.062 386.199 212.256L384.871 224.887C384.852 225.066 384.76 225.23 384.618 225.341C384.502 225.431 384.359 225.479 384.214 225.479ZM342.162 221.166C356.593 221.166 370.53 222.14 383.628 224.064L384.804 212.885C384.404 212.899 384.001 212.908 383.599 212.908C371.852 212.908 362.294 206.977 362.294 199.688C362.294 192.402 371.852 186.475 383.599 186.475C384.939 186.475 386.27 186.552 387.566 186.704L391.365 150.628H317.957L323.691 221.665C329.316 221.363 334.973 221.197 340.518 221.171C341.066 221.168 341.615 221.166 342.162 221.166Z" fill="#2E1E00"/>
<path d="M156.692 312.433C156.684 312.433 156.677 312.433 156.67 312.433C156.305 312.421 156.019 312.116 156.031 311.752L157.18 276.488C157.191 276.123 157.473 275.823 157.862 275.849C158.227 275.862 158.513 276.166 158.501 276.531L157.352 311.793C157.34 312.151 157.047 312.433 156.692 312.433Z" fill="#2E1E00"/>
<path d="M158.082 249.456L157.84 276.511C157.84 276.511 172.657 267.865 170.573 257.947C168.488 248.026 158.082 249.456 158.082 249.456Z" fill="#2E1E00"/>
<path d="M157.841 277.171C157.726 277.171 157.611 277.141 157.509 277.081C157.303 276.961 157.178 276.741 157.18 276.504L157.421 249.449C157.424 249.121 157.667 248.844 157.992 248.801C158.103 248.786 169.034 247.408 171.22 257.81C172.121 262.096 170.127 266.801 165.453 271.418C161.99 274.838 158.328 276.991 158.174 277.08C158.071 277.141 157.956 277.171 157.841 277.171ZM158.738 250.064L158.512 275.302C161.748 273.165 171.578 265.942 169.926 258.082C169.118 254.236 166.919 251.728 163.392 250.625C161.463 250.022 159.632 250.018 158.738 250.064Z" fill="#2E1E00"/>
<path d="M167.592 311.773L174.284 286.038L180.971 311.773H167.592Z" fill="#2E1E00"/>
<path d="M180.971 312.433H167.593C167.388 312.433 167.195 312.338 167.07 312.176C166.945 312.015 166.902 311.805 166.953 311.606L173.645 285.872C173.721 285.581 173.984 285.377 174.285 285.377C174.586 285.377 174.849 285.581 174.924 285.872L181.611 311.606C181.662 311.805 181.619 312.015 181.494 312.176C181.368 312.338 181.175 312.433 180.971 312.433ZM168.447 311.111H180.116L174.284 288.666L168.447 311.111Z" fill="#2E1E00"/>
<path d="M187.894 311.773L190.953 294.141L196.498 311.773H187.894Z" fill="#2E1E00"/>
<path d="M196.498 312.433H187.893C187.699 312.433 187.513 312.347 187.387 312.199C187.262 312.049 187.209 311.852 187.242 311.66L190.301 294.028C190.353 293.728 190.604 293.502 190.908 293.482C191.216 293.466 191.491 293.653 191.583 293.943L197.128 311.575C197.191 311.776 197.155 311.994 197.03 312.165C196.907 312.334 196.708 312.433 196.498 312.433ZM188.679 311.111H195.597L191.138 296.936L188.679 311.111Z" fill="#2E1E00"/>
<path d="M218.997 312.433C218.909 312.433 218.819 312.417 218.733 312.379C218.399 312.232 218.245 311.842 218.391 311.509C218.525 311.203 231.646 280.601 223.761 254.333C223.656 253.984 223.855 253.616 224.204 253.51C224.556 253.407 224.923 253.604 225.028 253.953C233.053 280.692 219.738 311.727 219.603 312.037C219.495 312.285 219.252 312.433 218.997 312.433Z" fill="#FEFFFA"/>
<path d="M260.363 278.577C260.331 278.577 260.298 278.574 260.266 278.57C259.904 278.516 259.655 278.18 259.708 277.819C259.738 277.62 262.559 257.818 254.745 252.75C249.848 249.575 236.943 252.233 224.463 254.803C207.443 258.309 189.843 261.934 187.521 252.35C185.84 245.413 191.332 238.739 203.846 232.512C212.992 227.962 222.74 225.332 222.837 225.306C223.19 225.21 223.553 225.422 223.647 225.774C223.742 226.127 223.532 226.489 223.179 226.584C222.798 226.685 185.146 236.939 188.806 252.04C190.827 260.382 207.792 256.888 224.196 253.509C237.524 250.765 250.113 248.17 255.464 251.641C263.988 257.168 261.141 277.164 261.016 278.012C260.968 278.342 260.685 278.577 260.363 278.577Z" fill="#2E1E00"/>
<path d="M130.191 312.433H99.063C98.6982 312.433 98.402 312.139 98.402 311.772C98.402 311.407 98.6982 311.111 99.063 311.111H130.191C130.556 311.111 130.852 311.407 130.852 311.772C130.852 312.139 130.556 312.433 130.191 312.433Z" fill="#2E1E00"/>
<path d="M620.667 312.433H439.315C438.95 312.433 438.654 312.139 438.654 311.772C438.654 311.407 438.95 311.111 439.315 311.111H620.667C621.031 311.111 621.328 311.407 621.328 311.772C621.328 312.139 621.031 312.433 620.667 312.433Z" fill="#2E1E00"/>
<path d="M462.337 272.972C462.021 272.972 461.742 272.745 461.686 272.424L458.33 253.028C458.268 252.668 458.509 252.326 458.868 252.264C459.229 252.202 459.57 252.443 459.632 252.802L462.988 272.198C463.051 272.558 462.81 272.9 462.45 272.962C462.412 272.968 462.374 272.972 462.337 272.972Z" fill="#2E1E00"/>
<path d="M317.241 149.967C317.241 149.967 317.668 124.627 339.052 128.021C339.052 128.021 333.622 98.4909 348.556 96.7934C363.491 95.096 364.509 110.37 364.509 110.37C364.509 110.37 372.995 102.564 380.123 109.352C387.251 116.142 381.82 123.314 381.82 123.314C381.82 123.314 400.341 130.502 392.099 149.967H317.241Z" fill="#FEFFFA"/>
<path d="M392.099 150.627H317.241C317.064 150.627 316.894 150.557 316.77 150.43C316.646 150.304 316.577 150.132 316.58 149.955C316.589 149.435 316.883 137.139 324.508 130.739C328.101 127.724 332.721 126.549 338.252 127.239C337.635 123.313 335.665 107.903 341.298 100.305C343.098 97.8755 345.516 96.4735 348.482 96.1363C353.025 95.6188 356.79 96.5765 359.668 98.978C363.447 102.133 364.649 106.887 365.016 109.109C365.949 108.412 367.505 107.395 369.417 106.695C373.61 105.159 377.471 105.912 380.58 108.873C386.739 114.739 383.982 120.969 382.793 123.017C384.876 123.991 390.791 127.23 393.509 133.659C395.568 138.531 395.299 144.105 392.708 150.225C392.604 150.469 392.365 150.627 392.099 150.627ZM317.936 149.305H391.658C393.949 143.687 394.162 138.599 392.291 134.174C389.247 126.975 381.658 123.96 381.582 123.93C381.389 123.855 381.243 123.694 381.186 123.495C381.129 123.296 381.169 123.081 381.293 122.916C381.5 122.641 386.27 116.118 379.668 109.83C376.919 107.212 373.636 106.57 369.907 107.923C367.044 108.962 364.977 110.838 364.957 110.857C364.77 111.029 364.499 111.078 364.265 110.983C364.029 110.889 363.868 110.668 363.85 110.415C363.846 110.348 363.346 103.764 358.813 99.9874C356.224 97.8305 352.8 96.9778 348.631 97.4504C346.044 97.7439 343.934 98.9694 342.361 101.092C336.353 109.193 339.668 127.716 339.703 127.902C339.742 128.112 339.676 128.33 339.526 128.483C339.376 128.636 339.16 128.708 338.949 128.674C333.413 127.796 328.842 128.829 325.362 131.748C319.176 136.936 318.112 146.669 317.936 149.305Z" fill="#2E1E00"/>
<path d="M374.446 141.549C372.063 141.55 369.737 140.657 368.824 140.261C368.474 140.508 368.037 140.688 367.52 140.801C364.788 141.402 361.86 140.131 360.397 137.707C358.3 134.236 359.771 130.392 360.356 129.146C359.356 127.809 358.361 125.293 360.425 123.362C361.03 122.795 361.768 122.543 362.557 122.633C364.152 122.814 365.664 124.341 366.527 125.385C367.134 124.096 368.36 122.052 370.311 121.231C371.629 120.675 373.045 120.763 374.52 121.489C375.955 122.196 376.806 123.212 377.047 124.51C377.418 126.502 376.201 128.648 375.297 129.913C376.708 130.004 378.815 130.411 380.012 131.937C381.068 133.281 381.187 135.164 380.367 137.533C379.774 139.247 378.707 140.431 377.197 141.053C376.325 141.412 375.381 141.549 374.446 141.549ZM368.717 138.825C368.816 138.825 368.915 138.847 369.007 138.893C369.053 138.916 373.605 141.105 376.696 139.83C377.855 139.351 378.647 138.458 379.117 137.101C379.781 135.184 379.732 133.721 378.973 132.753C377.782 131.237 374.968 131.144 373.987 131.235C373.712 131.261 373.455 131.116 373.334 130.871C373.212 130.625 373.254 130.331 373.44 130.129C373.467 130.099 376.188 127.109 375.747 124.75C375.583 123.874 374.991 123.194 373.936 122.675C372.806 122.118 371.789 122.044 370.827 122.448C368.498 123.426 367.337 126.881 367.326 126.915C367.247 127.155 367.038 127.329 366.788 127.363C366.537 127.398 366.291 127.288 366.149 127.078C365.6 126.263 363.857 124.111 362.407 123.947C361.997 123.9 361.655 124.021 361.328 124.327C359.429 126.104 361.541 128.519 361.631 128.621C361.818 128.831 361.851 129.137 361.715 129.383C361.692 129.424 359.439 133.565 361.529 137.023C362.703 138.969 365.049 139.992 367.236 139.511C367.694 139.411 368.03 139.249 368.237 139.031C368.365 138.897 368.539 138.825 368.717 138.825Z" fill="#2E1E00"/>
<path d="M347.696 115.744C347.558 115.744 347.419 115.701 347.3 115.611C347.007 115.392 346.949 114.977 347.169 114.686C348.484 112.936 349.963 112.048 351.563 112.048C354.242 112.048 356.175 114.578 356.255 114.686C356.475 114.977 356.416 115.39 356.125 115.609C355.834 115.828 355.419 115.771 355.2 115.481C355.184 115.46 353.576 113.37 351.563 113.37H351.558C350.397 113.373 349.276 114.083 348.225 115.48C348.095 115.653 347.897 115.744 347.696 115.744Z" fill="#2E1E00"/>
<path d="M337.449 141.926C337.311 141.926 337.171 141.883 337.052 141.794C336.76 141.575 336.702 141.16 336.921 140.868C338.237 139.118 339.715 138.23 341.316 138.23C343.994 138.23 345.927 140.76 346.008 140.868C346.227 141.16 346.168 141.573 345.877 141.793C345.587 142.011 345.172 141.954 344.952 141.664C344.936 141.642 343.328 139.552 341.316 139.552H341.31C340.15 139.554 339.028 140.264 337.977 141.663C337.848 141.835 337.65 141.926 337.449 141.926Z" fill="#2E1E00"/>
<path d="M475.637 196.924C454.809 208.201 430.543 237.781 430.543 237.781C430.543 237.781 421.474 232.909 403.449 228.553C416.219 213.231 442.936 182.072 458.913 179.269C471.109 177.129 475.637 189.685 475.637 196.924Z" fill="#FFDC38"/>
<path d="M430.543 238.442C430.437 238.442 430.33 238.415 430.231 238.362C430.141 238.314 421.01 233.477 403.294 229.195C403.071 229.141 402.893 228.977 402.822 228.761C402.75 228.545 402.795 228.306 402.941 228.13C409.494 220.267 419.38 208.667 429.516 198.744C441.896 186.627 451.748 179.855 458.799 178.618C463.062 177.872 466.748 178.773 469.757 181.3C474.275 185.095 476.298 191.882 476.298 196.924C476.298 197.167 476.165 197.39 475.951 197.506C455.478 208.591 431.296 237.906 431.054 238.2C430.925 238.358 430.736 238.442 430.543 238.442ZM404.634 228.163C419.615 231.869 428.302 235.926 430.372 236.953C433.38 233.358 455.682 207.148 474.971 196.534C474.871 191.845 472.984 185.738 468.906 182.313C466.21 180.048 462.887 179.242 459.027 179.92C442.792 182.768 414.778 216.002 404.634 228.163ZM475.636 196.924H475.643H475.636Z" fill="#2E1E00"/>
<path d="M323.084 222.359C308.794 223.159 293.088 224.891 275.982 227.911C275.982 227.911 270.396 221.585 255.035 220.898L319.694 188.926L320.394 189.038L323.084 222.359Z" fill="#FFDC38"/>
<path d="M275.982 228.572C275.794 228.572 275.613 228.492 275.487 228.349C275.433 228.289 269.85 222.223 255.005 221.56C254.704 221.546 254.45 221.33 254.388 221.035C254.326 220.741 254.471 220.441 254.742 220.306L319.401 188.333C319.524 188.273 319.662 188.25 319.798 188.274L320.499 188.386C320.799 188.434 321.029 188.682 321.053 188.986L323.744 222.307C323.758 222.484 323.7 222.66 323.583 222.793C323.466 222.927 323.299 223.009 323.122 223.019C307.936 223.869 292.115 225.733 276.097 228.562C276.058 228.569 276.02 228.572 275.982 228.572ZM257.531 220.402C269.612 221.468 274.998 226.015 276.211 227.199C291.926 224.437 307.449 222.601 322.371 221.738L319.778 189.622L257.531 220.402Z" fill="#2E1E00"/>
<path d="M404.242 199.687C404.242 206.231 396.032 211.592 385.542 212.187C384.901 212.226 384.253 212.246 383.599 212.246C372.197 212.246 362.956 206.628 362.956 199.687C362.956 192.753 372.197 187.135 383.599 187.135C385.166 187.135 386.686 187.241 388.153 187.446C397.368 188.701 404.242 193.705 404.242 199.687Z" fill="#FFDC38"/>
<path d="M383.599 212.907C371.852 212.907 362.295 206.977 362.295 199.687C362.295 192.402 371.852 186.475 383.599 186.475C385.174 186.475 386.737 186.58 388.245 186.791C398.052 188.128 404.903 193.432 404.903 199.688C404.903 206.566 396.596 212.222 385.58 212.846C384.932 212.887 384.264 212.907 383.599 212.907ZM383.599 187.796C372.581 187.796 363.617 193.129 363.617 199.687C363.617 206.247 372.581 211.585 383.599 211.585C384.237 211.585 384.877 211.565 385.501 211.526C395.641 210.951 403.581 205.751 403.581 199.687C403.581 194.199 397.055 189.325 388.064 188.101C386.614 187.898 385.113 187.796 383.599 187.796Z" fill="#2E1E00"/>
<path d="M156.692 237.793V210.737C156.692 210.737 171.431 219.514 169.258 229.414C167.085 239.315 156.692 237.793 156.692 237.793Z" fill="#2E1E00"/>
<path d="M158.084 238.527C157.189 238.527 156.621 238.45 156.596 238.446C156.271 238.399 156.031 238.12 156.031 237.793V210.737C156.031 210.499 156.158 210.28 156.365 210.162C156.571 210.045 156.825 210.047 157.03 210.169C157.183 210.261 160.826 212.445 164.258 215.897C168.891 220.554 170.842 225.278 169.903 229.556C168.136 237.608 161.173 238.527 158.084 238.527ZM157.353 237.19C158.246 237.245 160.077 237.257 162.012 236.671C165.549 235.6 167.77 233.11 168.612 229.272C170.335 221.428 160.568 214.118 157.353 211.951V237.19Z" fill="#2E1E00"/>
<path d="M161.264 252.592C160.899 252.592 160.603 252.298 160.603 251.931V236.502C160.603 236.137 160.899 235.841 161.264 235.841C161.629 235.841 161.925 236.137 161.925 236.502V251.931C161.925 252.297 161.629 252.592 161.264 252.592Z" fill="#2E1E00"/>
<path d="M177.795 244.004C177.795 245.943 176.223 247.515 174.284 247.515C172.346 247.515 170.774 245.943 170.774 244.004C170.774 242.065 172.346 240.493 174.284 240.493C176.223 240.493 177.795 242.065 177.795 244.004Z" fill="#2E1E00"/>
<path d="M616.026 9.7086C617.705 10.7289 618.24 12.9175 617.219 14.597C616.303 16.1009 614.453 16.6868 612.869 16.06C612.798 16.4883 612.641 16.9137 612.402 17.3081C611.382 18.987 609.193 19.5218 607.513 18.5015C606.522 17.8995 605.931 16.891 605.823 15.8194C605.594 15.9373 605.345 16.0273 605.084 16.0909C603.175 16.5574 601.247 15.3859 600.781 13.4768C600.314 11.5675 601.487 9.64234 603.396 9.17645C603.734 9.09358 604.075 9.06286 604.405 9.07978C602.85 8.02272 602.381 5.91517 603.369 4.28941C604.389 2.61051 606.578 2.07595 608.257 3.09602C608.987 3.53694 609.501 4.19953 609.765 4.94652C610.807 3.34334 612.946 2.84692 614.595 3.84888C616.275 4.87177 616.81 7.06063 615.789 8.74007C615.648 8.97363 615.481 9.18655 615.296 9.37515C615.547 9.45428 615.793 9.56662 616.026 9.7086Z" fill="#FEFFFA"/>
<path d="M616.026 9.7086C617.705 10.7289 618.24 12.9175 617.219 14.597C616.303 16.1009 614.453 16.6868 612.869 16.06C612.798 16.4883 612.641 16.9137 612.402 17.3081C611.382 18.987 609.193 19.5218 607.513 18.5015C606.522 17.8995 605.931 16.891 605.823 15.8194C605.594 15.9373 605.345 16.0273 605.084 16.0909C603.175 16.5574 601.247 15.386 600.781 13.4768C600.314 11.5675 601.487 9.64234 603.396 9.17645C603.734 9.09358 604.075 9.06286 604.405 9.07978C602.85 8.02272 602.381 5.91517 603.369 4.28941C604.389 2.61051 606.578 2.07595 608.257 3.09602C608.987 3.53694 609.501 4.19953 609.765 4.94652C610.807 3.34334 612.946 2.84692 614.595 3.84888C616.275 4.87177 616.81 7.06063 615.789 8.74007C615.648 8.97363 615.481 9.18655 615.296 9.37515C615.547 9.45428 615.793 9.56662 616.026 9.7086Z" stroke="#2E1E00" stroke-width="2" stroke-miterlimit="10" stroke-linecap="round" stroke-linejoin="round"/>
<path d="M652.356 193.758C652.356 193.758 647.39 192.887 644.568 196.3C642.969 198.233 642.741 201.045 644.059 203.18C644.342 203.638 644.691 204.016 645.119 204.208C645.119 204.208 643.972 213.787 650.729 213.766C658.585 213.741 655.109 206.157 655.109 206.157C655.109 206.157 662.427 209.327 663.115 203.672C663.804 198.016 656.356 198.169 656.356 198.169C656.356 198.169 659.99 193.314 657.128 191.816C654.265 190.318 652.356 193.758 652.356 193.758Z" fill="#FEFFFA"/>
<path d="M652.356 193.758C652.356 193.758 647.39 192.887 644.568 196.3C642.969 198.233 642.741 201.045 644.059 203.18C644.342 203.638 644.691 204.016 645.119 204.208C645.119 204.208 643.972 213.787 650.729 213.766C658.585 213.741 655.109 206.157 655.109 206.157C655.109 206.157 662.427 209.327 663.115 203.672C663.804 198.016 656.356 198.169 656.356 198.169C656.356 198.169 659.99 193.314 657.128 191.816C654.265 190.318 652.356 193.758 652.356 193.758Z" stroke="#2E1E00" stroke-width="2" stroke-miterlimit="10" stroke-linecap="round" stroke-linejoin="round"/>
<path d="M386.315 44.8359C386.315 44.8359 383.286 48.8672 385.047 52.9299C386.045 55.2317 388.449 56.71 390.949 56.5038C391.485 56.4598 391.981 56.3202 392.346 56.0257C392.346 56.0257 400.363 61.3917 403.408 55.3601C406.949 48.3473 398.613 48.0057 398.613 48.0057C398.613 48.0057 404.758 42.9211 400.029 39.7431C395.301 36.5642 392.059 43.2712 392.059 43.2712C392.059 43.2712 389.381 37.8308 386.748 39.7027C384.115 41.5746 386.315 44.8359 386.315 44.8359Z" fill="#FEFFFA"/>
<path d="M386.315 44.8359C386.315 44.8359 383.286 48.8672 385.047 52.9299C386.045 55.2317 388.449 56.71 390.949 56.5038C391.485 56.4598 391.981 56.3202 392.346 56.0257C392.346 56.0257 400.363 61.3917 403.408 55.3601C406.949 48.3473 398.613 48.0057 398.613 48.0057C398.613 48.0057 404.758 42.9211 400.029 39.7431C395.301 36.5642 392.059 43.2712 392.059 43.2712C392.059 43.2712 389.381 37.8308 386.748 39.7027C384.115 41.5746 386.315 44.8359 386.315 44.8359Z" stroke="#2E1E00" stroke-width="2" stroke-miterlimit="10" stroke-linecap="round" stroke-linejoin="round"/>
<path d="M536.356 163.855C536.356 163.855 537.238 159.701 533.668 158.582C530.098 157.464 530.894 161.586 530.894 161.586C530.894 161.586 527.885 160.829 527.287 163.168C526.689 165.507 529.773 166.358 529.773 166.358C529.773 166.358 527.603 170.415 530.977 171.212C534.352 172.009 534.184 168.041 534.184 168.041C534.184 168.041 537.974 168.711 538.149 166.712C538.324 164.714 536.356 163.855 536.356 163.855Z" fill="#FEFFFA"/>
<path d="M536.356 163.855C536.356 163.855 537.238 159.701 533.668 158.582C530.098 157.464 530.894 161.586 530.894 161.586C530.894 161.586 527.885 160.829 527.287 163.168C526.689 165.507 529.773 166.358 529.773 166.358C529.773 166.358 527.603 170.415 530.977 171.212C534.352 172.009 534.184 168.041 534.184 168.041C534.184 168.041 537.974 168.711 538.149 166.712C538.324 164.714 536.356 163.855 536.356 163.855Z" stroke="#2E1E00" stroke-width="2" stroke-miterlimit="10" stroke-linecap="round" stroke-linejoin="round"/>
<path d="M66.8036 261.043C66.8036 261.043 67.3936 257.681 65.0831 255.77C63.7737 254.687 61.8696 254.533 60.4241 255.425C60.1141 255.617 59.8578 255.853 59.7281 256.143C59.7281 256.143 53.2428 255.366 53.2569 259.942C53.2737 265.261 58.4088 262.908 58.4088 262.908C58.4088 262.908 56.2622 267.862 60.0913 268.328C63.9207 268.794 63.8172 263.751 63.8172 263.751C63.8172 263.751 67.1039 266.213 68.1182 264.274C69.1327 262.336 66.8036 261.043 66.8036 261.043Z" fill="#FEFFFA"/>
<path d="M66.8036 261.043C66.8036 261.043 67.3936 257.681 65.0831 255.77C63.7737 254.687 61.8696 254.533 60.4241 255.425C60.1141 255.617 59.8578 255.853 59.7281 256.143C59.7281 256.143 53.2428 255.366 53.2569 259.942C53.2737 265.261 58.4088 262.908 58.4088 262.908C58.4088 262.908 56.2622 267.862 60.0913 268.328C63.9207 268.794 63.8172 263.751 63.8172 263.751C63.8172 263.751 67.1039 266.213 68.1182 264.274C69.1327 262.336 66.8036 261.043 66.8036 261.043Z" stroke="#2E1E00" stroke-width="2" stroke-miterlimit="10" stroke-linecap="round" stroke-linejoin="round"/>
<path d="M777.38 28.6361C777.38 28.6361 781.243 25.3958 780.448 21.0399C779.997 18.5716 777.991 16.5874 775.509 16.2215C774.977 16.1433 774.463 16.1667 774.04 16.3705C774.04 16.3705 767.448 9.32871 763.115 14.5136C758.077 20.5417 766.119 22.7628 766.119 22.7628C766.119 22.7628 758.982 26.3228 762.868 30.4901C766.753 34.6565 771.43 28.8585 771.43 28.8585C771.43 28.8585 772.806 34.7644 775.795 33.5377C778.784 32.3108 777.38 28.6361 777.38 28.6361Z" fill="#FEFFFA"/>
<path d="M777.38 28.6361C777.38 28.6361 781.243 25.3958 780.448 21.0399C779.997 18.5716 777.991 16.5874 775.509 16.2215C774.977 16.1433 774.463 16.1667 774.04 16.3705C774.04 16.3705 767.448 9.32871 763.115 14.5136C758.077 20.5417 766.119 22.7628 766.119 22.7628C766.119 22.7628 758.982 26.3228 762.868 30.4901C766.753 34.6565 771.43 28.8585 771.43 28.8585C771.43 28.8585 772.806 34.7644 775.795 33.5377C778.784 32.3108 777.38 28.6361 777.38 28.6361Z" stroke="#2E1E00" stroke-width="2" stroke-miterlimit="10" stroke-linecap="round" stroke-linejoin="round"/>
<path d="M14.7439 258.96C14.7439 258.96 21.4573 261.088 23.8813 255.377C26.3059 249.666 19.3737 250.312 19.3737 250.312C19.3737 250.312 21.1104 245.469 17.347 244.103C13.5835 242.737 11.6797 247.69 11.6797 247.69C11.6797 247.69 5.33545 243.452 3.47422 248.892C1.61278 254.332 8.18849 254.696 8.18849 254.696C8.18849 254.696 6.46829 260.844 9.73887 261.456C13.0089 262.067 14.7439 258.96 14.7439 258.96Z" fill="#FEFFFA"/>
<path d="M14.7439 258.96C14.7439 258.96 21.4573 261.088 23.8813 255.377C26.3059 249.666 19.3737 250.312 19.3737 250.312C19.3737 250.312 21.1104 245.469 17.347 244.103C13.5835 242.737 11.6797 247.69 11.6797 247.69C11.6797 247.69 5.33545 243.452 3.47422 248.892C1.61278 254.332 8.18849 254.696 8.18849 254.696C8.18849 254.696 6.46829 260.844 9.73887 261.456C13.0089 262.067 14.7439 258.96 14.7439 258.96Z" stroke="#2E1E00" stroke-width="2" stroke-miterlimit="10" stroke-linecap="round" stroke-linejoin="round"/>
</svg>
