<svg width="31" height="29" viewBox="0 0 31 29" fill="none" xmlns="http://www.w3.org/2000/svg">
<path fill-rule="evenodd" clip-rule="evenodd" d="M15.4004 28.5563C11.748 28.5563 8.09562 28.5609 4.44328 28.5544C2.33401 28.5508 0.662234 27.1967 0.248272 25.1624C0.185622 24.8543 0.163921 24.533 0.163659 24.2177C0.158934 17.7768 0.157534 11.336 0.161472 4.89513C0.162959 2.38607 1.97867 0.572977 4.48896 0.571927C11.8593 0.568777 19.2296 0.57884 26.5999 0.561865C27.6647 0.559415 28.1699 1.34403 28.1625 1.96755C28.1538 2.70124 27.5892 3.30902 26.8568 3.35303C26.715 3.36152 26.5726 3.35915 26.4305 3.35915C19.1476 3.35941 11.8648 3.35915 4.58188 3.35959C3.77951 3.35968 3.242 3.69681 3.03593 4.32506C2.7506 5.19481 3.36362 6.10228 4.27791 6.16055C4.40863 6.16886 4.54023 6.1644 4.67148 6.1644C11.9543 6.16449 19.2373 6.16449 26.52 6.16458C27.6325 6.16458 28.1618 6.69631 28.1619 7.81352C28.1622 9.58495 28.1659 11.3565 28.1569 13.1279C28.1558 13.3449 28.2159 13.443 28.4243 13.5308C29.9697 14.1814 31.0048 15.7177 30.9584 17.3754C30.9087 19.1539 30.0561 20.4447 28.4286 21.1881C28.2031 21.2911 28.1573 21.4087 28.1581 21.6276C28.165 23.4209 28.163 25.2142 28.1616 27.0076C28.1609 27.9945 27.6062 28.5547 26.6199 28.5552C22.8801 28.5575 19.1402 28.5563 15.4004 28.5563ZM25.3392 21.5681C24.3613 21.5681 23.4217 21.5739 22.482 21.5661C21.8484 21.5607 21.2108 21.5774 20.5823 21.5126C18.4521 21.293 16.7593 19.1795 16.9775 17.0499C17.2142 14.7403 18.9426 13.1769 21.2723 13.1699C22.508 13.1662 23.7438 13.1692 24.9795 13.1692C25.096 13.1692 25.2125 13.1692 25.3375 13.1692C25.3375 11.7505 25.3375 10.3778 25.3375 8.96974C25.1794 8.96974 25.0403 8.96974 24.9012 8.96974C18.8537 8.96974 12.8061 8.97805 6.75862 8.96291C5.49932 8.95976 4.22558 9.12295 2.96515 8.72089C2.96515 8.87043 2.96515 8.98995 2.96515 9.10948C2.96515 14.1181 2.96506 19.1267 2.96523 24.1353C2.96523 25.2231 3.50852 25.7673 4.59737 25.7674C11.3885 25.7679 18.1796 25.7676 24.9708 25.7676C25.0878 25.7676 25.2048 25.7676 25.3392 25.7676C25.3392 24.3544 25.3392 22.9821 25.3392 21.5681ZM23.9635 18.763C24.8702 18.763 25.7771 18.7661 26.6838 18.762C27.531 18.7582 28.1534 18.1713 28.161 17.3781C28.1686 16.5828 27.5582 15.9669 26.7144 15.9617C24.879 15.9506 23.0436 15.9504 21.2082 15.9619C20.3651 15.9671 19.7553 16.5849 19.7641 17.3805C19.7728 18.1734 20.3949 18.7584 21.2431 18.762C22.1499 18.7661 23.0566 18.763 23.9635 18.763Z" fill="#1D164A"/>
</svg>
